{"glyphs":{":":{"x_min":0,"x_max":221,"ha":221,"o":"m 170 110 l 115 55 l 113 57 b 112 58 111 60 109 61 b 108 63 106 64 105 66 l 164 125 l 150 125 l 98 72 b 95 76 91 79 87 83 l 129 125 l 115 125 l 81 90 b 77 93 73 97 70 100 l 94 125 l 81 125 l 63 107 b 59 111 56 115 53 118 l 60 125 l 46 125 l 46 0 l 170 0 b 170 1 170 2 170 3 l 170 5 l 167 3 l 157 13 l 170 26 l 170 40 l 150 20 l 139 31 l 170 61 l 170 75 l 133 38 l 122 48 l 170 96 z m 170 410 l 115 355 l 113 357 b 112 358 111 360 109 361 b 108 363 106 364 105 366 l 164 425 l 150 425 l 98 372 b 95 376 91 379 87 383 l 129 425 l 115 425 l 81 390 b 77 393 73 397 70 400 l 94 425 l 81 425 l 63 407 b 59 411 56 415 53 418 l 60 425 l 46 425 l 46 300 l 170 300 b 170 301 170 302 170 303 l 170 305 l 167 303 l 157 313 l 170 326 l 170 340 l 150 320 l 139 331 l 170 361 l 170 375 l 133 338 l 122 348 l 170 396 z"},"$":{"x_min":0,"x_max":592,"ha":592,"o":"m 330 -57 l 330 -47 l 325 -52 z m 477 52 l 516 91 b 522 100 528 110 533 122 l 443 31 b 455 37 466 44 477 52 z m 501 485 l 517 501 b 517 505 517 510 517 514 l 494 491 z m 225 686 b 219 684 212 681 204 678 l 176 650 l 181 641 z m 434 43 l 542 151 b 543 157 544 162 545 167 l 429 52 z m 546 202 l 418 74 l 415 80 b 401 72 386 66 372 62 b 378 64 385 67 392 69 l 411 88 l 415 80 b 417 81 419 82 421 84 b 443 98 461 118 469 146 b 469 146 469 146 469 146 l 543 221 b 543 224 542 228 541 232 l 473 164 b 474 169 474 175 474 182 b 474 183 474 184 474 185 l 536 247 b 535 250 533 253 532 256 l 473 198 b 473 198 473 198 473 198 b 472 203 471 209 469 215 l 525 270 b 523 273 521 275 519 278 l 466 225 b 464 229 462 234 459 239 b 459 239 459 239 459 239 l 511 290 b 509 292 507 295 504 297 l 454 247 b 454 247 454 247 454 247 b 451 251 449 255 445 259 b 445 259 445 259 445 259 l 494 308 b 492 310 490 312 487 314 l 439 266 b 439 266 439 266 439 266 b 436 270 432 273 429 276 l 476 323 b 473 325 471 327 468 329 l 422 283 b 422 283 422 283 422 283 b 418 286 414 289 410 291 l 456 337 b 453 339 450 341 447 342 l 402 297 b 398 300 394 302 389 305 b 389 305 389 305 389 305 l 434 349 b 431 351 428 352 425 354 l 381 310 b 376 312 372 315 367 317 b 367 317 367 317 367 317 l 411 360 b 408 362 404 363 401 364 l 358 321 b 353 323 348 325 343 327 l 386 370 b 383 371 379 372 376 373 l 334 331 b 334 331 334 331 334 331 b 328 333 323 335 318 336 l 360 378 b 357 379 353 380 350 381 l 308 339 b 308 339 308 339 308 339 b 300 341 296 342 296 342 l 300 332 l 296 327 l 296 342 b 296 342 294 343 292 344 l 294 346 l 296 342 l 296 348 l 333 385 b 330 385 329 385 329 385 l 329 394 l 296 361 l 296 382 l 329 415 l 329 429 l 296 395 l 296 416 l 330 449 l 330 463 l 296 429 l 296 450 l 330 484 l 330 497 l 296 463 l 296 484 l 330 518 l 330 531 l 296 497 l 296 518 l 330 552 l 330 564 l 330 565 l 296 531 l 296 552 l 323 579 l 330 564 b 330 564 397 549 397 470 l 517 470 b 517 474 517 477 517 480 l 512 475 l 483 501 l 515 533 b 514 537 514 541 513 544 l 476 507 l 466 517 l 510 561 b 509 565 508 568 507 572 l 458 524 l 463 520 l 451 531 b 451 531 451 532 450 535 l 501 587 b 500 590 498 593 497 596 l 446 545 b 444 549 442 554 439 559 b 439 559 439 559 439 559 l 490 610 b 488 613 486 615 485 618 l 434 567 b 431 571 428 575 425 579 l 425 579 l 476 630 b 474 632 472 635 470 637 l 419 586 l 419 586 b 416 589 412 593 408 596 l 460 647 b 457 650 455 652 452 654 l 401 602 b 401 602 401 602 401 602 b 397 605 393 608 389 611 l 441 662 b 438 664 435 666 432 668 l 380 616 b 376 618 371 620 366 622 l 419 675 b 416 677 413 678 410 679 l 356 626 l 356 626 b 351 627 346 629 340 630 l 340 630 l 395 685 b 392 686 388 687 385 688 l 329 632 b 323 633 316 634 310 634 l 310 634 l 368 692 b 364 693 360 694 357 694 l 297 635 b 297 635 296 635 296 635 b 290 635 283 634 275 633 l 289 647 l 296 635 l 296 654 l 338 697 b 333 697 329 697 329 697 l 329 701 l 296 667 l 296 688 l 329 721 l 329 735 l 296 702 l 296 722 l 329 755 l 329 761 l 321 761 l 292 732 l 282 742 l 300 761 l 287 761 l 275 748 l 262 761 l 262 694 b 262 694 259 694 253 693 l 188 628 l 170 662 b 120 633 69 582 69 489 b 69 329 262 285 262 285 l 262 117 b 262 117 261 117 258 119 l 213 74 b 208 76 203 78 199 80 l 245 127 b 243 128 240 130 238 133 l 190 85 b 186 87 182 90 177 93 l 227 143 b 225 145 223 147 221 150 l 169 98 b 166 101 162 104 158 108 l 213 162 b 211 165 209 168 208 171 l 151 114 b 148 117 144 121 141 125 l 203 187 b 202 190 202 194 201 198 l 135 132 b 132 136 129 140 126 144 l 191 209 l 177 209 l 120 151 l 123 149 l 108 160 l 157 209 l 143 209 l 101 166 l 106 162 l 83 180 l 89 175 l 123 209 l 109 209 l 82 181 l 70 190 l 89 209 l 75 209 l 62 196 l 51 205 l 55 209 l 46 209 b 46 209 42 43 262 0 l 262 -64 l 330 -64 l 311 -46 l 330 -27 l 330 -13 l 304 -39 l 296 -31 l 296 -27 l 327 4 l 330 0 b 330 0 386 4 440 30 l 422 65 l 546 189 b 546 190 546 190 546 190 b 546 194 546 198 546 202 z m 296 635 l 296 634 l 296 633 z m 296 620 l 301 625 l 307 611 l 296 599 z m 296 586 l 312 602 l 319 587 l 319 588 l 296 565 z m 290 355 l 281 347 b 277 348 272 350 266 352 l 283 369 l 282 371 z m 277 669 l 284 656 l 258 630 b 249 627 239 624 228 621 l 228 621 z m 200 607 l 193 619 l 264 691 l 274 674 l 272 677 l 204 609 b 202 609 201 608 200 607 l 203 600 l 200 606 l 141 546 b 153 574 175 594 200 607 z m 134 526 l 205 597 l 212 584 l 130 501 b 130 510 132 518 134 526 z m 130 494 b 130 492 130 490 130 488 l 217 575 l 215 579 l 225 562 l 132 470 b 131 477 130 485 130 494 z m 256 356 b 252 358 247 360 242 362 l 272 391 l 267 400 l 233 366 b 228 368 224 371 219 373 l 258 412 b 256 413 253 415 249 417 l 211 378 b 206 381 202 383 198 386 l 237 424 b 234 426 231 428 229 430 l 190 391 b 186 394 182 397 179 401 l 218 440 b 216 443 214 445 212 448 l 171 407 b 168 410 164 414 161 417 l 205 461 b 204 464 202 467 201 471 l 155 424 b 152 428 149 432 146 436 l 198 488 b 198 490 198 492 198 495 b 198 497 198 499 198 502 l 142 445 b 139 450 137 455 135 459 l 211 535 b 215 541 220 545 225 549 l 229 553 l 230 553 b 246 563 262 567 262 567 l 262 411 l 278 378 z m 222 70 l 265 112 l 272 99 l 237 64 b 232 66 227 68 222 70 z m 248 61 l 276 90 l 273 96 l 286 70 l 283 76 l 264 57 b 259 58 254 59 248 61 z m 295 54 l 294 52 b 290 53 284 53 275 55 l 288 67 l 296 53 z m 296 314 l 304 322 l 310 307 l 296 293 z m 296 279 l 314 298 l 323 276 l 320 283 l 296 259 z m 296 41 l 300 45 l 308 33 l 296 21 z m 299 52 b 301 52 304 52 307 52 b 304 52 301 52 299 52 z m 296 -13 l 296 7 l 314 25 l 310 31 l 322 13 z m 330 54 b 321 53 314 53 307 52 l 375 120 b 367 116 359 113 352 110 l 296 55 l 296 75 l 329 108 l 329 122 l 296 89 l 296 109 l 329 143 l 329 156 l 296 123 l 296 143 l 329 177 l 329 190 l 296 157 l 296 177 l 329 211 l 329 224 l 296 191 l 296 211 l 329 245 l 329 258 l 296 225 l 296 245 l 324 274 l 329 261 b 329 261 414 242 414 179 b 414 156 403 140 389 129 l 395 119 z m 345 56 l 399 110 l 398 113 l 406 97 l 372 62 b 363 60 354 58 345 56 z m 266 761 l 262 761 l 264 759 z"},"?":{"x_min":0,"x_max":456,"ha":456,"o":"m 220 68 l 276 124 l 262 124 l 213 75 l 203 86 l 241 124 l 228 124 l 196 93 l 185 103 l 207 124 l 193 124 l 178 110 l 168 120 l 172 124 l 164 124 l 164 0 l 288 0 l 288 12 l 282 6 l 272 16 l 288 32 l 288 46 l 265 23 l 255 34 l 288 67 l 288 81 l 248 41 l 237 51 l 288 102 l 288 115 l 230 58 l 220 68 z m 344 435 b 344 435 344 435 344 435 l 414 506 b 414 510 414 515 414 519 l 349 455 b 349 455 349 455 349 455 b 351 463 353 471 353 480 l 353 480 l 412 539 b 412 543 411 547 410 551 l 354 494 b 354 497 354 499 354 501 b 354 504 354 509 354 515 l 407 568 b 406 572 405 576 404 579 l 353 528 b 352 533 351 539 350 545 l 399 595 b 398 598 397 601 395 605 l 347 556 b 345 561 344 567 341 572 b 341 572 341 572 341 572 l 388 618 b 386 621 385 624 383 627 l 337 581 b 335 585 332 590 329 594 b 329 594 329 594 329 594 l 374 639 b 372 642 370 644 368 647 l 323 602 b 320 605 316 609 313 612 l 357 657 b 355 659 352 661 350 663 l 305 618 l 305 618 b 301 621 296 623 292 626 l 292 626 l 338 672 b 335 673 332 675 329 677 l 282 630 b 277 632 272 634 266 635 b 266 635 266 635 266 635 l 315 683 b 312 685 308 686 305 687 l 255 637 b 255 637 255 637 255 637 b 249 638 243 639 236 639 l 289 692 b 285 693 282 694 278 695 l 222 639 b 214 639 206 638 199 636 l 260 698 b 256 698 252 699 247 699 l 180 631 b 180 631 180 631 180 631 b 175 630 170 628 166 625 l 168 620 l 110 561 b 119 584 136 610 166 625 l 161 634 l 227 700 b 227 700 226 700 225 700 b 221 700 217 700 213 700 l 157 643 l 150 657 l 190 697 b 185 697 179 696 174 694 l 145 666 l 138 680 l 143 685 b 141 684 139 683 137 682 b 63 646 36 560 36 453 l 153 453 b 153 457 153 461 153 466 l 147 460 l 137 471 l 155 489 b 155 494 156 500 157 505 l 130 478 l 120 489 l 166 534 b 172 549 181 563 194 571 b 203 576 213 579 226 579 b 294 579 295 515 295 498 b 295 369 171 418 171 187 l 267 187 b 267 191 267 195 267 200 l 261 193 l 251 204 l 269 223 b 270 229 272 235 273 240 l 245 212 l 235 223 l 289 277 b 316 321 361 341 389 391 l 228 230 l 223 237 b 223 240 223 243 223 246 l 404 427 b 406 433 407 439 409 445 l 225 261 b 227 273 230 283 235 292 l 412 470 b 413 475 413 479 414 485 l 314 385 b 326 399 336 415 344 435 z m 103 541 l 173 611 l 180 597 l 99 516 b 99 520 100 529 103 541 z m 114 496 l 104 507 l 185 588 l 192 574 l 114 496 z"},"<":{"x_min":0,"x_max":536,"ha":536,"o":"m 376 449 l 469 541 l 464 550 l 340 426 z m 359 155 l 391 187 l 382 192 l 350 160 z m 467 505 l 481 519 l 476 528 l 431 483 z m 188 261 l 221 293 l 213 299 l 180 266 z m 439 63 l 456 80 l 472 110 l 436 73 z m 429 101 l 431 94 l 426 113 l 415 120 l 423 115 l 454 147 l 446 152 l 414 121 l 397 131 l 401 129 l 433 160 l 425 166 l 393 134 l 380 142 l 412 174 l 403 179 l 372 147 l 337 168 l 369 200 l 361 206 l 329 173 l 314 183 l 316 181 l 348 214 l 340 219 l 308 187 l 295 195 l 327 227 l 319 232 l 286 200 l 271 209 l 274 208 l 306 240 l 297 245 l 265 213 l 245 225 l 252 221 l 285 253 l 276 259 l 244 226 l 231 234 l 263 267 l 255 272 l 223 240 l 225 238 l 204 251 l 210 248 l 242 280 l 234 285 l 201 253 l 162 277 l 167 274 l 200 307 l 191 312 l 159 279 l 146 287 l 178 320 l 174 323 l 194 336 l 335 476 l 390 510 l 249 370 l 285 392 l 457 564 l 453 573 l 428 549 l 437 578 l 445 587 l 441 595 l 61 357 l 61 286 l 441 53 l 432 90 l 476 134 l 467 139 z m 88 323 l 116 340 l 95 319 z m 103 314 l 152 362 l 207 397 l 116 306 z m 121 303 l 125 300 l 243 419 l 320 467 l 298 453 l 137 292 l 141 290 z"},"'":{"x_min":0,"x_max":220,"ha":220,"o":"m 58 699 l 48 699 l 53 694 l 58 699 z m 113 639 l 107 645 l 161 699 l 147 699 l 100 651 l 89 661 l 127 699 l 113 699 l 82 668 l 71 678 l 92 699 l 78 699 l 64 684 l 48 699 l 70 407 l 156 407 l 151 413 l 157 418 l 158 433 l 144 420 l 134 430 l 160 456 l 161 471 l 127 437 l 117 448 l 163 493 l 164 508 l 113 458 l 113 479 l 166 531 l 167 546 l 113 492 l 113 513 l 168 568 l 170 583 l 113 527 l 113 548 l 171 606 l 173 621 l 113 561 l 113 582 l 174 643 l 176 658 l 113 596 l 113 617 l 177 681 l 179 696 l 113 630 l 113 639 z"},"=":{"x_min":0,"x_max":656,"ha":656,"o":"m 554 489 l 553 489 l 513 450 l 493 450 l 532 489 l 519 489 l 479 450 l 458 450 l 498 489 l 484 489 l 444 450 l 424 450 l 463 489 l 450 489 l 410 450 l 389 450 l 429 489 l 415 489 l 375 450 l 355 450 l 394 489 l 381 489 l 341 450 l 320 450 l 360 489 l 346 489 l 306 450 l 286 450 l 325 489 l 312 489 l 272 450 l 251 450 l 291 489 l 277 489 l 237 450 l 217 450 l 256 489 l 243 489 l 203 450 l 182 450 l 222 489 l 208 489 l 168 450 l 148 450 l 187 489 l 174 489 l 141 457 l 130 467 l 153 489 l 139 489 l 123 474 l 113 484 l 118 489 l 108 489 l 108 410 l 554 410 l 554 421 l 548 415 l 538 426 l 554 442 l 554 456 l 531 433 l 520 443 l 554 476 z m 513 250 l 493 250 l 532 289 l 519 289 l 479 250 l 458 250 l 498 289 l 484 289 l 444 250 l 424 250 l 463 289 l 450 289 l 410 250 l 389 250 l 429 289 l 415 289 l 375 250 l 355 250 l 394 289 l 381 289 l 341 250 l 320 250 l 360 289 l 346 289 l 306 250 l 286 250 l 325 289 l 312 289 l 272 250 l 251 250 l 291 289 l 277 289 l 237 250 l 217 250 l 256 289 l 243 289 l 203 250 l 182 250 l 222 289 l 208 289 l 168 250 l 148 250 l 187 289 l 174 289 l 141 257 l 130 267 l 153 289 l 139 289 l 123 274 l 113 284 l 118 289 l 108 289 l 108 210 l 554 210 l 554 221 l 548 215 l 538 226 l 554 242 l 554 256 l 531 233 l 520 243 l 554 276 l 554 289 l 553 289 z"},"a":{"x_min":0,"x_max":613,"ha":613,"o":"m 579 0 l 579 1 l 577 12 l 571 6 l 558 15 l 572 29 l 570 40 l 550 20 l 538 29 l 565 56 l 563 67 l 530 34 l 517 43 l 558 84 l 556 95 l 509 49 l 497 57 l 551 112 l 549 123 l 489 63 l 485 80 l 544 140 l 542 151 l 482 91 l 478 108 l 537 167 l 535 178 l 476 120 l 472 137 l 530 195 l 528 206 l 469 148 l 466 165 l 523 223 l 521 234 l 463 176 l 459 193 l 516 251 l 514 262 l 457 205 l 453 222 l 509 278 l 506 289 l 450 233 l 446 250 l 502 306 l 499 317 l 444 261 l 440 279 l 495 334 l 492 345 l 437 290 l 434 307 l 488 362 l 485 373 l 431 318 l 427 335 l 481 389 l 478 400 l 425 346 l 421 364 l 474 417 l 471 428 l 418 375 l 414 392 l 467 445 l 464 456 l 412 403 l 408 420 l 460 472 l 457 483 l 405 432 l 402 449 l 453 500 l 450 511 l 399 460 l 395 477 l 446 528 l 443 539 l 393 488 l 389 505 l 439 556 l 436 567 l 386 517 l 382 534 l 432 583 l 429 594 l 380 545 l 376 562 l 425 611 l 422 622 l 373 573 l 370 590 l 418 639 l 415 650 l 367 602 l 363 619 l 411 667 l 408 678 l 361 630 l 358 642 l 354 644 l 404 694 l 403 700 l 396 700 l 345 649 l 331 657 l 375 700 l 361 700 l 323 661 l 309 669 l 340 700 l 326 700 l 247 621 l 252 642 l 250 645 l 305 700 l 291 700 l 244 653 l 235 664 l 271 700 l 257 700 l 229 672 l 220 684 l 236 700 l 222 700 l 214 692 l 207 700 l 30 0 l 180 0 l 171 9 l 186 25 l 191 44 l 164 17 l 154 27 l 199 72 l 204 91 l 147 35 l 137 45 l 211 120 l 216 138 l 131 52 l 121 63 l 122 64 l 213 155 l 219 147 l 391 147 l 430 0 l 580 0 l 579 0 z m 243 603 l 305 665 l 305 644 l 237 576 l 243 603 z m 233 558 l 305 630 l 305 609 l 227 531 l 233 558 z m 223 513 l 305 595 l 305 574 l 217 486 l 223 513 z m 152 199 l 169 216 l 178 204 l 146 172 l 152 199 z m 142 154 l 183 196 l 192 184 l 136 127 l 142 154 z m 126 82 l 132 109 l 198 176 l 207 163 l 126 82 z m 287 229 l 351 293 l 337 293 l 273 229 l 252 229 l 316 293 l 302 293 l 238 229 l 217 229 l 281 293 l 267 293 l 203 229 l 182 229 l 254 301 l 257 318 l 168 229 l 159 229 l 163 224 l 156 217 l 159 229 l 162 244 l 263 345 l 267 363 l 166 262 l 172 289 l 273 389 l 276 407 l 176 307 l 182 334 l 282 434 l 286 451 l 186 352 l 193 379 l 292 478 l 295 495 l 197 397 l 203 424 l 301 522 l 305 540 l 207 441 l 213 469 l 305 561 l 305 540 l 358 293 l 366 288 l 307 229 l 287 229 z m 321 229 l 374 282 l 387 274 l 342 229 l 321 229 z m 356 229 l 395 268 l 407 260 l 377 229 l 356 229 z m 391 229 l 415 254 l 428 245 l 412 229 l 391 229 z m 446 229 l 426 229 l 436 240 l 448 231 l 446 229 z"},"L":{"x_min":0,"x_max":488,"ha":488,"o":"m 357 67 l 424 134 l 410 134 l 343 67 l 357 67 z m 446 134 l 445 134 l 378 67 l 322 67 l 389 134 l 376 134 l 309 67 l 288 67 l 355 134 l 341 134 l 274 67 l 253 67 l 320 134 l 306 134 l 239 67 l 218 67 l 285 134 l 271 134 l 204 67 l 183 67 l 250 134 l 237 134 l 170 67 l 149 67 l 216 134 l 202 134 l 135 67 l 114 67 l 181 134 l 176 134 l 176 143 l 108 75 l 108 96 l 176 164 l 176 178 l 108 110 l 108 131 l 176 199 l 176 213 l 108 144 l 108 165 l 176 234 l 176 247 l 108 179 l 108 200 l 176 268 l 176 282 l 108 214 l 108 235 l 176 303 l 176 317 l 108 249 l 108 270 l 176 338 l 176 352 l 108 283 l 108 304 l 176 373 l 176 387 l 108 318 l 108 339 l 176 407 l 176 421 l 108 353 l 108 374 l 176 442 l 176 456 l 108 388 l 108 409 l 176 477 l 176 491 l 108 422 l 108 443 l 176 512 l 176 526 l 108 457 l 108 478 l 176 546 l 176 560 l 108 492 l 108 513 l 176 581 l 176 595 l 108 527 l 108 548 l 176 616 l 176 630 l 108 562 l 108 582 l 176 651 l 176 665 l 108 596 l 108 617 l 176 686 l 176 699 l 108 631 l 108 648 l 106 650 l 156 700 l 142 700 l 98 656 l 86 665 l 121 700 l 108 700 l 78 671 l 66 680 l 87 700 l 73 700 l 59 686 l 47 695 l 52 700 l 40 700 l 40 0 l 446 0 l 439 10 l 446 17 l 446 31 l 433 17 l 424 29 l 446 52 l 446 66 l 418 37 l 409 49 l 446 87 l 446 100 l 403 57 l 395 67 l 392 67 l 446 121 l 446 134 z"},"3":{"x_min":0,"x_max":483,"ha":483,"o":"m 300 60 l 428 188 b 429 193 429 198 429 203 l 295 69 l 300 60 z m 369 61 b 384 75 396 92 405 110 l 319 24 b 337 33 354 46 369 61 z m 430 685 l 378 633 l 357 633 l 424 700 l 410 700 l 343 633 l 323 633 l 390 700 l 376 700 l 309 633 l 288 633 l 355 700 l 342 700 l 275 633 l 254 633 l 321 700 l 307 700 l 240 633 l 219 633 l 286 700 l 273 700 l 206 633 l 185 633 l 252 700 l 238 700 l 171 633 l 151 633 l 218 700 l 204 700 l 137 633 l 126 633 l 121 638 l 183 700 l 170 700 l 114 645 l 118 641 l 103 656 l 104 655 l 149 700 l 135 700 l 97 662 l 87 672 l 114 700 l 101 700 l 80 679 l 70 690 l 80 700 l 66 700 l 63 697 l 60 700 l 60 569 l 273 569 l 161 423 l 161 296 l 162 297 l 222 297 b 243 297 261 290 274 277 b 288 263 295 243 296 217 b 295 191 288 172 275 158 l 274 158 b 270 153 265 149 260 146 l 263 140 l 193 70 b 188 71 182 73 177 74 l 241 139 b 236 137 231 137 225 137 l 167 78 b 162 80 158 83 153 85 l 206 138 b 203 139 199 140 196 141 l 145 91 b 141 94 137 97 133 100 l 183 149 b 182 150 181 151 180 152 b 178 153 177 154 176 156 l 126 106 b 123 110 120 114 117 117 l 166 167 b 164 170 163 172 161 175 l 111 125 b 107 130 105 135 103 138 l 154 189 b 153 191 152 193 152 195 l 150 199 l 97 146 l 101 143 l 46 185 l 71 210 l 58 210 l 39 191 l 27 200 l 37 210 l 23 210 l 19 206 l 14 210 l 19 183 b 30 125 54 79 90 48 b 127 16 170 0 218 0 b 255 0 288 8 317 23 l 311 36 l 419 145 b 421 151 423 157 424 163 l 306 45 l 289 83 l 293 87 b 312 98 331 114 344 138 b 344 138 344 138 344 138 l 430 224 b 430 229 430 233 429 237 l 353 161 b 353 161 353 161 353 161 b 356 169 358 178 359 188 l 427 256 b 426 259 425 263 425 267 l 360 203 b 360 206 361 209 361 213 b 361 216 360 220 360 223 l 420 283 b 419 286 418 290 416 293 l 359 236 b 359 236 359 236 359 236 b 358 242 357 248 356 254 l 410 307 b 408 310 407 313 405 316 l 353 264 b 352 270 350 275 348 280 l 397 329 b 395 332 393 334 391 337 l 343 289 b 341 294 338 298 336 302 l 336 302 l 382 348 b 380 351 377 353 375 355 l 330 310 b 327 314 323 317 320 320 l 364 365 b 362 367 360 369 357 371 l 313 327 b 309 330 305 333 301 336 l 301 336 l 345 380 b 342 382 340 384 337 386 l 292 341 b 288 344 283 346 279 348 l 324 393 b 321 395 318 396 315 398 l 269 352 l 269 352 b 264 354 258 356 254 357 l 312 416 l 354 472 l 243 360 l 243 360 b 234 362 228 363 225 363 b 225 363 225 363 225 363 l 418 556 l 430 572 l 430 582 l 222 374 l 222 395 l 430 603 l 430 616 l 234 421 l 295 502 l 430 637 l 430 651 l 335 555 l 315 530 l 392 633 l 391 633 l 430 671 l 430 685 z m 228 68 b 231 68 235 68 240 69 b 235 68 231 68 228 68 z m 285 93 l 268 76 b 258 73 248 71 241 69 l 278 107 l 274 116 l 225 67 b 223 67 222 67 222 67 b 216 67 211 68 205 68 l 267 130 l 288 85 l 285 93 z m 140 210 l 127 210 l 78 161 l 85 155 l 140 210 z m 58 176 l 66 170 l 106 210 l 92 210 l 58 176 z"},";":{"x_min":0,"x_max":221,"ha":221,"o":"m 170 410 l 115 355 l 113 357 b 112 358 111 360 109 361 b 108 363 106 364 105 366 l 164 425 l 150 425 l 98 372 b 95 376 91 379 87 383 l 129 425 l 115 425 l 81 390 b 77 393 73 397 70 400 l 94 425 l 81 425 l 63 407 b 59 411 56 415 53 418 l 60 425 l 46 425 l 46 300 l 170 300 b 170 301 170 302 170 303 l 170 305 l 167 303 l 157 313 l 170 326 l 170 340 l 150 320 l 139 331 l 170 361 l 170 375 l 133 338 l 122 348 l 170 396 z m 105 65 l 164 124 l 150 124 l 98 72 z m 170 95 l 170 109 l 115 54 b 115 54 115 54 115 54 b 113 57 111 59 109 61 b 98 72 83 87 70 100 l 94 124 l 81 124 l 63 107 b 59 111 56 114 53 117 l 60 124 l 46 124 l 46 0 l 110 0 b 110 -37 97 -57 82 -67 l 87 -78 l 69 -96 l 72 -98 l 57 -87 l 71 -73 b 65 -76 58 -77 53 -78 l 49 -81 l 46 -78 l 46 -140 b 72 -140 94 -136 111 -126 b 131 -116 146 -100 155 -79 l 110 -124 l 111 -126 l 103 -110 l 165 -48 b 166 -43 167 -38 168 -32 l 99 -101 l 96 -96 b 87 -102 79 -104 79 -104 l 77 -102 l 92 -87 l 89 -81 l 96 -96 b 110 -88 127 -72 136 -43 l 170 -9 b 170 -5 170 -1 170 2 l 170 5 l 139 -26 l 139 -26 b 140 -20 140 -14 140 -8 b 140 -7 140 -5 140 -4 l 170 26 l 170 40 l 139 9 b 138 14 137 20 134 25 l 134 25 l 170 61 l 170 74 l 130 34 b 130 34 130 34 130 34 b 128 39 125 43 122 47 z m 88 82 l 129 124 l 115 124 l 81 89 z"},"J":{"x_min":0,"x_max":520,"ha":520,"o":"m 480 698 l 480 700 l 468 700 l 402 633 l 391 644 l 447 700 l 433 700 l 384 650 l 373 661 l 412 700 l 398 700 l 366 668 l 355 678 l 377 700 l 363 700 l 348 685 l 337 695 l 342 700 l 332 700 l 332 226 b 332 215 330 204 326 194 l 341 187 l 217 64 b 211 64 205 65 199 66 l 264 132 b 258 130 252 128 246 127 l 187 69 b 182 71 177 72 171 74 l 224 127 b 220 127 216 128 212 129 l 161 78 b 157 80 152 83 148 85 l 196 133 b 192 135 189 136 186 138 l 139 91 b 135 93 130 96 126 99 l 173 146 b 170 148 168 150 165 152 l 119 106 b 115 109 111 112 108 116 l 155 163 b 153 166 151 168 149 171 l 101 123 b 101 123 102 123 99 126 l 84 127 l 142 185 b 140 188 139 191 138 194 l 137 193 l 72 128 l 52 130 l 97 174 l 70 162 l 39 131 l 20 133 l 30 143 l 10 133 b 50 51 134 -5 232 -5 b 330 -5 414 51 455 133 l 445 138 l 465 158 b 468 165 470 171 472 178 l 436 142 l 421 149 l 477 205 b 478 210 479 216 479 221 l 412 154 l 397 160 l 480 243 l 480 257 l 391 167 b 391 167 391 167 391 167 b 395 179 401 199 401 199 l 480 278 l 480 292 l 404 215 b 404 222 405 229 405 236 l 405 238 l 480 313 l 480 327 l 405 252 l 405 273 l 480 348 l 480 362 l 405 287 l 405 308 l 480 383 l 480 397 l 405 322 l 405 343 l 480 418 l 480 432 l 405 357 l 405 378 l 480 453 l 480 467 l 405 392 l 405 413 l 480 488 l 480 502 l 405 427 l 405 448 l 480 523 l 480 537 l 405 462 l 405 483 l 480 558 l 480 572 l 405 497 l 405 518 l 480 593 l 480 607 l 405 532 l 405 553 l 480 628 l 480 642 l 405 567 l 405 588 l 480 663 l 480 677 l 405 602 l 405 623 l 480 698 z m 232 63 b 231 63 231 63 230 63 l 350 183 l 364 176 l 253 64 b 251 64 240 63 232 63 z m 333 96 l 372 135 b 361 120 348 107 333 96 z m 301 77 b 291 73 280 70 269 67 l 374 172 l 388 165 l 301 77 z"},"V":{"x_min":0,"x_max":563,"ha":563,"o":"m 547 674 l 552 692 l 454 595 l 460 621 l 539 700 l 525 700 l 463 638 l 453 649 l 504 700 l 491 700 l 447 656 l 437 667 l 470 700 l 456 700 l 430 674 l 420 684 l 435 700 l 422 700 l 413 692 l 406 700 l 282 160 l 282 147 l 223 88 l 219 105 l 280 166 l 278 178 l 216 116 l 213 133 l 274 194 l 271 206 l 210 144 l 206 161 l 268 222 l 265 234 l 204 172 l 200 189 l 261 250 l 259 262 l 198 201 l 194 218 l 255 278 l 252 289 l 191 229 l 188 246 l 248 306 l 246 317 l 185 257 l 181 274 l 242 334 l 239 345 l 179 285 l 175 302 l 235 362 l 233 373 l 172 313 l 169 330 l 229 390 l 226 401 l 166 341 l 162 358 l 223 418 l 220 429 l 160 369 l 156 386 l 216 446 l 214 457 l 154 397 l 150 414 l 210 474 l 207 485 l 147 425 l 144 442 l 203 502 l 201 513 l 141 454 l 137 471 l 197 530 l 194 541 l 135 482 l 131 499 l 190 558 l 188 569 l 128 510 l 125 527 l 184 586 l 182 597 l 122 538 l 118 555 l 178 614 l 175 625 l 116 566 l 112 583 l 171 642 l 169 653 l 110 594 l 106 611 l 165 670 l 162 681 l 103 622 l 100 637 l 99 638 l 158 698 l 158 700 l 147 700 l 91 644 l 78 652 l 126 700 l 112 700 l 70 658 l 58 666 l 92 700 l 78 700 l 50 672 l 38 681 l 57 700 l 43 700 l 30 686 l 17 695 l 23 700 l 10 700 l 185 0 l 378 0 l 379 4 l 377 2 l 368 13 l 386 32 l 391 50 l 362 21 l 353 33 l 398 78 l 402 96 l 347 41 l 338 52 l 409 123 l 414 142 l 335 63 l 341 90 l 421 169 l 425 188 l 345 107 l 351 134 l 432 215 l 437 233 l 355 152 l 361 178 l 444 261 l 448 279 l 365 196 l 371 223 l 455 307 l 460 325 l 375 240 l 381 267 l 467 353 l 471 371 l 385 285 l 391 311 l 478 399 l 483 417 l 395 329 l 401 356 l 490 445 l 494 463 l 405 373 l 411 400 l 501 491 l 506 509 l 415 417 l 421 444 l 513 537 l 517 555 l 424 462 l 430 488 l 524 582 l 529 601 l 434 506 l 440 533 l 536 628 l 540 647 l 444 550 l 450 577 l 547 674 z m 282 44 l 272 34 l 259 42 l 282 65 l 282 44 z m 282 78 l 250 46 l 237 54 l 282 99 l 282 78 z m 282 113 l 229 60 l 225 77 l 282 134 l 282 113 z"},"\"":{"x_min":0,"x_max":400,"ha":400,"o":"m 58 699 l 48 699 l 53 694 l 58 699 z m 284 649 l 334 699 l 320 699 l 277 656 l 284 649 z m 311 435 l 342 466 l 343 481 l 305 442 l 311 435 z m 360 691 l 360 699 l 355 699 l 295 639 l 295 639 l 266 666 l 299 699 l 286 699 l 259 672 l 248 682 l 265 699 l 251 699 l 241 689 l 230 699 l 230 699 l 230 699 l 251 407 l 337 407 l 328 417 l 339 428 l 340 443 l 321 424 l 295 452 l 295 453 l 345 503 l 346 518 l 295 467 l 295 488 l 348 541 l 349 556 l 295 501 l 295 522 l 351 578 l 352 593 l 295 536 l 295 557 l 354 616 l 355 630 l 295 570 l 295 591 l 357 653 l 358 668 l 295 605 l 295 626 l 360 691 z m 113 639 l 107 645 l 161 699 l 147 699 l 100 651 l 89 661 l 127 699 l 113 699 l 82 668 l 71 678 l 92 699 l 78 699 l 64 684 l 48 699 l 70 407 l 156 407 l 151 413 l 157 418 l 158 433 l 144 420 l 134 430 l 160 456 l 161 471 l 127 437 l 117 448 l 163 493 l 164 508 l 113 458 l 113 479 l 166 531 l 167 546 l 113 492 l 113 513 l 168 568 l 170 583 l 113 527 l 113 548 l 171 606 l 173 621 l 113 561 l 113 582 l 174 643 l 176 658 l 113 596 l 113 617 l 177 681 l 179 696 l 113 630 l 113 639 z"},"7":{"x_min":0,"x_max":454,"ha":454,"o":"m 191 26 l 237 72 l 246 94 l 186 34 l 191 26 z m 177 47 l 258 128 l 267 150 l 172 55 l 177 47 z m 431 678 l 431 692 l 368 629 l 347 629 l 418 700 l 404 700 l 333 629 l 313 629 l 383 700 l 370 700 l 299 629 l 278 629 l 349 700 l 335 700 l 265 629 l 244 629 l 315 700 l 301 700 l 230 629 l 209 629 l 280 700 l 267 700 l 196 629 l 175 629 l 246 700 l 232 700 l 161 629 l 141 629 l 212 700 l 198 700 l 127 629 l 106 629 l 177 700 l 164 700 l 94 630 l 83 640 l 143 700 l 129 700 l 76 647 l 66 658 l 108 700 l 95 700 l 59 664 l 49 675 l 74 700 l 60 700 l 42 682 l 32 692 l 40 700 l 26 700 l 25 699 l 24 700 l 24 560 l 271 560 l 60 0 l 209 0 l 205 6 l 216 16 l 224 39 l 200 14 l 163 67 l 280 184 l 288 206 l 165 82 l 184 133 l 177 116 l 301 239 l 310 261 l 186 138 l 203 182 l 198 171 l 322 295 l 331 317 l 207 193 l 221 231 l 220 227 l 344 351 l 352 373 l 228 249 l 241 282 l 365 406 l 374 429 l 249 304 l 244 290 l 262 338 l 386 462 l 395 484 l 270 360 l 283 393 l 408 518 l 416 540 l 291 415 l 284 397 l 304 449 l 429 574 l 431 578 l 431 589 l 313 471 l 304 449 l 325 504 l 431 610 l 431 623 l 334 526 l 326 507 l 346 560 l 431 644 l 431 658 l 355 582 l 350 569 l 368 615 l 431 678 z"},"S":{"x_min":0,"x_max":592,"ha":592,"o":"m 556 188 b 556 188 556 189 556 189 l 466 99 l 454 107 l 454 107 b 456 108 457 110 459 112 l 459 112 l 555 209 b 555 213 554 217 554 221 l 474 141 b 477 149 479 158 481 168 b 481 168 481 168 481 168 l 550 238 b 549 241 548 245 547 248 l 482 183 b 482 185 482 187 482 189 b 482 193 482 198 481 202 l 542 263 b 540 266 539 269 537 272 l 479 214 b 479 214 479 214 479 214 b 478 219 477 225 475 230 l 530 285 b 528 287 526 290 524 293 l 471 239 b 471 239 471 239 471 239 b 468 243 466 248 463 252 l 515 304 b 513 306 511 309 509 311 l 457 259 b 454 263 451 266 447 270 l 498 321 b 496 323 493 325 491 326 l 440 276 b 436 279 433 282 429 285 l 479 335 b 476 337 474 339 471 340 l 420 290 b 416 292 412 295 408 297 l 408 297 l 458 348 b 455 349 452 351 449 352 l 399 302 b 394 304 390 306 385 308 l 435 359 b 432 360 429 361 426 363 l 376 312 b 376 312 376 312 376 312 b 371 314 366 316 361 318 l 411 369 b 408 370 405 371 402 372 l 351 322 b 351 322 351 322 351 322 b 346 324 341 326 336 327 l 387 378 b 383 379 380 380 377 381 l 327 331 b 318 334 310 337 302 339 b 305 338 308 337 311 336 l 361 386 b 358 387 354 388 351 389 l 302 340 b 296 341 291 343 286 345 l 335 394 b 332 395 329 396 325 397 l 277 348 b 272 350 267 352 262 354 l 310 402 b 306 403 303 404 300 405 l 252 358 b 247 360 243 362 238 364 l 285 411 b 281 412 278 413 275 414 l 229 368 b 224 370 219 372 215 374 l 261 420 b 258 422 255 423 252 425 l 206 379 b 202 382 198 384 194 387 l 239 432 b 236 434 234 436 231 438 l 186 392 b 182 395 178 398 174 401 l 220 447 b 218 450 216 452 214 455 l 167 408 b 164 411 160 415 157 418 l 206 467 b 205 470 204 474 203 477 l 152 426 b 149 430 146 434 144 438 l 201 495 b 201 495 201 495 201 496 b 201 501 201 506 202 510 l 140 448 b 138 452 136 458 135 463 l 212 540 l 217 537 l 217 537 b 249 570 319 570 355 529 l 355 529 b 370 513 379 490 379 461 l 379 461 l 517 461 l 510 467 l 518 476 b 519 479 519 484 518 489 l 502 473 l 491 482 l 517 508 b 517 512 517 516 516 521 l 483 487 l 472 496 l 513 538 b 513 542 512 545 511 549 l 464 502 l 453 511 l 507 565 b 506 568 505 572 503 575 l 445 517 l 434 526 l 497 590 b 496 593 495 596 493 599 l 429 534 b 428 538 426 543 424 550 l 486 612 b 485 614 483 616 482 618 b 482 619 481 619 481 620 l 472 611 l 420 559 b 418 562 416 566 414 570 l 414 570 b 413 571 413 571 412 572 l 472 632 b 470 634 468 637 466 639 l 407 580 b 404 584 401 587 398 591 l 456 649 b 454 652 451 654 449 656 l 391 597 b 392 596 394 595 395 594 b 390 598 385 602 379 607 l 438 665 b 435 667 432 668 430 670 l 371 612 b 367 614 363 617 358 619 l 358 619 l 417 678 b 414 679 411 681 408 682 l 349 623 l 349 623 b 344 625 339 626 333 628 l 394 688 b 390 689 387 691 384 692 l 322 630 b 317 631 311 632 304 633 l 368 696 b 364 697 361 698 357 699 l 292 633 b 289 633 286 634 284 634 b 279 634 275 634 271 633 l 340 702 b 336 702 332 703 328 703 l 257 632 b 248 631 240 630 232 628 l 309 705 b 305 705 300 705 296 705 l 213 622 b 185 611 166 594 154 575 l 162 571 l 141 550 b 144 558 148 567 154 575 l 149 578 l 275 704 b 270 704 265 704 261 703 l 141 583 l 128 591 l 237 700 b 231 699 226 698 220 697 l 119 596 l 107 604 l 191 688 b 182 684 174 681 166 677 l 98 609 l 93 612 b 63 570 53 526 53 508 b 53 244 407 295 407 184 b 407 169 402 157 394 147 l 405 139 l 322 56 b 315 56 309 57 302 57 l 379 133 b 371 129 363 125 354 123 l 290 58 b 284 59 278 60 272 61 l 330 118 b 325 118 321 118 316 118 l 261 63 b 256 64 250 66 245 67 l 298 121 b 295 121 291 122 288 123 l 235 70 b 230 72 225 74 220 76 l 273 129 b 269 130 266 131 264 133 l 210 80 b 206 82 201 84 197 87 l 251 141 b 249 143 246 145 244 147 l 188 91 b 184 94 180 97 176 99 l 234 157 b 232 160 230 163 228 165 l 168 105 b 165 108 161 111 158 115 l 221 178 b 220 182 219 185 218 188 l 151 122 b 148 125 145 129 142 133 l 214 205 b 213 209 213 213 213 217 l 138 142 b 135 147 133 151 132 156 l 196 221 l 183 221 l 129 167 b 129 171 129 174 129 178 l 122 181 l 162 221 l 149 221 l 113 185 l 100 192 l 129 221 l 115 221 l 91 196 l 77 203 l 95 221 l 82 221 l 68 207 l 54 214 l 61 221 l 48 221 l 45 218 l 40 221 b 40 162 68 106 115 64 l 115 64 b 115 64 115 64 115 64 b 115 64 115 64 115 64 l 115 64 b 163 22 231 -5 310 -5 b 407 -5 471 28 509 70 b 515 77 520 83 524 90 l 506 72 l 494 80 l 546 132 b 548 139 550 145 552 151 l 486 85 l 474 94 l 556 176 b 556 180 556 184 556 188 z m 135 531 l 170 566 l 183 558 l 131 507 b 132 514 133 522 135 531 z m 131 493 l 191 553 l 204 545 l 132 474 b 131 480 131 486 131 493 z m 336 57 l 413 134 l 425 126 l 358 59 b 351 58 343 57 336 57 z m 375 62 l 433 121 l 445 112 l 405 72 b 395 68 385 64 375 62 z"},"}":{"x_min":0,"x_max":333,"ha":333,"o":"m 201 10 l 142 -48 b 168 -35 187 -16 201 10 z m 85 744 b 82 745 79 746 75 747 l 60 731 l 66 725 z m 314 358 l 314 368 b 314 368 314 368 312 368 l 186 242 b 191 255 198 268 205 279 l 298 372 b 295 373 293 375 290 376 l 256 343 b 254 344 250 347 245 351 l 279 384 b 277 386 274 387 272 390 l 239 356 b 236 359 233 362 229 365 l 263 399 b 261 401 260 404 258 406 l 224 372 b 221 375 218 378 215 382 l 251 418 b 249 420 248 423 247 426 l 210 389 b 207 392 205 396 202 400 l 241 439 b 240 442 239 445 238 448 l 198 407 b 195 411 193 415 191 419 l 234 462 b 233 465 232 469 232 472 l 187 428 b 185 432 184 436 182 441 l 229 488 b 228 491 228 495 228 499 l 179 450 b 177 455 176 460 175 465 l 226 516 b 226 520 226 524 226 528 l 173 475 b 172 480 171 485 170 491 l 225 546 b 225 550 225 554 225 558 l 169 502 b 169 508 168 513 168 520 l 223 575 b 223 578 222 582 222 585 l 168 532 b 168 538 168 544 167 549 l 219 601 b 218 604 217 608 216 611 l 166 561 b 166 566 165 572 164 577 l 212 625 b 211 628 210 631 209 634 l 162 588 b 162 588 162 588 162 588 b 161 593 160 598 159 603 l 203 647 b 202 649 200 652 199 655 l 157 612 b 155 617 154 622 152 626 l 192 667 b 190 669 189 671 187 674 l 148 635 b 147 640 145 644 143 648 b 143 648 143 648 143 648 l 179 684 b 177 687 175 689 174 691 l 138 656 b 138 656 138 656 138 656 b 136 660 134 664 131 667 b 131 667 131 667 131 667 l 164 700 b 162 702 160 704 158 706 l 126 674 b 126 674 126 674 126 674 b 123 678 120 681 118 684 l 148 715 b 145 716 143 718 141 720 l 112 691 b 108 694 105 697 102 699 b 102 699 102 699 102 699 l 129 727 b 127 728 124 730 121 731 l 94 704 b 90 707 86 709 83 711 l 108 737 b 106 738 103 739 100 740 l 74 715 l 51 741 l 59 749 b 55 749 51 750 48 750 l 45 747 l 43 750 l 43 695 b 43 695 110 683 110 536 b 110 389 208 340 208 340 b 208 340 110 304 110 146 b 110 -11 43 -14 43 -14 l 43 -67 b 43 -67 43 -67 43 -67 l 47 -64 l 46 -65 l 82 -35 b 82 -35 119 -19 145 35 b 145 35 145 35 145 35 l 224 114 b 225 118 225 123 225 127 l 153 55 b 156 63 159 72 161 81 b 161 81 161 81 161 81 l 225 146 b 225 147 225 149 225 151 b 225 153 226 156 226 158 l 164 97 b 165 103 166 110 167 118 b 167 118 167 118 167 118 l 227 178 b 227 183 227 187 228 192 l 168 131 b 168 137 168 144 168 150 b 168 150 168 150 168 150 l 232 214 b 233 220 235 226 237 231 l 168 163 b 169 170 169 177 170 183 l 251 264 b 266 288 283 302 296 309 l 314 327 l 314 339 l 173 198 b 174 206 177 215 179 223 z m 113 -59 l 213 41 b 214 46 216 52 217 57 l 97 -62 b 103 -61 108 -60 113 -59 z m 76 -65 l 221 80 b 222 84 222 89 223 94 l 62 -66 b 67 -66 71 -66 76 -65 z"},"Z":{"x_min":0,"x_max":501,"ha":501,"o":"m 464 700 l 452 700 l 389 637 l 368 637 l 431 700 l 417 700 l 355 637 l 334 637 l 397 700 l 383 700 l 320 637 l 300 637 l 362 700 l 349 700 l 286 637 l 265 637 l 328 700 l 314 700 l 252 637 l 231 637 l 293 700 l 280 700 l 217 637 l 196 637 l 259 700 l 245 700 l 183 637 l 162 637 l 225 700 l 211 700 l 148 637 l 128 637 l 190 700 l 177 700 l 114 637 l 104 637 l 99 643 l 156 700 l 142 700 l 92 650 l 81 660 l 121 700 l 108 700 l 74 667 l 64 677 l 87 700 l 73 700 l 57 684 l 47 694 l 53 700 l 40 700 l 40 574 l 328 574 l 40 132 l 40 0 l 464 0 l 459 6 l 464 11 l 464 24 l 452 13 l 442 23 l 464 45 l 464 59 l 436 30 l 426 41 l 464 80 l 464 93 l 419 48 l 409 59 l 464 114 l 464 128 l 403 66 l 403 66 l 382 66 l 448 132 l 435 132 l 368 66 l 348 66 l 414 132 l 400 132 l 334 66 l 313 66 l 379 132 l 366 132 l 300 66 l 279 66 l 345 132 l 331 132 l 265 66 l 244 66 l 311 132 l 297 132 l 231 66 l 210 66 l 276 132 l 263 132 l 196 66 l 176 66 l 242 132 l 228 132 l 162 66 l 141 66 l 207 132 l 194 132 l 128 66 l 107 66 l 210 169 l 234 207 l 93 66 l 77 66 l 85 79 l 270 264 l 294 302 l 107 114 l 139 167 l 331 359 l 355 396 l 161 203 l 194 256 l 391 454 l 415 491 l 215 291 l 248 345 l 451 548 l 464 568 l 464 575 l 270 380 l 302 434 l 464 595 l 464 609 l 324 469 l 357 523 l 464 630 l 464 644 l 378 558 l 411 611 l 464 664 l 464 678 l 424 637 l 403 637 l 464 699 l 464 700 z"},"x":{"x_min":0,"x_max":520,"ha":520,"o":"m 508 0 l 497 5 l 503 11 l 498 20 l 488 10 l 474 16 l 491 34 l 487 43 l 465 21 l 450 28 l 480 57 l 475 66 l 441 32 l 427 39 l 468 80 l 464 89 l 418 43 l 408 48 l 408 48 l 406 52 l 457 103 l 452 112 l 402 61 l 395 75 l 445 126 l 441 135 l 390 84 l 383 98 l 434 148 l 429 158 l 379 107 l 372 121 l 422 171 l 418 181 l 367 130 l 360 144 l 411 194 l 406 203 l 356 153 l 349 167 l 399 217 l 395 226 l 344 176 l 337 190 l 388 240 l 383 249 l 333 199 l 326 213 l 376 263 l 372 272 l 321 222 l 315 236 l 365 286 l 360 295 l 310 245 l 303 259 l 353 309 l 349 318 l 298 268 l 292 281 l 342 332 l 337 341 l 287 291 l 280 304 l 346 371 l 359 397 l 276 314 l 269 327 l 379 438 l 393 465 l 264 336 l 259 347 l 264 357 l 413 506 l 426 533 l 277 384 l 298 426 l 446 573 l 459 600 l 312 453 l 333 495 l 479 641 l 492 668 l 346 522 l 367 564 l 504 700 l 490 700 l 381 591 l 402 633 l 469 700 l 456 700 l 400 644 l 391 656 l 435 700 l 421 700 l 385 664 l 377 676 l 400 700 l 387 700 l 371 684 l 363 696 l 366 700 l 360 700 l 259 498 l 257 501 l 207 451 l 200 465 l 250 515 l 246 524 l 195 474 l 188 488 l 239 538 l 234 547 l 184 497 l 177 511 l 227 561 l 223 570 l 172 520 l 165 534 l 216 584 l 211 593 l 161 543 l 154 557 l 204 607 l 200 616 l 149 566 l 143 580 l 193 630 l 188 639 l 138 589 l 131 602 l 181 653 l 177 662 l 126 612 l 120 625 l 170 676 l 165 685 l 115 634 l 114 637 l 103 644 l 158 699 l 158 700 l 146 700 l 95 649 l 82 656 l 125 700 l 112 700 l 73 662 l 60 669 l 91 700 l 77 700 l 52 675 l 39 682 l 57 700 l 43 700 l 30 687 l 17 695 l 22 700 l 10 700 l 186 347 l 10 0 l 158 0 l 153 5 l 168 20 l 181 47 l 146 12 l 135 22 l 202 89 l 216 116 l 129 29 l 118 39 l 236 157 l 250 184 l 111 46 l 109 48 l 127 82 l 259 214 l 259 203 l 360 0 l 360 0 l 508 0 z m 259 228 l 140 109 l 161 151 l 259 249 l 259 228 z m 259 262 l 174 178 l 195 219 l 259 283 l 259 262 z m 259 297 l 209 247 l 229 288 l 259 317 l 259 297 z m 259 331 l 243 315 l 259 347 l 259 331 z m 259 365 l 253 359 l 246 373 l 259 386 l 259 365 z m 259 400 l 241 382 l 234 396 l 259 421 l 259 400 z m 259 434 l 230 405 l 223 419 l 259 455 l 259 434 z m 259 469 l 218 428 l 211 442 l 259 489 l 259 469 z"},")":{"x_min":0,"x_max":333,"ha":333,"o":"m 139 -62 l 140 -65 b 140 -65 142 -61 146 -55 z m 188 284 l 243 339 b 243 343 243 348 243 352 l 189 299 b 190 306 190 313 190 321 l 190 321 l 242 372 b 242 377 241 381 241 385 l 190 335 b 190 337 190 340 190 343 b 190 347 190 351 190 355 l 239 405 b 239 409 239 413 238 417 l 190 369 l 190 369 b 190 375 189 382 189 389 b 189 389 189 389 189 389 l 236 436 b 236 440 235 444 234 448 l 188 402 b 188 402 188 402 188 402 b 188 408 187 415 186 421 b 187 421 187 421 187 421 l 232 466 b 231 470 230 474 230 478 l 185 433 b 184 443 183 453 182 462 b 182 459 183 455 183 452 l 226 495 b 226 499 225 503 224 507 l 181 464 b 180 474 178 483 177 492 b 177 489 178 486 179 482 l 220 524 b 220 527 219 531 218 535 l 177 494 b 176 500 175 506 173 511 l 214 552 b 213 555 212 559 211 562 l 171 523 b 171 523 171 523 171 523 b 170 529 169 534 168 540 b 168 540 168 540 168 540 l 206 579 b 205 582 204 586 203 589 l 165 551 l 165 551 b 164 557 162 562 161 568 b 161 568 161 568 161 568 l 198 605 b 197 609 196 612 195 616 l 158 579 b 157 584 155 590 154 595 l 190 631 b 189 635 188 638 186 641 l 151 606 b 149 612 148 617 146 622 b 146 622 146 622 146 622 l 181 657 b 180 660 178 664 177 667 l 143 633 b 141 638 139 643 138 649 b 138 648 138 648 138 648 l 171 682 b 170 685 169 688 167 691 l 134 659 b 132 664 131 670 129 674 b 129 674 129 674 129 674 l 161 706 b 160 709 158 713 157 716 l 125 684 b 125 684 125 684 126 684 b 123 690 121 695 120 699 l 150 730 b 149 733 147 737 146 739 l 116 709 b 116 709 116 708 116 708 b 116 709 115 710 115 710 l 104 718 l 136 750 l 123 750 l 96 724 l 84 733 l 101 750 l 87 750 l 76 739 l 64 748 l 67 750 l 61 750 l 61 750 b 61 750 138 538 138 343 b 138 147 61 -65 61 -65 l 140 -65 l 131 -49 l 167 -14 b 170 -6 173 2 177 11 l 125 -41 l 115 -25 l 117 -28 l 191 45 b 193 52 196 59 198 66 l 121 -11 b 124 -3 128 8 133 22 b 133 22 133 22 133 22 l 208 97 b 210 103 211 109 213 116 l 140 42 b 143 52 146 62 149 72 b 149 72 149 72 149 72 l 220 144 b 222 150 223 156 224 162 l 154 91 b 157 100 159 110 162 120 l 230 188 b 231 193 232 199 232 204 l 166 137 b 168 146 170 155 172 164 l 236 229 b 237 234 237 239 238 244 l 175 181 b 175 181 175 181 175 181 b 176 189 178 198 179 206 b 179 206 179 206 179 206 l 240 267 b 241 272 241 277 241 282 l 182 222 b 183 230 184 238 185 246 b 185 246 185 246 185 246 l 242 304 b 243 309 243 313 243 318 l 186 262 b 187 269 188 277 188 284 z"},"&":{"x_min":0,"x_max":648,"ha":648,"o":"m 521 293 l 551 323 l 542 327 l 517 302 l 521 293 z m 561 98 l 556 105 l 516 66 l 522 59 l 561 98 z m 559 42 l 568 37 l 592 61 l 586 68 l 559 42 z m 591 27 l 607 42 l 601 50 l 582 31 l 591 27 z m 614 16 l 622 24 l 616 31 l 605 20 l 614 16 z m 415 469 l 360 414 l 365 408 b 382 421 402 442 415 469 z m 322 443 b 307 432 295 427 295 427 l 329 385 b 329 385 345 392 365 408 l 352 426 l 427 501 b 428 506 429 511 430 517 l 346 433 l 349 429 l 332 451 l 332 452 l 322 443 z m 637 5 l 637 5 l 631 13 l 628 10 l 545 48 l 577 80 l 571 87 l 536 52 l 523 58 l 492 96 l 531 135 l 525 142 l 486 103 l 492 96 l 477 114 l 537 174 b 545 185 554 198 563 214 l 467 118 l 447 118 l 586 257 b 589 264 593 272 596 280 l 434 118 l 418 118 l 418 123 l 599 303 l 589 307 l 496 214 b 496 214 496 214 496 214 b 508 231 516 248 521 260 l 575 313 l 565 317 l 527 279 l 511 316 l 527 332 l 518 336 l 507 325 l 498 344 b 498 344 482 283 448 234 l 480 194 l 478 196 l 418 136 l 418 156 l 469 208 l 463 215 l 418 170 l 418 187 l 417 188 l 455 226 l 449 234 l 411 196 l 399 210 l 402 207 l 440 245 l 434 252 l 396 214 l 387 225 l 425 264 l 419 271 l 381 233 l 384 229 l 368 248 l 371 244 l 410 282 l 404 290 l 365 251 l 354 266 l 356 262 l 395 301 l 389 309 l 350 270 l 338 285 l 341 281 l 380 320 l 374 327 l 335 288 l 326 299 l 365 339 l 359 346 l 320 307 l 324 302 l 307 322 l 311 318 l 350 357 l 344 365 l 305 325 l 296 336 l 336 376 l 330 383 l 290 344 l 294 339 l 277 360 l 281 355 l 321 395 l 315 402 l 275 362 l 266 373 l 306 413 l 300 421 l 260 381 l 264 376 l 259 382 l 241 382 l 291 432 l 285 440 l 227 382 l 211 382 l 211 386 l 276 451 l 270 458 l 211 399 l 211 420 l 261 470 l 262 470 b 261 470 261 470 261 470 b 261 470 259 472 255 477 l 211 433 l 211 441 b 209 443 208 446 206 448 l 246 488 b 245 491 243 494 241 496 l 201 456 b 198 460 195 465 193 469 l 233 509 b 232 512 230 515 229 518 l 188 477 b 186 482 183 486 181 490 l 224 533 b 223 537 222 541 222 544 b 222 544 222 545 222 545 l 177 500 b 175 505 174 510 172 515 l 237 580 l 234 585 l 238 579 b 248 588 263 593 276 593 b 300 593 326 577 326 535 b 326 518 315 503 303 491 l 303 491 l 270 458 l 276 451 l 309 483 l 320 468 l 317 472 l 285 440 l 291 432 l 323 464 l 332 451 l 337 445 l 431 539 b 431 543 431 547 431 552 l 359 480 b 367 491 373 503 376 517 l 429 570 b 428 574 427 577 426 581 l 378 533 b 378 533 378 533 378 533 b 378 534 378 536 378 538 b 378 543 378 548 378 552 l 422 597 b 421 600 420 603 418 606 l 376 564 b 375 570 373 575 372 580 b 372 580 372 580 372 580 l 412 620 b 410 623 408 626 407 628 l 368 589 b 366 594 363 598 360 602 l 398 640 b 396 643 394 645 392 648 l 355 610 b 352 614 348 617 345 620 b 345 620 345 620 345 620 l 382 658 b 380 660 378 662 375 664 l 337 626 b 337 626 337 626 337 626 b 333 629 329 632 325 634 l 325 634 l 364 673 b 361 675 358 676 356 678 l 315 638 b 310 640 305 641 300 642 l 342 685 b 339 686 336 688 333 689 l 288 644 b 284 645 279 645 274 645 b 272 645 271 645 269 645 l 318 694 b 314 695 311 696 307 697 l 254 643 b 243 641 232 638 223 632 l 289 699 b 285 700 281 700 277 700 l 203 626 l 206 622 l 217 607 l 172 561 b 174 573 178 583 182 592 l 208 618 l 206 622 l 194 638 l 256 699 b 250 699 245 698 240 697 l 189 645 l 176 663 l 180 657 l 210 687 b 198 682 186 675 176 667 l 174 665 l 174 665 b 140 637 118 593 118 539 b 118 488 143 444 167 414 b 167 414 46 352 46 220 b 46 88 147 0 259 0 b 312 0 360 19 397 39 b 400 41 404 43 407 45 l 437 75 l 443 68 l 499 5 l 637 5 l 637 5 z m 170 546 l 223 599 l 220 603 l 231 587 l 170 527 b 170 531 170 534 170 538 b 170 541 170 544 170 546 z m 140 325 b 135 319 130 313 125 306 b 130 313 135 319 140 325 z m 116 291 l 167 342 l 176 330 l 102 257 b 106 269 110 280 116 291 z m 99 240 l 181 323 l 190 311 l 97 218 b 97 225 97 233 99 240 z m 365 83 l 364 82 l 364 82 b 353 77 342 72 330 68 l 355 93 l 350 101 l 310 62 b 302 59 293 58 285 56 l 341 112 l 335 120 l 270 55 b 266 55 261 54 257 54 b 254 54 252 55 249 55 l 313 119 b 307 116 300 114 293 112 l 237 56 b 231 57 226 58 220 59 l 269 108 b 265 107 261 107 257 107 b 257 107 256 107 255 107 l 210 62 b 205 64 200 65 195 68 l 237 110 b 234 110 230 112 227 113 l 186 72 b 182 74 177 77 173 79 l 212 119 b 210 120 207 122 204 123 l 165 85 b 161 88 158 91 154 94 l 192 131 b 189 133 187 135 184 137 l 147 100 b 144 104 141 107 138 111 l 174 147 b 172 150 170 152 168 155 l 132 118 b 129 122 126 126 123 130 l 161 168 b 159 171 158 174 157 177 l 118 138 b 116 143 113 147 111 152 l 152 193 b 151 196 151 200 151 204 l 107 161 b 106 166 104 171 102 177 l 151 225 b 152 231 153 236 154 241 l 100 187 b 99 193 98 199 97 205 l 174 282 b 181 291 188 298 195 305 b 213 322 230 331 230 331 l 375 155 b 375 155 357 140 330 126 l 364 82 b 364 83 365 83 366 83 b 366 83 366 83 365 83 z m 370 74 l 399 103 b 399 103 399 103 399 103 b 403 106 407 109 410 111 b 409 111 409 111 409 111 l 417 101 l 378 63 l 370 74 z m 431 82 l 393 44 l 384 55 l 423 94 l 420 97 l 436 77 l 431 82 z m 501 85 l 507 77 l 546 117 l 540 124 l 501 85 z m 503 342 l 498 344 l 501 339 l 503 342 z"},"_":{"x_min":0,"x_max":580,"ha":580,"o":"m 562 -13 l 561 -13 l 522 -53 l 501 -53 l 541 -13 l 527 -13 l 487 -53 l 466 -53 l 506 -13 l 492 -13 l 458 -47 l 458 -47 l 453 -53 l 432 -53 l 472 -13 l 458 -13 l 418 -53 l 397 -53 l 437 -13 l 423 -13 l 384 -53 l 363 -53 l 375 -41 l 402 -13 l 389 -13 l 375 -27 l 349 -53 l 328 -53 l 368 -13 l 354 -13 l 315 -53 l 294 -53 l 333 -13 l 320 -13 l 280 -53 l 259 -53 l 299 -13 l 285 -13 l 245 -53 l 225 -53 l 264 -13 l 251 -13 l 211 -53 l 190 -53 l 230 -13 l 216 -13 l 176 -53 l 156 -53 l 195 -13 l 182 -13 l 142 -53 l 121 -53 l 161 -13 l 147 -13 l 107 -53 l 87 -53 l 126 -13 l 113 -13 l 73 -53 l 52 -53 l 92 -13 l 78 -13 l 45 -46 l 35 -36 l 57 -13 l 44 -13 l 28 -29 l 18 -19 l 23 -13 l 12 -13 l 12 -93 l 562 -93 l 562 -82 l 556 -87 l 546 -77 l 562 -61 l 562 -47 l 539 -70 l 528 -60 l 562 -26 z"},"v":{"x_min":0,"x_max":563,"ha":563,"o":"m 547 674 l 552 692 l 454 595 l 460 621 l 539 700 l 525 700 l 463 638 l 453 649 l 504 700 l 491 700 l 447 656 l 437 667 l 470 700 l 456 700 l 430 674 l 420 684 l 435 700 l 422 700 l 413 692 l 406 700 l 282 160 l 282 147 l 223 88 l 219 105 l 280 166 l 278 178 l 216 116 l 213 133 l 274 194 l 271 206 l 210 144 l 206 161 l 268 222 l 265 234 l 204 172 l 200 189 l 261 250 l 259 262 l 198 201 l 194 218 l 255 278 l 252 289 l 191 229 l 188 246 l 248 306 l 246 317 l 185 257 l 181 274 l 242 334 l 239 345 l 179 285 l 175 302 l 235 362 l 233 373 l 172 313 l 169 330 l 229 390 l 226 401 l 166 341 l 162 358 l 223 418 l 220 429 l 160 369 l 156 386 l 216 446 l 214 457 l 154 397 l 150 414 l 210 474 l 207 485 l 147 425 l 144 442 l 203 502 l 201 513 l 141 454 l 137 471 l 197 530 l 194 541 l 135 482 l 131 499 l 190 558 l 188 569 l 128 510 l 125 527 l 184 586 l 182 597 l 122 538 l 118 555 l 178 614 l 175 625 l 116 566 l 112 583 l 171 642 l 169 653 l 110 594 l 106 611 l 165 670 l 162 681 l 103 622 l 100 637 l 99 638 l 158 698 l 158 700 l 147 700 l 91 644 l 78 652 l 126 700 l 112 700 l 70 658 l 58 666 l 92 700 l 78 700 l 50 672 l 38 681 l 57 700 l 43 700 l 30 686 l 17 695 l 23 700 l 10 700 l 185 0 l 378 0 l 379 4 l 377 2 l 368 13 l 386 32 l 391 50 l 362 21 l 353 33 l 398 78 l 402 96 l 347 41 l 338 52 l 409 123 l 414 142 l 335 63 l 341 90 l 421 169 l 425 188 l 345 107 l 351 134 l 432 215 l 437 233 l 355 152 l 361 178 l 444 261 l 448 279 l 365 196 l 371 223 l 455 307 l 460 325 l 375 240 l 381 267 l 467 353 l 471 371 l 385 285 l 391 311 l 478 399 l 483 417 l 395 329 l 401 356 l 490 445 l 494 463 l 405 373 l 411 400 l 501 491 l 506 509 l 415 417 l 421 444 l 513 537 l 517 555 l 424 462 l 430 488 l 524 582 l 529 601 l 434 506 l 440 533 l 536 628 l 540 647 l 444 550 l 450 577 l 547 674 z m 282 44 l 272 34 l 259 42 l 282 65 l 282 44 z m 282 78 l 250 46 l 237 54 l 282 99 l 282 78 z m 282 113 l 229 60 l 225 77 l 282 134 l 282 113 z"},"O":{"x_min":0,"x_max":575,"ha":575,"o":"m 74 582 l 163 671 b 126 650 95 619 74 582 z m 535 450 l 535 458 b 535 460 535 462 534 464 l 460 389 l 460 410 l 533 483 b 533 488 532 492 532 496 l 460 424 l 460 445 l 528 513 b 527 517 526 521 525 524 l 460 459 l 460 466 b 460 470 459 475 459 479 l 520 540 b 519 544 518 547 517 550 l 458 491 b 457 497 455 503 454 509 l 510 565 b 510 565 510 566 509 567 b 508 569 507 572 505 574 l 451 520 b 451 520 451 520 451 520 b 449 525 447 530 445 535 l 498 587 b 496 590 494 593 492 596 l 441 544 b 438 549 436 553 433 558 l 483 608 b 481 611 479 613 477 616 l 427 566 b 424 570 421 574 418 578 l 467 627 b 465 629 463 632 461 634 l 411 585 b 408 588 404 592 401 595 l 450 644 b 447 646 445 648 442 650 l 393 601 b 389 604 385 607 381 610 l 430 659 b 427 661 425 663 422 665 l 372 615 b 368 618 363 620 358 622 b 358 622 358 622 358 622 l 409 673 b 406 675 403 676 400 678 l 349 627 b 343 629 338 630 333 632 l 333 632 l 385 685 b 382 686 379 687 376 689 l 321 634 b 315 636 309 636 303 637 l 360 694 b 356 695 353 696 349 697 l 290 638 l 290 638 b 289 638 288 638 287 638 b 281 638 274 637 268 637 l 332 701 b 328 702 324 702 320 703 l 251 634 b 241 632 230 628 220 624 b 220 624 220 624 220 624 l 301 704 b 296 705 292 705 287 705 b 287 705 287 705 287 705 l 190 607 b 190 607 190 607 190 607 b 173 595 158 581 146 563 l 122 540 l 108 546 l 265 704 b 260 703 255 703 249 702 l 98 551 l 84 558 l 223 696 b 216 694 209 692 203 690 l 75 562 l 65 567 b 49 534 40 497 40 458 l 40 242 b 40 203 49 166 66 133 b 106 51 190 -5 287 -5 b 385 -5 469 51 509 133 l 501 137 l 519 155 b 521 162 523 169 525 176 l 491 141 l 477 148 l 531 202 b 532 208 533 213 533 218 l 468 152 l 453 159 l 535 241 b 535 241 535 242 535 242 l 535 254 l 444 164 b 449 174 452 185 455 196 b 455 196 455 196 455 196 l 535 276 l 535 289 l 458 213 b 459 220 460 227 460 235 l 460 235 l 535 310 l 535 324 l 460 249 l 460 270 l 535 345 l 535 359 l 460 284 l 460 305 l 535 380 l 535 394 l 460 319 l 460 340 l 535 415 l 535 429 l 460 354 l 460 375 l 535 450 z m 115 466 b 115 472 116 479 116 485 l 155 524 l 146 528 l 119 502 b 121 512 125 523 129 532 l 131 535 l 169 517 l 115 463 l 115 466 z m 394 100 l 423 129 b 414 118 404 108 394 100 z m 358 78 b 348 74 338 70 327 67 l 430 170 l 420 175 l 310 64 b 302 63 295 63 287 63 b 287 63 287 63 287 63 l 406 182 l 396 186 l 274 63 b 268 64 261 65 255 66 l 321 132 b 315 130 309 128 303 127 l 244 68 b 238 70 233 72 228 73 l 281 126 b 276 126 272 127 268 128 l 218 77 b 213 80 209 82 204 84 l 252 132 b 249 134 246 135 242 137 l 195 90 b 191 92 187 95 183 98 l 229 145 b 227 147 224 149 222 151 l 175 104 b 171 108 168 111 164 115 l 211 162 b 209 164 207 167 205 169 l 158 122 b 154 126 151 129 148 133 l 198 183 b 196 186 195 189 194 193 l 143 142 b 140 146 137 150 135 155 l 189 209 b 189 214 188 218 188 222 l 130 164 b 130 164 131 164 131 164 b 128 169 126 174 124 179 l 188 243 l 188 257 l 121 190 b 120 196 118 201 117 207 l 188 278 l 188 292 l 116 220 b 115 225 115 230 115 235 l 115 240 l 188 313 l 188 327 l 115 254 l 115 275 l 188 348 l 188 362 l 115 289 l 115 310 l 188 383 l 188 396 l 115 323 l 115 344 l 188 418 l 188 431 l 115 358 l 115 379 l 188 452 l 188 466 l 115 393 l 115 414 l 190 489 b 191 495 192 500 194 506 l 193 506 l 115 428 l 115 449 l 179 513 l 194 506 b 208 544 244 572 287 572 b 330 572 367 544 381 506 b 384 495 387 484 387 473 l 387 225 b 387 214 385 203 381 193 b 381 193 381 192 380 191 l 382 193 l 444 164 l 358 78 z"},"(":{"x_min":0,"x_max":333,"ha":333,"o":"m 230 -52 l 233 -54 l 240 -48 b 239 -45 238 -41 237 -37 l 226 -48 l 213 -39 l 214 -39 l 232 -21 b 231 -18 229 -15 228 -11 l 206 -33 l 194 -25 l 224 5 b 223 9 222 12 221 16 l 188 -16 b 187 -13 185 -8 183 -1 l 216 32 b 215 36 214 39 213 43 l 179 9 b 177 13 175 18 173 24 l 209 60 b 208 63 207 67 206 70 l 170 34 b 168 39 167 45 165 50 l 202 87 b 201 91 200 95 200 98 l 162 61 b 160 66 158 71 157 77 l 196 115 b 195 119 194 123 193 127 l 154 87 b 152 93 151 98 149 104 l 190 144 b 189 148 188 152 188 156 l 147 115 b 145 120 144 126 142 131 l 185 173 b 184 177 183 181 183 185 l 140 142 b 139 148 137 154 136 160 l 180 203 b 179 207 179 211 178 215 l 134 171 b 133 177 132 183 131 188 l 176 234 b 175 238 175 242 174 246 l 129 200 b 128 206 127 212 126 218 l 172 265 b 172 269 172 273 171 277 l 124 230 b 123 236 122 242 122 249 l 170 297 b 170 301 169 306 169 310 l 120 261 b 120 267 119 274 119 280 l 169 330 b 169 335 168 339 168 344 l 118 293 b 117 299 117 306 117 313 l 169 365 b 169 370 169 374 169 379 l 116 326 b 116 332 116 338 116 344 b 116 345 116 346 116 347 l 170 401 b 171 406 171 411 172 416 l 116 360 b 116 368 117 375 117 382 l 174 439 b 174 444 175 449 175 454 l 118 397 b 118 404 119 412 119 419 l 179 478 b 179 484 180 489 181 494 l 121 434 b 122 442 123 450 124 458 l 185 519 b 186 525 187 531 188 536 l 126 474 b 127 483 129 491 130 499 l 193 562 b 195 568 196 574 197 579 l 133 516 b 135 525 137 534 139 542 l 203 606 b 205 613 206 619 208 625 l 143 560 b 145 570 148 579 150 588 l 215 653 b 217 659 218 666 220 672 l 155 607 b 154 604 154 601 153 598 b 157 612 160 625 164 636 l 229 701 b 231 708 233 715 235 721 l 171 657 b 175 669 179 680 182 689 l 243 750 l 229 750 l 191 712 b 191 712 191 712 191 712 l 183 725 l 208 750 l 195 750 l 178 733 l 170 746 l 173 750 l 165 750 l 165 750 b 165 750 63 584 63 356 b 63 127 167 -65 167 -65 l 245 -63 l 230 -52 z m 189 -17 b 190 -20 191 -23 191 -23 b 191 -23 190 -20 189 -17 z"},"C":{"x_min":0,"x_max":542,"ha":542,"o":"m 388 190 l 381 193 b 378 186 375 178 370 172 l 388 190 z m 507 134 l 498 138 l 491 131 l 468 130 l 483 145 l 474 149 l 453 128 l 430 127 l 460 156 l 450 161 l 379 90 b 367 82 354 76 340 71 l 436 167 l 426 172 l 321 66 b 313 65 305 64 297 63 l 412 179 l 403 183 l 283 63 b 276 63 270 64 263 65 l 340 142 b 332 137 324 133 315 130 l 251 67 b 246 68 240 69 235 71 l 290 126 b 289 126 288 126 287 126 b 283 126 280 126 277 127 l 225 75 b 220 77 215 79 210 81 l 259 130 b 255 131 252 132 249 134 l 201 86 b 197 89 192 91 188 94 l 235 141 b 232 143 229 145 227 147 l 180 100 b 176 103 173 106 169 110 l 216 157 b 213 159 211 161 209 164 l 162 117 b 159 120 155 124 152 128 l 201 177 b 199 180 197 183 196 186 l 146 136 b 143 140 141 144 138 149 l 191 201 b 190 205 189 209 189 213 l 133 158 b 132 160 131 162 130 164 b 129 167 128 169 127 172 l 188 233 l 188 247 l 123 183 b 121 188 120 193 119 199 l 188 268 l 188 282 l 116 211 b 116 217 115 224 115 230 l 188 303 l 188 317 l 115 244 l 115 265 l 188 338 l 188 352 l 115 279 l 115 300 l 188 373 l 188 387 l 115 314 l 115 335 l 188 408 l 188 422 l 115 349 l 115 370 l 188 443 l 188 457 l 115 384 l 115 405 l 188 478 b 188 483 189 489 190 494 l 115 418 l 115 440 l 185 510 l 194 506 b 207 544 244 572 287 572 b 330 572 367 544 380 506 l 509 567 b 509 567 509 568 508 568 l 507 567 l 489 569 l 501 582 b 499 585 498 587 496 590 l 476 571 l 457 573 l 487 603 b 485 605 483 608 481 611 l 445 574 l 426 576 l 472 622 b 470 625 467 627 465 629 l 416 580 b 412 584 409 587 405 591 b 405 591 405 591 406 591 l 454 640 b 452 642 450 644 447 646 l 398 597 b 398 597 398 597 398 597 b 394 600 390 604 386 606 l 435 656 b 433 658 430 659 427 661 l 378 612 b 374 615 369 617 365 620 l 365 620 l 415 670 b 412 671 409 673 406 675 l 355 624 b 350 626 345 628 340 630 l 392 682 b 389 683 386 685 382 686 l 329 633 b 323 634 317 635 311 636 b 311 636 311 636 311 636 l 367 692 b 364 693 360 694 357 695 l 299 638 l 299 638 b 295 638 291 638 287 638 b 284 638 281 638 278 638 l 340 699 b 336 700 332 701 328 702 l 263 636 b 253 635 244 633 236 630 l 309 704 b 305 704 301 705 297 705 l 213 621 l 213 621 b 177 604 149 576 132 540 l 128 537 l 114 544 l 275 705 b 270 705 265 704 260 704 l 105 548 l 90 555 l 235 700 b 229 698 223 697 217 695 l 81 559 l 67 566 l 183 682 b 172 677 162 671 152 665 l 80 593 b 74 585 69 576 65 567 b 49 534 40 497 40 458 l 40 242 b 40 203 49 166 65 133 b 106 51 190 -5 287 -5 b 384 -5 468 51 509 133 l 506 133 l 507 134 z m 123 517 l 138 532 l 152 526 l 117 490 b 118 499 120 508 123 517 z m 115 466 b 115 469 115 472 115 475 l 161 521 l 176 514 l 115 453 l 115 466 z"},"W":{"x_min":0,"x_max":928,"ha":928,"o":"m 917 699 l 917 700 l 904 700 l 832 628 l 834 637 l 828 645 l 883 700 l 869 700 l 821 652 l 812 663 l 848 700 l 835 700 l 805 671 l 796 682 l 814 700 l 800 700 l 790 689 l 780 700 l 666 160 l 666 153 l 610 97 l 607 114 l 664 171 l 662 183 l 604 126 l 601 143 l 658 200 l 656 211 l 599 154 l 595 171 l 652 228 l 650 240 l 593 183 l 589 200 l 646 257 l 644 268 l 587 211 l 583 228 l 640 285 l 638 296 l 581 240 l 578 257 l 634 313 l 632 325 l 575 268 l 572 286 l 628 342 l 626 353 l 569 297 l 566 314 l 622 370 l 620 382 l 564 326 l 560 343 l 616 399 l 614 410 l 558 354 l 554 371 l 610 427 l 608 438 l 552 383 l 548 400 l 604 455 l 602 467 l 546 411 l 543 428 l 598 484 l 596 495 l 540 440 l 537 457 l 592 512 l 590 523 l 534 468 l 531 486 l 586 541 l 584 552 l 529 497 l 525 514 l 580 569 l 578 580 l 523 525 l 519 543 l 574 597 l 572 609 l 517 554 l 513 571 l 568 626 l 566 637 l 511 583 l 508 600 l 562 654 l 560 665 l 505 611 l 502 628 l 556 683 l 554 694 l 499 640 l 499 642 l 489 650 l 539 700 l 525 700 l 482 656 l 470 666 l 504 700 l 491 700 l 426 636 l 428 642 l 420 650 l 470 700 l 456 700 l 414 657 l 404 668 l 436 700 l 422 700 l 397 675 l 387 686 l 401 700 l 388 700 l 381 693 l 374 700 l 260 160 l 260 160 l 203 103 l 199 120 l 257 177 l 254 188 l 197 131 l 194 148 l 251 206 l 248 217 l 191 160 l 188 177 l 245 234 l 242 245 l 185 188 l 182 205 l 239 262 l 236 274 l 180 217 l 176 234 l 233 291 l 230 302 l 174 245 l 170 262 l 227 319 l 224 330 l 168 274 l 164 291 l 221 347 l 218 359 l 162 302 l 158 319 l 215 376 l 212 387 l 156 331 l 153 348 l 209 404 l 206 416 l 150 359 l 147 377 l 203 433 l 200 444 l 144 388 l 141 405 l 197 461 l 194 472 l 138 416 l 135 434 l 191 489 l 188 501 l 133 445 l 129 462 l 185 518 l 182 529 l 127 473 l 123 491 l 179 546 l 176 558 l 121 502 l 117 519 l 173 575 l 170 586 l 115 530 l 111 548 l 167 603 l 164 614 l 109 559 l 106 576 l 161 631 l 158 643 l 103 588 l 100 605 l 155 660 l 152 671 l 97 616 l 94 633 l 149 688 l 146 699 l 88 641 l 76 650 l 126 700 l 112 700 l 68 656 l 57 665 l 92 700 l 78 700 l 49 671 l 37 680 l 57 700 l 44 700 l 29 685 l 17 694 l 23 700 l 10 700 l 172 0 l 349 0 l 352 11 l 346 5 l 337 17 l 358 37 l 362 55 l 332 25 l 323 37 l 368 82 l 372 100 l 317 45 l 309 57 l 379 127 l 383 145 l 312 74 l 317 100 l 389 172 l 393 189 l 321 117 l 326 143 l 399 216 l 403 234 l 329 160 l 335 186 l 410 261 l 414 279 l 338 203 l 344 230 l 420 306 l 424 323 l 347 247 l 352 273 l 430 350 l 434 368 l 356 290 l 361 316 l 440 395 l 445 413 l 365 333 l 370 359 l 451 440 l 455 458 l 374 376 l 379 402 l 461 485 l 463 494 l 577 0 l 755 0 l 756 2 l 755 1 l 746 13 l 762 29 l 766 46 l 740 21 l 732 33 l 772 73 l 776 91 l 726 41 l 718 53 l 782 118 l 787 136 l 716 65 l 721 91 l 793 163 l 797 180 l 725 108 l 730 135 l 803 207 l 807 225 l 734 152 l 739 178 l 813 252 l 817 270 l 743 195 l 748 221 l 824 297 l 828 315 l 752 238 l 757 265 l 834 342 l 838 359 l 761 282 l 766 308 l 844 386 l 848 404 l 769 325 l 775 351 l 855 431 l 859 449 l 778 368 l 784 395 l 865 476 l 869 493 l 787 412 l 793 438 l 875 520 l 879 538 l 796 455 l 802 481 l 886 565 l 890 583 l 805 498 l 810 524 l 896 610 l 900 628 l 814 542 l 819 568 l 906 655 l 910 672 l 823 585 l 828 611 l 917 699 z m 260 29 l 251 34 l 260 43 l 260 29 z m 260 57 l 243 39 l 230 47 l 260 78 l 260 57 z m 260 91 l 221 52 l 212 58 l 211 63 l 260 112 l 260 91 z m 260 126 l 209 74 l 205 91 l 260 146 l 260 126 z m 463 500 l 382 420 l 388 446 l 463 521 l 463 500 z m 463 535 l 391 463 l 396 489 l 463 556 l 463 535 z m 463 569 l 400 506 l 405 532 l 463 590 l 463 569 z m 463 604 l 409 549 l 414 575 l 463 624 l 463 604 z m 463 638 l 418 592 l 423 618 l 463 659 l 463 638 z m 666 29 l 662 32 l 666 36 l 666 29 z m 666 50 l 653 37 l 640 45 l 666 71 l 666 50 z m 666 84 l 632 50 l 619 57 l 666 105 l 666 84 z m 666 119 l 616 68 l 612 86 l 666 139 l 666 119 z"},"A":{"x_min":0,"x_max":613,"ha":613,"o":"m 579 0 l 579 1 l 577 12 l 571 6 l 558 15 l 572 29 l 570 40 l 550 20 l 538 29 l 565 56 l 563 67 l 530 34 l 517 43 l 558 84 l 556 95 l 509 49 l 497 57 l 551 112 l 549 123 l 489 63 l 485 80 l 544 140 l 542 151 l 482 91 l 478 108 l 537 167 l 535 178 l 476 120 l 472 137 l 530 195 l 528 206 l 469 148 l 466 165 l 523 223 l 521 234 l 463 176 l 459 193 l 516 251 l 514 262 l 457 205 l 453 222 l 509 278 l 506 289 l 450 233 l 446 250 l 502 306 l 499 317 l 444 261 l 440 279 l 495 334 l 492 345 l 437 290 l 434 307 l 488 362 l 485 373 l 431 318 l 427 335 l 481 389 l 478 400 l 425 346 l 421 364 l 474 417 l 471 428 l 418 375 l 414 392 l 467 445 l 464 456 l 412 403 l 408 420 l 460 472 l 457 483 l 405 432 l 402 449 l 453 500 l 450 511 l 399 460 l 395 477 l 446 528 l 443 539 l 393 488 l 389 505 l 439 556 l 436 567 l 386 517 l 382 534 l 432 583 l 429 594 l 380 545 l 376 562 l 425 611 l 422 622 l 373 573 l 370 590 l 418 639 l 415 650 l 367 602 l 363 619 l 411 667 l 408 678 l 361 630 l 358 642 l 354 644 l 404 694 l 403 700 l 396 700 l 345 649 l 331 657 l 375 700 l 361 700 l 323 661 l 309 669 l 340 700 l 326 700 l 247 621 l 252 642 l 250 645 l 305 700 l 291 700 l 244 653 l 235 664 l 271 700 l 257 700 l 229 672 l 220 684 l 236 700 l 222 700 l 214 692 l 207 700 l 30 0 l 180 0 l 171 9 l 186 25 l 191 44 l 164 17 l 154 27 l 199 72 l 204 91 l 147 35 l 137 45 l 211 120 l 216 138 l 131 52 l 121 63 l 122 64 l 213 155 l 219 147 l 391 147 l 430 0 l 580 0 z m 243 603 l 305 665 l 305 644 l 237 576 z m 233 558 l 305 630 l 305 609 l 227 531 z m 223 513 l 305 595 l 305 574 l 217 486 z m 152 199 l 169 216 l 178 204 l 146 172 z m 142 154 l 183 196 l 192 184 l 136 127 z m 126 82 l 132 109 l 198 176 l 207 163 z m 287 229 l 351 293 l 337 293 l 273 229 l 252 229 l 316 293 l 302 293 l 238 229 l 217 229 l 281 293 l 267 293 l 203 229 l 182 229 l 254 301 l 257 318 l 168 229 l 159 229 l 163 224 l 156 217 l 159 229 l 162 244 l 263 345 l 267 363 l 166 262 l 172 289 l 273 389 l 276 407 l 176 307 l 182 334 l 282 434 l 286 451 l 186 352 l 193 379 l 292 478 l 295 495 l 197 397 l 203 424 l 301 522 l 305 540 l 207 441 l 213 469 l 305 561 l 305 540 l 358 293 l 366 288 l 307 229 z m 321 229 l 374 282 l 387 274 l 342 229 z m 356 229 l 395 268 l 407 260 l 377 229 z m 391 229 l 415 254 l 428 245 l 412 229 z m 446 229 l 426 229 l 436 240 l 448 231 z"},"f":{"x_min":0,"x_max":532,"ha":532,"o":"m 500 700 l 492 700 l 423 631 l 402 631 l 471 700 l 457 700 l 388 631 l 367 631 l 436 700 l 423 700 l 353 631 l 332 631 l 402 700 l 388 700 l 318 631 l 297 631 l 367 700 l 353 700 l 284 631 l 263 631 l 332 700 l 318 700 l 249 631 l 228 631 l 297 700 l 284 700 l 214 631 l 193 631 l 263 700 l 249 700 l 179 631 l 158 631 l 228 700 l 214 700 l 145 631 l 124 631 l 193 700 l 179 700 l 110 631 l 110 631 l 110 630 l 110 630 l 110 631 l 99 641 l 158 700 l 145 700 l 92 648 l 82 658 l 124 700 l 110 700 l 75 665 l 65 676 l 89 700 l 75 700 l 58 683 l 47 693 l 54 700 l 40 700 l 40 0 l 179 0 l 179 5 l 177 2 l 166 13 l 179 26 l 179 40 l 159 20 l 149 30 l 179 61 l 179 74 l 142 37 l 132 48 l 179 95 l 179 109 l 125 54 l 114 65 l 179 130 l 179 144 l 110 74 l 110 95 l 179 165 l 179 179 l 110 109 l 110 130 l 179 200 l 179 213 l 110 144 l 110 165 l 179 234 l 179 248 l 110 179 l 110 200 l 179 269 l 179 283 l 110 213 l 110 234 l 170 294 l 179 285 l 374 285 l 372 288 l 374 290 l 374 304 l 365 295 l 355 306 l 374 325 l 374 339 l 348 313 l 338 324 l 374 360 l 374 374 l 332 331 l 321 342 l 374 395 l 374 408 l 315 349 l 310 354 l 299 354 l 369 424 l 355 424 l 285 354 l 264 354 l 334 424 l 320 424 l 251 354 l 230 354 l 299 424 l 285 424 l 216 354 l 195 354 l 264 424 l 251 424 l 181 354 l 160 354 l 230 424 l 216 424 l 146 354 l 125 354 l 195 424 l 181 424 l 112 354 l 110 354 l 110 373 l 179 443 l 179 457 l 110 387 l 110 408 l 179 478 l 179 491 l 110 422 l 110 443 l 179 512 l 179 526 l 110 457 l 110 478 l 179 547 l 179 561 l 110 491 l 110 512 l 169 571 l 179 561 l 500 561 l 500 569 l 497 565 l 486 576 l 500 590 l 500 604 l 480 583 l 470 594 l 500 625 l 500 639 l 463 601 l 453 612 l 500 660 l 500 674 l 446 619 l 436 630 l 500 694 l 500 700 z m 110 617 l 117 624 l 127 613 l 110 596 l 110 617 z m 110 582 l 134 606 l 145 596 l 110 561 l 110 582 z m 152 312 l 163 301 l 110 248 l 110 269 l 152 312 z m 145 319 l 110 283 l 110 304 l 135 329 l 145 319 z m 118 346 l 128 336 l 110 318 l 110 339 l 118 346 z m 110 526 l 110 547 l 152 589 l 162 578 l 110 526 z"},"Q":{"x_min":0,"x_max":574,"ha":574,"o":"m 77 588 l 157 668 b 124 648 97 620 77 588 z m 597 -106 l 601 -103 l 595 -95 l 588 -102 l 575 -95 l 586 -84 l 580 -76 l 566 -91 l 552 -84 l 572 -64 l 566 -57 l 543 -80 l 529 -73 l 557 -45 l 551 -37 l 520 -69 l 507 -62 l 543 -26 l 537 -18 l 498 -57 l 491 -54 l 487 -48 l 528 -7 l 522 1 l 481 -40 l 473 -28 l 514 13 l 508 20 l 467 -20 l 459 -8 l 499 32 l 493 40 l 454 0 l 445 12 l 485 51 l 479 59 l 440 20 l 431 32 l 470 70 l 468 74 l 468 74 b 484 91 498 111 509 133 l 502 136 l 517 151 b 519 157 522 164 524 171 l 493 140 l 479 147 l 530 198 b 531 203 532 208 533 214 l 470 151 l 456 158 l 534 236 b 534 238 534 240 534 242 l 534 249 l 447 162 l 444 163 b 442 160 440 157 439 154 l 369 83 b 358 78 346 73 334 69 l 433 168 l 444 163 b 447 171 450 179 453 188 b 453 188 453 188 453 188 l 534 269 l 534 283 l 457 205 b 457 205 457 205 457 205 b 458 213 459 220 459 228 l 534 303 l 534 317 l 459 242 l 459 262 l 534 337 l 534 350 l 459 275 l 459 296 l 534 371 l 534 384 l 459 309 l 459 329 l 534 404 l 534 418 l 459 343 l 459 363 l 534 438 l 534 452 l 459 376 l 459 397 l 534 471 b 534 476 533 480 533 484 l 459 410 l 459 431 l 530 502 b 530 505 529 509 528 513 l 459 444 l 459 464 l 524 529 b 523 532 522 536 520 539 l 459 477 l 459 477 b 458 483 458 489 457 495 l 515 554 b 514 557 512 560 511 563 l 454 506 b 453 512 451 517 450 522 b 450 522 450 522 450 522 l 504 576 b 502 579 501 582 499 585 l 446 532 l 446 532 b 445 533 445 535 444 536 b 443 539 441 542 439 546 l 439 546 l 491 597 b 489 600 487 602 485 605 l 435 554 b 435 554 435 554 435 554 b 432 558 429 562 426 566 l 476 616 b 474 619 472 621 470 624 l 421 574 b 418 578 414 581 411 585 l 460 634 b 458 636 456 638 453 640 l 404 591 b 404 591 404 591 404 591 b 401 595 397 598 393 601 l 442 650 b 440 652 437 654 435 656 l 386 607 b 382 609 378 612 373 614 l 423 664 b 420 666 417 668 415 669 l 365 619 b 365 619 365 619 365 619 b 360 621 355 624 351 626 l 351 626 l 402 677 b 399 678 396 680 393 681 l 341 629 b 336 631 330 632 325 634 l 379 687 b 375 689 372 690 369 691 l 314 636 b 315 635 303 637 295 638 l 353 696 b 350 697 346 698 343 699 l 282 638 b 274 637 267 637 259 636 b 259 636 259 636 259 636 l 326 702 b 322 702 318 703 314 703 l 242 632 l 242 632 b 231 629 220 624 209 619 l 295 705 b 292 705 290 705 287 705 b 285 705 283 705 282 705 l 118 541 l 104 548 l 260 703 b 255 703 249 702 244 701 l 95 552 l 81 559 l 218 695 b 211 693 204 691 197 688 l 72 563 l 65 567 b 49 534 40 497 40 458 l 40 242 b 40 203 49 166 65 133 b 106 51 190 -5 287 -5 b 315 -5 341 -1 366 8 l 446 -111 l 606 -111 l 597 -106 z m 127 537 l 133 543 b 132 541 131 538 130 536 l 141 531 l 121 510 b 123 519 126 528 130 536 l 127 537 z m 117 493 l 150 526 l 164 520 l 115 471 b 115 478 116 486 117 493 z m 115 457 l 173 515 l 169 517 l 187 509 l 115 437 l 115 457 z m 262 65 l 337 139 b 329 135 322 132 313 129 l 251 67 b 245 68 240 69 235 71 l 290 126 b 289 126 288 126 287 126 b 283 126 280 126 277 126 l 225 74 b 220 76 215 78 211 81 l 260 130 b 256 131 253 132 250 133 l 202 85 b 198 88 193 90 189 93 l 236 140 b 233 142 231 143 228 145 l 182 99 b 178 102 174 105 171 108 l 217 155 b 215 157 213 159 211 162 l 164 115 b 160 118 157 122 154 125 l 202 174 b 201 176 199 179 198 182 l 148 133 b 145 137 143 141 140 145 l 192 197 b 191 201 190 204 189 208 l 135 154 b 133 157 132 160 130 163 b 130 165 129 166 128 167 l 188 227 l 188 240 l 125 177 b 123 182 121 187 120 193 l 188 260 l 188 274 l 118 204 b 117 209 116 216 115 222 l 188 294 l 188 307 l 115 234 b 115 235 115 235 115 235 l 115 255 l 188 328 l 188 341 l 115 268 l 115 288 l 188 362 l 188 375 l 115 302 l 115 322 l 188 395 l 188 409 l 115 336 l 115 356 l 188 429 l 188 442 l 115 369 l 115 390 l 188 463 l 188 472 b 188 474 188 475 188 476 l 115 403 l 115 423 l 192 501 b 193 502 193 504 194 506 b 207 544 244 572 287 572 b 330 572 367 544 380 506 b 384 495 386 484 386 472 l 386 225 b 386 214 384 203 381 193 b 379 187 376 181 373 175 l 387 190 l 401 184 l 281 63 b 283 63 270 63 262 65 z m 294 63 l 410 179 l 424 173 l 317 65 b 309 64 302 63 294 63 z m 390 91 l 392 94 l 408 89 l 398 79 l 390 91 z m 404 71 l 419 87 l 435 82 l 412 59 l 404 71 z m 418 51 l 446 79 l 462 75 l 426 39 l 418 51 z"},"w":{"x_min":0,"x_max":928,"ha":928,"o":"m 917 699 l 917 700 l 904 700 l 832 628 l 834 637 l 828 645 l 883 700 l 869 700 l 821 652 l 812 663 l 848 700 l 835 700 l 805 671 l 796 682 l 814 700 l 800 700 l 790 689 l 780 700 l 666 160 l 666 153 l 610 97 l 607 114 l 664 171 l 662 183 l 604 126 l 601 143 l 658 200 l 656 211 l 599 154 l 595 171 l 652 228 l 650 240 l 593 183 l 589 200 l 646 257 l 644 268 l 587 211 l 583 228 l 640 285 l 638 296 l 581 240 l 578 257 l 634 313 l 632 325 l 575 268 l 572 286 l 628 342 l 626 353 l 569 297 l 566 314 l 622 370 l 620 382 l 564 326 l 560 343 l 616 399 l 614 410 l 558 354 l 554 371 l 610 427 l 608 438 l 552 383 l 548 400 l 604 455 l 602 467 l 546 411 l 543 428 l 598 484 l 596 495 l 540 440 l 537 457 l 592 512 l 590 523 l 534 468 l 531 486 l 586 541 l 584 552 l 529 497 l 525 514 l 580 569 l 578 580 l 523 525 l 519 543 l 574 597 l 572 609 l 517 554 l 513 571 l 568 626 l 566 637 l 511 583 l 508 600 l 562 654 l 560 665 l 505 611 l 502 628 l 556 683 l 554 694 l 499 640 l 499 642 l 489 650 l 539 700 l 525 700 l 482 656 l 470 666 l 504 700 l 491 700 l 426 636 l 428 642 l 420 650 l 470 700 l 456 700 l 414 657 l 404 668 l 436 700 l 422 700 l 397 675 l 387 686 l 401 700 l 388 700 l 381 693 l 374 700 l 260 160 l 260 160 l 203 103 l 199 120 l 257 177 l 254 188 l 197 131 l 194 148 l 251 206 l 248 217 l 191 160 l 188 177 l 245 234 l 242 245 l 185 188 l 182 205 l 239 262 l 236 274 l 180 217 l 176 234 l 233 291 l 230 302 l 174 245 l 170 262 l 227 319 l 224 330 l 168 274 l 164 291 l 221 347 l 218 359 l 162 302 l 158 319 l 215 376 l 212 387 l 156 331 l 153 348 l 209 404 l 206 416 l 150 359 l 147 377 l 203 433 l 200 444 l 144 388 l 141 405 l 197 461 l 194 472 l 138 416 l 135 434 l 191 489 l 188 501 l 133 445 l 129 462 l 185 518 l 182 529 l 127 473 l 123 491 l 179 546 l 176 558 l 121 502 l 117 519 l 173 575 l 170 586 l 115 530 l 111 548 l 167 603 l 164 614 l 109 559 l 106 576 l 161 631 l 158 643 l 103 588 l 100 605 l 155 660 l 152 671 l 97 616 l 94 633 l 149 688 l 146 699 l 88 641 l 76 650 l 126 700 l 112 700 l 68 656 l 57 665 l 92 700 l 78 700 l 49 671 l 37 680 l 57 700 l 44 700 l 29 685 l 17 694 l 23 700 l 10 700 l 172 0 l 349 0 l 352 11 l 346 5 l 337 17 l 358 37 l 362 55 l 332 25 l 323 37 l 368 82 l 372 100 l 317 45 l 309 57 l 379 127 l 383 145 l 312 74 l 317 100 l 389 172 l 393 189 l 321 117 l 326 143 l 399 216 l 403 234 l 329 160 l 335 186 l 410 261 l 414 279 l 338 203 l 344 230 l 420 306 l 424 323 l 347 247 l 352 273 l 430 350 l 434 368 l 356 290 l 361 316 l 440 395 l 445 413 l 365 333 l 370 359 l 451 440 l 455 458 l 374 376 l 379 402 l 461 485 l 463 494 l 577 0 l 755 0 l 756 2 l 755 1 l 746 13 l 762 29 l 766 46 l 740 21 l 732 33 l 772 73 l 776 91 l 726 41 l 718 53 l 782 118 l 787 136 l 716 65 l 721 91 l 793 163 l 797 180 l 725 108 l 730 135 l 803 207 l 807 225 l 734 152 l 739 178 l 813 252 l 817 270 l 743 195 l 748 221 l 824 297 l 828 315 l 752 238 l 757 265 l 834 342 l 838 359 l 761 282 l 766 308 l 844 386 l 848 404 l 769 325 l 775 351 l 855 431 l 859 449 l 778 368 l 784 395 l 865 476 l 869 493 l 787 412 l 793 438 l 875 520 l 879 538 l 796 455 l 802 481 l 886 565 l 890 583 l 805 498 l 810 524 l 896 610 l 900 628 l 814 542 l 819 568 l 906 655 l 910 672 l 823 585 l 828 611 l 917 699 z m 260 29 l 251 34 l 260 43 l 260 29 z m 260 57 l 243 39 l 230 47 l 260 78 l 260 57 z m 260 91 l 221 52 l 212 58 l 211 63 l 260 112 l 260 91 z m 260 126 l 209 74 l 205 91 l 260 146 l 260 126 z m 463 500 l 382 420 l 388 446 l 463 521 l 463 500 z m 463 535 l 391 463 l 396 489 l 463 556 l 463 535 z m 463 569 l 400 506 l 405 532 l 463 590 l 463 569 z m 463 604 l 409 549 l 414 575 l 463 624 l 463 604 z m 463 638 l 418 592 l 423 618 l 463 659 l 463 638 z m 666 29 l 662 32 l 666 36 l 666 29 z m 666 50 l 653 37 l 640 45 l 666 71 l 666 50 z m 666 84 l 632 50 l 619 57 l 666 105 l 666 84 z m 666 119 l 616 68 l 612 86 l 666 139 l 666 119 z"},"-":{"x_min":0,"x_max":529,"ha":529,"o":"m 407 363 l 406 363 l 366 323 l 345 323 l 356 333 l 385 363 l 372 363 l 356 347 l 332 323 l 311 323 l 351 363 l 337 363 l 297 323 l 276 323 l 316 363 l 303 363 l 263 323 l 242 323 l 282 363 l 268 363 l 228 323 l 207 323 l 247 363 l 233 363 l 217 347 l 217 347 l 194 323 l 173 323 l 213 363 l 199 363 l 159 323 l 138 323 l 178 363 l 164 363 l 132 330 l 121 340 l 144 363 l 130 363 l 114 347 l 104 357 l 109 363 l 99 363 l 99 283 l 407 283 l 407 294 l 401 289 l 391 299 l 407 315 l 407 329 l 384 306 l 373 316 l 407 350 l 407 363 z"},"E":{"x_min":0,"x_max":538,"ha":538,"o":"m 501 700 l 492 700 l 423 631 l 402 631 l 471 700 l 457 700 l 388 631 l 367 631 l 436 700 l 423 700 l 353 631 l 332 631 l 402 700 l 388 700 l 318 631 l 298 631 l 367 700 l 353 700 l 284 631 l 263 631 l 332 700 l 318 700 l 249 631 l 228 631 l 297 700 l 284 700 l 214 631 l 193 631 l 263 700 l 249 700 l 179 631 l 158 631 l 228 700 l 214 700 l 145 631 l 124 631 l 193 700 l 179 700 l 110 631 l 110 631 l 110 631 l 110 630 l 110 631 l 99 641 l 158 700 l 145 700 l 93 648 l 82 658 l 124 700 l 110 700 l 75 665 l 65 676 l 89 700 l 75 700 l 58 683 l 47 693 l 54 700 l 40 700 l 40 0 l 501 0 l 501 13 l 494 7 l 484 18 l 501 34 l 501 48 l 477 25 l 467 36 l 501 69 l 501 83 l 461 43 l 451 54 l 501 104 l 501 117 l 444 61 l 436 69 l 431 69 l 501 138 l 501 139 l 487 139 l 418 69 l 397 69 l 466 139 l 452 139 l 383 69 l 362 69 l 431 139 l 418 139 l 348 69 l 327 69 l 397 139 l 383 139 l 313 69 l 292 69 l 362 139 l 348 139 l 279 69 l 258 69 l 327 139 l 313 139 l 244 69 l 223 69 l 292 139 l 279 139 l 209 69 l 188 69 l 258 139 l 244 139 l 174 69 l 153 69 l 223 139 l 209 139 l 140 69 l 119 69 l 188 139 l 179 139 l 179 144 l 110 74 l 110 95 l 179 165 l 179 179 l 110 109 l 110 130 l 179 200 l 179 213 l 110 144 l 110 165 l 179 234 l 179 248 l 110 179 l 110 200 l 179 269 l 179 283 l 110 213 l 110 234 l 170 294 l 179 285 l 375 285 l 372 288 l 375 290 l 375 304 l 365 295 l 355 306 l 375 325 l 375 339 l 348 313 l 338 324 l 375 360 l 375 374 l 332 331 l 322 342 l 375 395 l 375 409 l 315 349 l 310 354 l 299 354 l 369 424 l 355 424 l 285 354 l 264 354 l 334 424 l 320 424 l 251 354 l 230 354 l 299 424 l 285 424 l 216 354 l 195 354 l 264 424 l 251 424 l 181 354 l 160 354 l 230 424 l 216 424 l 146 354 l 125 354 l 195 424 l 181 424 l 112 354 l 110 354 l 110 373 l 179 443 l 179 457 l 110 387 l 110 408 l 179 478 l 179 491 l 110 422 l 110 443 l 179 512 l 179 526 l 110 457 l 110 478 l 179 547 l 179 561 l 110 491 l 110 512 l 169 572 l 179 561 l 501 561 l 501 569 l 497 565 l 486 576 l 501 590 l 501 604 l 480 583 l 470 594 l 501 625 l 501 639 l 463 601 l 453 612 l 501 660 l 501 674 l 446 619 l 436 630 l 501 695 z m 152 312 l 163 301 l 110 248 l 110 269 z m 146 319 l 110 283 l 110 304 l 135 329 z m 118 346 l 128 336 l 110 318 l 110 339 z m 110 617 l 117 624 l 127 613 l 110 596 z m 110 582 l 134 606 l 145 596 l 110 561 z m 110 526 l 110 547 l 152 589 l 162 578 z"},"s":{"x_min":0,"x_max":592,"ha":592,"o":"m 556 188 b 556 188 556 189 556 189 l 466 99 l 454 107 l 454 107 b 456 108 457 110 459 112 l 459 112 l 555 209 b 555 213 554 217 554 221 l 474 141 b 477 149 479 158 481 168 b 481 168 481 168 481 168 l 550 238 b 549 241 548 245 547 248 l 482 183 b 482 185 482 187 482 189 b 482 193 482 198 481 202 l 542 263 b 540 266 539 269 537 272 l 479 214 b 479 214 479 214 479 214 b 478 219 477 225 475 230 l 530 285 b 528 287 526 290 524 293 l 471 239 b 471 239 471 239 471 239 b 468 243 466 248 463 252 l 515 304 b 513 306 511 309 509 311 l 457 259 b 454 263 451 266 447 270 l 498 321 b 496 323 493 325 491 326 l 440 276 b 436 279 433 282 429 285 l 479 335 b 476 337 474 339 471 340 l 420 290 b 416 292 412 295 408 297 l 408 297 l 458 348 b 455 349 452 351 449 352 l 399 302 b 394 304 390 306 385 308 l 435 359 b 432 360 429 361 426 363 l 376 312 b 376 312 376 312 376 312 b 371 314 366 316 361 318 l 411 369 b 408 370 405 371 402 372 l 351 322 b 351 322 351 322 351 322 b 346 324 341 326 336 327 l 387 378 b 383 379 380 380 377 381 l 327 331 b 318 334 310 337 302 339 b 305 338 308 337 311 336 l 361 386 b 358 387 354 388 351 389 l 302 340 b 296 341 291 343 286 345 l 335 394 b 332 395 329 396 325 397 l 277 348 b 272 350 267 352 262 354 l 310 402 b 306 403 303 404 300 405 l 252 358 b 247 360 243 362 238 364 l 285 411 b 281 412 278 413 275 414 l 229 368 b 224 370 219 372 215 374 l 261 420 b 258 422 255 423 252 425 l 206 379 b 202 382 198 384 194 387 l 239 432 b 236 434 234 436 231 438 l 186 392 b 182 395 178 398 174 401 l 220 447 b 218 450 216 452 214 455 l 167 408 b 164 411 160 415 157 418 l 206 467 b 205 470 204 474 203 477 l 152 426 b 149 430 146 434 144 438 l 201 495 b 201 495 201 495 201 496 b 201 501 201 506 202 510 l 140 448 b 138 452 136 458 135 463 l 212 540 l 217 537 l 217 537 b 249 570 319 570 355 529 l 355 529 b 370 513 379 490 379 461 l 379 461 l 517 461 l 510 467 l 518 476 b 519 479 519 484 518 489 l 502 473 l 491 482 l 517 508 b 517 512 517 516 516 521 l 483 487 l 472 496 l 513 538 b 513 542 512 545 511 549 l 464 502 l 453 511 l 507 565 b 506 568 505 572 503 575 l 445 517 l 434 526 l 497 590 b 496 593 495 596 493 599 l 429 534 b 428 538 426 543 424 550 l 486 612 b 485 614 483 616 482 618 b 482 619 481 619 481 620 l 472 611 l 420 559 b 418 562 416 566 414 570 l 414 570 b 413 571 413 571 412 572 l 472 632 b 470 634 468 637 466 639 l 407 580 b 404 584 401 587 398 591 l 456 649 b 454 652 451 654 449 656 l 391 597 b 392 596 394 595 395 594 b 390 598 385 602 379 607 l 438 665 b 435 667 432 668 430 670 l 371 612 b 367 614 363 617 358 619 l 358 619 l 417 678 b 414 679 411 681 408 682 l 349 623 l 349 623 b 344 625 339 626 333 628 l 394 688 b 390 689 387 691 384 692 l 322 630 b 317 631 311 632 304 633 l 368 696 b 364 697 361 698 357 699 l 292 633 b 289 633 286 634 284 634 b 279 634 275 634 271 633 l 340 702 b 336 702 332 703 328 703 l 257 632 b 248 631 240 630 232 628 l 309 705 b 305 705 300 705 296 705 l 213 622 b 185 611 166 594 154 575 l 162 571 l 141 550 b 144 558 148 567 154 575 l 149 578 l 275 704 b 270 704 265 704 261 703 l 141 583 l 128 591 l 237 700 b 231 699 226 698 220 697 l 119 596 l 107 604 l 191 688 b 182 684 174 681 166 677 l 98 609 l 93 612 b 63 570 53 526 53 508 b 53 244 407 295 407 184 b 407 169 402 157 394 147 l 405 139 l 322 56 b 315 56 309 57 302 57 l 379 133 b 371 129 363 125 354 123 l 290 58 b 284 59 278 60 272 61 l 330 118 b 325 118 321 118 316 118 l 261 63 b 256 64 250 66 245 67 l 298 121 b 295 121 291 122 288 123 l 235 70 b 230 72 225 74 220 76 l 273 129 b 269 130 266 131 264 133 l 210 80 b 206 82 201 84 197 87 l 251 141 b 249 143 246 145 244 147 l 188 91 b 184 94 180 97 176 99 l 234 157 b 232 160 230 163 228 165 l 168 105 b 165 108 161 111 158 115 l 221 178 b 220 182 219 185 218 188 l 151 122 b 148 125 145 129 142 133 l 214 205 b 213 209 213 213 213 217 l 138 142 b 135 147 133 151 132 156 l 196 221 l 183 221 l 129 167 b 129 171 129 174 129 178 l 122 181 l 162 221 l 149 221 l 113 185 l 100 192 l 129 221 l 115 221 l 91 196 l 77 203 l 95 221 l 82 221 l 68 207 l 54 214 l 61 221 l 48 221 l 45 218 l 40 221 b 40 162 68 106 115 64 l 115 64 b 115 64 115 64 115 64 b 115 64 115 64 115 64 l 115 64 b 163 22 231 -5 310 -5 b 407 -5 471 28 509 70 b 515 77 520 83 524 90 l 506 72 l 494 80 l 546 132 b 548 139 550 145 552 151 l 486 85 l 474 94 l 556 176 b 556 180 556 184 556 188 z m 135 531 l 170 566 l 183 558 l 131 507 b 132 514 133 522 135 531 z m 131 493 l 191 553 l 204 545 l 132 474 b 131 480 131 486 131 493 z m 336 57 l 413 134 l 425 126 l 358 59 b 351 58 343 57 336 57 z m 375 62 l 433 121 l 445 112 l 405 72 b 395 68 385 64 375 62 z"},"l":{"x_min":0,"x_max":488,"ha":488,"o":"m 357 67 l 424 134 l 410 134 l 343 67 l 357 67 z m 446 134 l 445 134 l 378 67 l 322 67 l 389 134 l 376 134 l 309 67 l 288 67 l 355 134 l 341 134 l 274 67 l 253 67 l 320 134 l 306 134 l 239 67 l 218 67 l 285 134 l 271 134 l 204 67 l 183 67 l 250 134 l 237 134 l 170 67 l 149 67 l 216 134 l 202 134 l 135 67 l 114 67 l 181 134 l 176 134 l 176 143 l 108 75 l 108 96 l 176 164 l 176 178 l 108 110 l 108 131 l 176 199 l 176 213 l 108 144 l 108 165 l 176 234 l 176 247 l 108 179 l 108 200 l 176 268 l 176 282 l 108 214 l 108 235 l 176 303 l 176 317 l 108 249 l 108 270 l 176 338 l 176 352 l 108 283 l 108 304 l 176 373 l 176 387 l 108 318 l 108 339 l 176 407 l 176 421 l 108 353 l 108 374 l 176 442 l 176 456 l 108 388 l 108 409 l 176 477 l 176 491 l 108 422 l 108 443 l 176 512 l 176 526 l 108 457 l 108 478 l 176 546 l 176 560 l 108 492 l 108 513 l 176 581 l 176 595 l 108 527 l 108 548 l 176 616 l 176 630 l 108 562 l 108 582 l 176 651 l 176 665 l 108 596 l 108 617 l 176 686 l 176 699 l 108 631 l 108 648 l 106 650 l 156 700 l 142 700 l 98 656 l 86 665 l 121 700 l 108 700 l 78 671 l 66 680 l 87 700 l 73 700 l 59 686 l 47 695 l 52 700 l 40 700 l 40 0 l 446 0 l 439 10 l 446 17 l 446 31 l 433 17 l 424 29 l 446 52 l 446 66 l 418 37 l 409 49 l 446 87 l 446 100 l 403 57 l 395 67 l 392 67 l 446 121 l 446 134 z"},"8":{"x_min":0,"x_max":507,"ha":507,"o":"m 188 627 l 260 700 b 259 700 257 700 256 700 l 255 700 b 252 700 249 700 246 700 l 183 637 l 188 627 z m 407 61 b 420 73 430 86 439 101 l 370 32 b 383 40 395 49 407 61 z m 176 650 l 223 697 b 218 696 212 695 207 694 l 172 659 l 176 650 z m 324 75 l 469 220 b 469 225 469 229 468 233 l 388 153 b 393 163 396 174 399 185 b 399 185 399 185 399 185 l 466 252 b 465 256 465 260 464 263 l 401 201 l 401 201 b 402 206 402 210 402 215 b 402 218 402 220 402 222 l 459 280 b 458 283 457 286 456 290 l 400 234 b 399 240 398 245 396 251 l 450 304 b 448 307 447 310 445 313 l 393 261 b 391 266 389 271 386 276 l 437 326 b 435 329 433 331 431 334 l 382 284 l 382 284 b 379 289 377 293 374 298 l 422 345 b 420 348 418 350 415 353 l 369 306 l 369 306 b 366 310 363 314 360 318 l 360 318 l 405 363 b 405 363 405 363 405 363 b 417 377 428 392 437 408 b 437 408 437 409 438 409 l 354 325 b 351 330 347 333 344 337 b 344 337 344 337 344 337 l 451 443 b 453 449 454 455 455 461 l 338 344 b 334 348 330 352 328 354 l 457 484 b 457 486 457 489 457 492 b 457 494 457 495 457 497 l 343 383 b 343 383 343 383 343 383 b 352 396 363 414 373 434 l 456 517 b 455 521 455 525 454 529 l 381 456 b 384 465 387 474 388 484 b 388 484 388 484 388 483 l 451 546 b 450 550 449 553 448 557 l 389 498 b 389 500 389 501 389 502 b 389 508 389 513 388 518 l 443 572 b 441 576 440 579 439 582 l 386 530 b 385 536 384 541 382 546 l 382 546 l 432 596 b 430 599 429 602 427 605 l 378 556 b 376 561 373 565 371 570 l 371 570 l 419 617 b 417 620 415 623 413 625 l 365 578 b 363 582 359 586 356 589 b 356 589 356 589 356 589 l 403 636 b 402 638 401 639 400 640 b 399 641 398 642 397 643 l 349 596 b 346 599 342 603 338 606 l 386 653 b 383 655 381 658 378 659 l 330 611 b 326 614 321 616 317 619 l 317 619 l 366 668 b 363 670 361 672 358 673 l 307 623 b 302 625 297 627 292 628 l 344 681 b 341 682 338 683 335 685 l 281 631 b 275 632 268 632 262 633 l 262 633 l 319 690 b 316 691 312 692 309 693 l 249 633 b 240 633 233 632 225 630 l 292 697 b 288 697 284 698 280 698 l 205 624 b 201 622 197 620 193 618 l 197 610 l 195 614 l 135 554 b 147 580 167 604 193 618 l 163 678 b 144 668 128 656 113 640 b 75 601 55 551 54 491 b 54 460 62 432 76 408 b 84 392 95 377 107 363 b 65 326 43 276 42 216 l 42 216 b 43 152 64 99 106 60 b 146 21 196 1 255 0 l 256 0 b 290 0 321 7 349 21 l 346 29 l 346 28 l 457 140 b 459 146 461 152 462 159 l 341 38 l 335 52 l 467 184 b 468 189 468 194 468 199 l 330 61 l 324 75 z m 224 556 b 233 561 244 563 255 563 b 274 563 290 558 304 546 b 316 535 323 517 323 493 b 323 470 316 453 303 441 b 298 437 293 433 287 430 b 287 430 286 430 286 429 l 215 359 l 194 359 l 258 423 b 257 423 257 423 255 423 b 252 423 249 423 245 423 l 185 363 b 182 365 179 369 175 374 l 229 428 b 226 429 223 431 220 433 l 169 381 b 166 385 163 389 160 393 l 209 442 b 206 444 204 446 202 449 l 154 401 b 152 405 149 410 147 414 l 194 462 b 193 465 192 468 191 472 l 142 423 b 139 427 137 432 135 437 l 188 490 b 188 491 188 492 188 493 b 188 497 189 501 189 505 l 131 446 b 129 452 127 457 126 462 l 200 536 b 202 540 205 543 208 546 b 210 547 212 549 214 550 l 222 559 l 224 556 z m 303 399 l 310 385 l 284 359 l 263 359 l 303 399 z m 250 359 l 229 359 l 292 422 l 299 408 l 250 359 z m 315 376 l 323 359 l 322 362 l 318 359 l 298 359 l 315 376 z m 188 359 b 188 359 187 360 185 363 b 187 360 188 359 188 359 z m 127 532 l 199 605 l 206 591 l 122 507 b 123 515 125 524 127 532 z m 211 582 l 218 568 l 123 473 b 122 480 121 486 121 492 l 211 582 z m 148 312 l 190 355 l 197 341 l 119 263 b 127 281 137 298 148 312 z m 109 205 l 212 308 l 208 317 l 109 218 b 109 226 110 234 112 242 l 201 331 l 219 294 l 112 187 b 111 193 110 199 109 205 z m 253 70 b 252 70 251 70 249 70 l 301 122 l 297 131 l 237 70 b 230 71 225 72 219 74 l 289 144 b 283 141 276 139 269 138 l 208 77 b 203 78 198 80 193 83 l 248 137 b 244 137 240 138 236 139 l 185 87 b 180 90 176 92 172 95 l 221 145 b 218 146 215 148 213 150 l 164 101 b 160 104 157 108 153 111 l 201 159 b 201 159 201 159 201 160 l 200 160 b 198 162 196 164 195 166 l 147 118 b 143 122 140 126 137 130 l 186 178 b 184 181 183 184 182 188 l 132 138 b 129 142 127 147 125 151 l 177 204 b 177 208 176 212 176 217 l 176 217 l 120 161 b 118 166 116 171 115 176 l 180 241 b 184 254 191 265 201 274 b 207 280 214 285 222 289 b 232 294 243 296 255 297 b 278 296 297 289 312 274 b 327 259 335 241 335 217 b 335 193 327 175 312 160 l 311 160 b 305 153 298 148 290 144 l 308 108 l 271 71 b 265 70 259 70 253 70 z m 319 84 l 319 84 b 309 80 299 76 288 74 l 312 98 l 319 84 b 319 85 319 85 320 85 l 319 84 z m 175 684 b 171 682 167 680 163 678 l 165 673 l 175 684 z"},"\\":{"x_min":0,"x_max":357,"ha":357,"o":"m 85 700 l -23 700 l -20 693 l -17 696 l -5 688 l -15 678 l -11 669 l 3 683 l 15 674 l -6 654 l -2 645 l 22 669 l 34 661 l 3 630 l 7 621 l 42 656 l 50 650 l 52 646 l 12 606 l 16 596 l 56 636 l 61 622 l 22 582 l 25 572 l 65 612 l 70 597 l 31 558 l 34 548 l 74 588 l 79 573 l 40 534 l 43 524 l 83 564 l 88 549 l 49 510 l 52 500 l 92 540 l 97 525 l 58 485 l 61 476 l 101 516 l 107 501 l 67 461 l 70 452 l 110 491 l 116 477 l 76 437 l 80 428 l 119 467 l 125 453 l 85 413 l 89 404 l 128 443 l 134 429 l 94 389 l 98 379 l 137 419 l 143 405 l 103 365 l 107 355 l 146 395 l 152 381 l 112 341 l 116 331 l 156 371 l 161 356 l 121 317 l 125 307 l 165 347 l 170 332 l 130 293 l 134 283 l 174 323 l 179 308 l 139 268 l 143 259 l 183 299 l 188 284 l 149 244 l 152 235 l 192 275 l 197 260 l 158 220 l 161 211 l 201 250 l 206 236 l 167 196 l 170 187 l 210 226 l 215 212 l 176 172 l 179 162 l 219 202 l 225 188 l 185 148 l 188 138 l 228 178 l 234 164 l 194 124 l 197 114 l 237 154 l 243 139 l 203 100 l 207 90 l 246 130 l 252 115 l 212 76 l 216 66 l 255 106 l 261 91 l 221 51 l 225 42 l 264 82 l 270 67 l 230 27 l 234 18 l 274 58 l 276 50 l 282 46 l 239 3 l 240 0 l 249 0 l 290 41 l 302 33 l 269 0 l 282 0 l 310 27 l 322 19 l 302 0 l 315 0 l 329 14 l 341 6 l 335 0 l 349 0 l 349 0 l 350 0 l 85 700 z"},"e":{"x_min":0,"x_max":537,"ha":537,"o":"m 501 700 l 492 700 l 423 631 l 402 631 l 471 700 l 457 700 l 388 631 l 367 631 l 436 700 l 423 700 l 353 631 l 332 631 l 402 700 l 388 700 l 318 631 l 298 631 l 367 700 l 353 700 l 284 631 l 263 631 l 332 700 l 318 700 l 249 631 l 228 631 l 297 700 l 284 700 l 214 631 l 193 631 l 263 700 l 249 700 l 179 631 l 158 631 l 228 700 l 214 700 l 145 631 l 124 631 l 193 700 l 179 700 l 110 631 l 110 631 l 110 631 l 110 630 l 110 631 l 99 641 l 158 700 l 145 700 l 93 648 l 82 658 l 124 700 l 110 700 l 75 665 l 65 676 l 89 700 l 75 700 l 58 683 l 47 693 l 54 700 l 40 700 l 40 0 l 501 0 l 501 13 l 494 7 l 484 18 l 501 34 l 501 48 l 477 25 l 467 36 l 501 69 l 501 83 l 461 43 l 451 54 l 501 104 l 501 117 l 444 61 l 436 69 l 431 69 l 501 138 l 501 139 l 487 139 l 418 69 l 397 69 l 466 139 l 452 139 l 383 69 l 362 69 l 431 139 l 418 139 l 348 69 l 327 69 l 397 139 l 383 139 l 313 69 l 292 69 l 362 139 l 348 139 l 279 69 l 258 69 l 327 139 l 313 139 l 244 69 l 223 69 l 292 139 l 279 139 l 209 69 l 188 69 l 258 139 l 244 139 l 174 69 l 153 69 l 223 139 l 209 139 l 140 69 l 119 69 l 188 139 l 179 139 l 179 144 l 110 74 l 110 95 l 179 165 l 179 179 l 110 109 l 110 130 l 179 200 l 179 213 l 110 144 l 110 165 l 179 234 l 179 248 l 110 179 l 110 200 l 179 269 l 179 283 l 110 213 l 110 234 l 170 294 l 179 285 l 375 285 l 372 288 l 375 290 l 375 304 l 365 295 l 355 306 l 375 325 l 375 339 l 348 313 l 338 324 l 375 360 l 375 374 l 332 331 l 322 342 l 375 395 l 375 409 l 315 349 l 310 354 l 299 354 l 369 424 l 355 424 l 285 354 l 264 354 l 334 424 l 320 424 l 251 354 l 230 354 l 299 424 l 285 424 l 216 354 l 195 354 l 264 424 l 251 424 l 181 354 l 160 354 l 230 424 l 216 424 l 146 354 l 125 354 l 195 424 l 181 424 l 112 354 l 110 354 l 110 373 l 179 443 l 179 457 l 110 387 l 110 408 l 179 478 l 179 491 l 110 422 l 110 443 l 179 512 l 179 526 l 110 457 l 110 478 l 179 547 l 179 561 l 110 491 l 110 512 l 169 572 l 179 561 l 501 561 l 501 569 l 497 565 l 486 576 l 501 590 l 501 604 l 480 583 l 470 594 l 501 625 l 501 639 l 463 601 l 453 612 l 501 660 l 501 674 l 446 619 l 436 630 l 501 695 l 501 700 z m 152 312 l 163 301 l 110 248 l 110 269 l 152 312 z m 146 319 l 110 283 l 110 304 l 135 329 l 146 319 z m 118 346 l 128 336 l 110 318 l 110 339 l 118 346 z m 110 617 l 117 624 l 127 613 l 110 596 l 110 617 z m 110 582 l 134 606 l 145 596 l 110 561 l 110 582 z m 110 526 l 110 547 l 152 589 l 162 578 l 110 526 z"},"b":{"x_min":0,"x_max":576,"ha":576,"o":"m 414 92 l 543 221 b 543 226 543 230 543 235 l 406 98 l 398 105 b 392 99 385 94 377 90 l 394 107 l 398 105 b 412 116 425 131 434 147 b 434 147 434 147 434 147 l 541 254 b 540 257 539 261 538 265 l 446 173 b 449 181 451 191 453 201 l 534 282 b 533 286 532 289 531 292 l 454 216 b 455 219 455 222 455 225 b 455 229 454 237 454 237 l 525 308 b 524 311 522 314 521 317 l 453 249 b 452 255 451 261 449 266 l 514 331 b 512 334 510 337 508 339 l 446 277 b 444 283 440 292 440 292 l 500 352 b 498 354 496 357 494 360 l 435 301 b 433 305 430 310 427 314 l 484 371 b 482 373 479 375 477 378 l 421 322 b 421 322 416 328 412 333 b 412 333 412 333 412 333 l 486 408 b 490 415 493 423 496 431 l 405 340 b 402 342 399 345 396 347 b 395 348 394 349 393 349 l 504 460 b 505 465 505 471 506 476 l 385 355 b 381 358 376 361 372 363 l 507 498 b 507 498 507 498 507 498 b 507 503 507 507 507 512 l 362 367 b 363 367 363 367 363 367 b 358 369 353 371 347 373 l 388 414 l 391 411 b 398 418 403 426 408 434 l 505 530 b 504 534 503 538 502 542 l 419 459 b 422 467 424 476 425 486 b 425 486 425 486 425 485 l 498 559 b 497 562 496 566 495 569 l 426 500 b 426 501 426 502 426 503 b 426 509 426 515 425 520 l 489 584 b 487 587 486 590 484 593 l 423 532 b 423 532 423 532 423 532 b 422 538 420 543 419 549 l 476 606 b 475 609 473 612 471 615 l 415 559 b 413 564 411 568 408 573 l 462 627 b 460 629 458 632 456 634 l 403 582 b 400 586 397 590 394 594 l 445 645 b 443 647 441 649 438 651 l 388 601 b 384 605 381 608 377 611 l 427 661 b 426 661 425 662 424 663 b 422 664 420 665 419 667 l 369 618 b 370 617 362 623 357 626 l 357 626 l 406 675 b 403 676 400 678 397 679 l 347 630 b 342 632 337 634 331 635 l 331 635 l 382 686 b 379 687 375 689 372 690 l 320 638 b 314 639 308 640 301 640 l 301 640 l 356 694 b 352 695 348 696 344 697 l 288 640 b 288 640 287 640 287 640 l 267 640 l 326 699 b 322 700 317 700 313 700 l 253 640 l 232 640 l 292 700 l 278 700 l 219 640 l 198 640 l 257 700 l 243 700 l 184 640 l 163 640 l 222 700 l 209 700 l 149 640 l 128 640 l 188 700 l 174 700 l 114 640 l 104 640 l 109 635 l 104 631 l 104 640 l 99 646 l 153 700 l 139 700 l 91 652 l 81 662 l 118 700 l 104 700 l 73 669 l 63 679 l 83 700 l 70 700 l 55 686 l 44 696 l 49 700 l 40 700 l 40 0 l 328 0 b 380 0 428 19 465 50 b 478 62 490 74 500 88 l 464 52 l 452 61 l 527 136 b 530 143 532 150 534 157 l 445 67 l 433 77 l 540 184 b 541 189 542 194 542 199 l 425 83 l 414 92 z m 408 434 l 408 434 b 408 434 408 434 408 434 b 408 434 408 434 408 434 b 408 434 408 434 408 434 z m 370 364 b 370 364 370 364 370 364 b 370 364 370 364 370 364 l 370 364 z m 381 421 l 336 376 b 330 377 324 378 318 379 l 371 431 l 381 421 z m 364 438 l 305 380 b 305 380 304 380 304 380 l 284 380 l 354 449 l 364 438 z m 104 617 l 116 628 l 126 618 l 104 596 l 104 617 z m 104 582 l 133 611 l 144 600 l 104 561 l 104 582 z m 104 547 l 150 593 l 161 583 l 104 526 l 104 547 z m 104 408 l 169 473 l 169 487 l 104 422 l 104 443 l 169 508 l 169 521 l 104 457 l 104 478 l 169 542 l 169 556 l 104 492 l 104 513 l 168 576 l 169 574 l 290 574 b 300 574 310 572 319 568 l 319 568 b 343 556 359 532 359 503 b 359 503 360 478 343 459 l 347 456 l 270 380 l 250 380 l 311 441 b 307 440 301 440 295 439 l 236 380 l 215 380 l 274 439 l 261 439 l 201 380 l 180 380 l 240 439 l 226 439 l 166 380 l 145 380 l 205 439 l 191 439 l 131 380 l 110 380 l 170 439 b 169 439 169 439 169 439 l 169 452 l 104 387 l 104 408 z m 104 374 l 107 376 l 117 365 l 104 353 l 104 374 z m 104 339 l 123 357 l 133 346 l 104 318 l 104 339 z m 104 304 l 139 338 l 148 327 l 104 283 l 104 304 z m 104 269 l 155 319 l 164 308 l 104 248 l 104 269 z m 253 71 l 337 154 l 336 154 b 331 152 324 150 318 149 l 240 71 l 219 71 l 296 148 l 282 148 l 205 71 l 184 71 l 261 148 l 247 148 l 170 71 l 149 71 l 226 148 l 212 148 l 135 71 l 114 71 l 192 148 l 178 148 l 104 75 l 104 96 l 169 160 l 169 174 l 104 109 l 104 130 l 169 195 l 169 209 l 104 144 l 104 165 l 169 229 l 169 243 l 104 179 l 104 200 l 169 264 l 169 278 l 104 214 l 104 235 l 169 299 l 169 302 l 306 302 b 318 302 329 300 338 295 b 364 283 382 256 382 225 b 382 193 363 166 336 154 l 348 145 l 274 71 l 253 71 z m 304 71 l 288 71 l 356 138 l 368 129 l 309 71 b 307 71 305 71 304 71 z m 324 72 l 375 123 l 387 114 l 352 79 b 343 76 334 73 324 72 z"},"%":{"x_min":0,"x_max":698,"ha":698,"o":"m 161 694 b 154 692 148 689 142 685 l 145 678 l 161 694 z m 657 154 b 657 155 657 157 657 159 b 657 162 657 165 657 167 l 617 127 b 618 135 618 142 619 150 l 655 187 b 655 191 654 195 653 198 l 619 164 b 618 170 618 177 617 183 l 649 215 b 648 219 647 222 646 226 l 615 195 b 614 201 613 206 611 212 l 640 241 b 639 244 637 247 636 250 l 608 222 l 608 222 b 606 227 603 232 601 236 l 628 263 b 626 266 624 268 622 271 l 596 245 l 596 245 b 593 249 590 253 587 256 l 587 256 l 612 282 b 610 284 607 286 605 288 l 580 263 b 576 266 572 269 567 272 b 567 272 567 272 567 272 l 593 297 b 590 299 587 300 584 302 l 558 276 l 558 276 b 553 278 548 280 542 280 l 569 308 b 565 309 562 310 558 310 l 529 282 b 528 282 527 282 526 282 b 519 282 513 281 507 280 b 507 280 507 280 507 280 l 540 313 b 536 314 531 314 527 314 l 485 272 b 482 270 478 268 475 266 l 476 263 l 451 238 b 449 234 447 230 445 226 b 452 242 462 256 475 266 l 470 278 l 505 312 b 498 311 493 310 487 309 l 466 287 l 461 298 b 416 272 393 217 393 157 b 393 83 424 0 526 0 b 550 0 570 4 588 14 l 587 15 l 638 66 b 641 73 645 81 647 89 l 583 25 l 587 16 l 577 39 l 653 116 b 654 121 655 126 656 132 l 602 79 b 607 88 611 99 614 111 l 657 154 z m 560 77 l 572 49 l 563 39 b 555 35 545 33 535 32 l 566 63 l 562 72 l 521 32 b 514 32 508 33 503 34 l 531 62 b 529 62 527 62 525 62 b 523 62 520 62 517 63 l 492 37 b 494 37 495 36 497 36 b 490 38 484 41 478 44 l 502 68 b 499 70 496 72 494 74 l 470 50 b 466 53 463 57 460 60 l 485 85 b 483 88 481 91 480 94 l 454 68 b 451 72 449 77 446 82 l 474 109 b 473 113 472 117 472 121 l 442 91 b 440 96 439 102 437 107 l 469 139 b 469 143 469 148 469 152 l 435 118 b 434 124 433 130 432 137 l 469 173 b 470 179 470 184 471 189 l 432 150 b 432 152 432 154 432 157 b 432 161 432 166 432 171 l 481 220 b 483 225 486 229 490 234 l 487 239 l 434 186 b 435 196 437 205 440 213 l 481 254 l 477 261 l 490 234 b 499 245 511 252 525 252 b 569 252 582 197 582 158 b 582 121 574 93 560 77 z m 284 203 l 322 268 l 411 357 l 431 391 l 341 301 l 420 435 l 510 525 l 530 559 l 440 469 l 478 533 l 470 519 l 560 609 l 579 643 l 489 552 l 519 603 l 609 693 l 629 726 l 538 636 l 568 687 l 642 760 l 628 760 l 588 720 l 577 702 l 592 728 l 586 739 l 607 760 l 593 760 l 581 748 l 575 760 l 83 -77 l 156 -77 l 154 -73 l 164 -63 l 184 -29 l 149 -64 l 142 -51 l 214 21 l 233 55 l 144 -34 l 223 100 l 312 189 l 332 223 l 243 133 l 272 184 l 362 273 l 382 307 l 292 217 l 284 203 z m 371 351 l 461 441 l 480 475 l 391 385 l 371 351 z m 316 448 l 269 401 b 289 412 304 428 316 448 z m 207 387 b 230 387 251 392 269 401 l 262 415 l 330 483 b 331 488 333 494 334 500 l 258 425 l 261 419 l 255 433 b 249 429 243 426 236 424 l 252 439 l 255 433 b 269 442 280 457 287 475 l 337 524 b 337 529 337 534 337 539 l 294 495 b 294 495 294 495 294 495 b 296 503 297 511 298 520 l 298 520 l 337 559 b 337 564 337 568 336 572 l 299 535 b 299 535 299 535 299 535 b 299 539 299 542 299 546 b 299 549 299 553 299 556 l 333 590 b 332 594 332 597 331 601 l 298 569 b 298 569 298 569 298 569 b 297 574 296 580 295 586 l 326 617 b 325 620 323 623 322 627 l 292 597 b 291 603 289 608 287 613 b 287 613 287 613 287 613 l 315 641 b 313 644 312 646 310 649 l 283 622 b 283 622 283 622 283 622 b 280 627 278 631 275 635 l 275 635 l 301 661 b 299 663 296 666 294 668 l 269 643 b 265 646 262 650 258 653 l 283 678 b 280 680 278 682 275 683 l 250 658 l 250 658 b 245 661 241 663 236 665 b 236 665 236 665 236 665 l 261 691 b 258 692 255 693 252 695 l 225 668 l 225 668 b 219 669 213 669 207 669 b 206 669 206 669 206 669 l 235 699 b 231 700 227 700 223 701 l 191 668 b 177 666 166 661 156 653 l 164 635 l 162 640 l 120 597 b 125 614 132 630 143 641 l 151 650 b 150 649 148 647 147 646 b 150 648 153 651 156 653 l 156 654 l 203 701 b 198 701 193 701 188 701 l 151 664 l 142 685 b 96 659 74 605 74 544 b 74 470 105 387 207 387 z m 149 544 b 149 549 149 554 150 558 l 113 522 b 113 529 112 535 112 542 l 153 583 b 155 590 157 597 160 603 l 113 556 b 113 564 114 572 115 579 l 166 630 l 170 621 b 179 632 191 639 206 639 b 250 639 262 584 262 546 b 262 509 255 481 240 465 l 247 449 l 219 420 b 215 420 211 419 207 419 b 203 419 200 419 198 420 l 241 463 l 240 465 b 233 457 225 452 214 450 l 186 421 b 180 423 175 424 170 426 l 194 451 b 191 452 187 453 184 455 l 161 431 b 156 434 152 437 149 440 l 173 464 b 170 466 168 469 166 471 l 142 447 b 139 450 136 455 133 459 l 159 485 b 158 488 157 492 156 495 l 128 468 b 126 472 124 477 122 482 l 152 512 b 151 516 151 520 150 524 l 119 493 b 117 498 116 504 115 510 l 149 544 b 149 544 149 544 149 544 z m 174 16 l 263 105 l 283 139 l 193 49 l 174 16 z"},"m":{"x_min":0,"x_max":602,"ha":602,"o":"m 565 692 l 565 700 l 559 700 l 466 608 l 484 646 l 538 700 l 524 700 l 493 670 l 479 676 l 503 700 l 489 700 l 469 680 l 455 687 l 468 700 l 454 700 l 445 691 l 431 697 l 433 700 l 425 700 l 302 412 l 302 409 l 253 359 l 246 374 l 297 425 l 293 434 l 242 383 l 235 397 l 287 449 l 283 459 l 231 407 l 224 421 l 276 473 l 272 483 l 220 430 l 213 445 l 266 498 l 262 508 l 209 454 l 202 468 l 256 522 l 252 532 l 197 478 l 191 492 l 245 547 l 241 556 l 186 502 l 180 516 l 235 571 l 231 581 l 175 525 l 169 540 l 225 596 l 221 605 l 164 549 l 158 563 l 214 620 l 210 630 l 153 573 l 147 587 l 204 644 l 200 654 l 142 596 l 136 611 l 194 669 l 190 678 l 131 620 l 125 635 l 183 693 l 180 700 l 176 700 l 120 644 l 114 658 l 155 700 l 141 700 l 108 666 l 94 673 l 121 700 l 107 700 l 85 678 l 71 685 l 86 700 l 72 700 l 61 689 l 47 696 l 51 700 l 40 700 l 40 0 l 180 0 l 180 9 l 176 4 l 165 15 l 180 30 l 180 44 l 158 22 l 148 32 l 180 65 l 180 78 l 141 39 l 130 49 l 180 99 l 180 113 l 123 56 l 113 67 l 180 134 l 180 148 l 110 78 l 110 99 l 180 169 l 180 183 l 110 113 l 110 134 l 180 204 l 180 218 l 110 147 l 110 168 l 180 238 l 180 252 l 110 182 l 110 203 l 180 273 l 180 287 l 110 217 l 110 238 l 180 308 l 180 322 l 110 252 l 110 273 l 180 343 l 180 357 l 110 286 l 110 307 l 175 372 l 239 218 l 366 218 l 374 237 l 358 222 l 345 229 l 389 273 l 399 297 l 336 234 l 322 241 l 414 333 l 424 356 l 314 246 l 303 252 l 306 260 l 439 392 l 424 358 l 424 356 l 424 0 l 565 0 l 565 11 l 559 5 l 549 16 l 565 32 l 565 46 l 542 23 l 531 33 l 565 67 l 565 80 l 524 40 l 514 50 l 565 101 l 565 115 l 507 57 l 496 68 l 565 136 l 565 150 l 495 80 l 495 101 l 565 171 l 565 185 l 495 115 l 495 136 l 565 206 l 565 219 l 495 149 l 495 170 l 565 240 l 565 254 l 495 184 l 495 205 l 565 275 l 565 289 l 495 219 l 495 240 l 565 310 l 565 324 l 495 254 l 495 275 l 565 345 l 565 358 l 495 288 l 495 309 l 565 379 l 565 393 l 495 323 l 495 344 l 565 414 l 565 428 l 495 358 l 495 379 l 565 449 l 565 463 l 495 393 l 495 414 l 565 484 l 565 498 l 495 427 l 495 448 l 565 518 l 565 532 l 495 462 l 495 483 l 565 553 l 565 567 l 495 497 l 495 518 l 565 588 l 565 602 l 377 414 l 395 453 l 565 623 l 565 637 l 407 479 l 425 518 l 565 657 l 565 671 l 436 543 l 454 582 z m 110 516 l 114 519 l 120 504 l 110 495 z m 110 481 l 124 495 l 130 480 l 110 460 z m 110 446 l 134 470 l 140 455 l 110 425 z m 110 412 l 144 446 l 150 431 l 110 391 z m 110 377 l 154 421 l 161 406 l 110 356 z m 110 321 l 110 342 l 165 397 l 171 382 z m 303 270 l 302 270 l 297 264 l 290 279 l 303 291 z m 303 305 l 286 288 l 279 302 l 303 326 z m 303 340 l 275 312 l 268 326 l 303 361 z m 264 336 l 257 350 l 302 395 l 303 374 z m 448 416 l 318 285 l 336 324 l 463 452 z m 488 512 l 473 476 l 347 350 l 365 389 z m 424 699 l 425 700 l 424 700 z"},"#":{"x_min":0,"x_max":605,"ha":605,"o":"m 390 54 l 396 47 l 399 63 l 390 54 z m 437 605 l 469 637 l 455 637 l 431 613 l 437 605 z m 48 264 l 54 256 l 74 276 l 60 276 l 48 264 z m 108 276 l 95 276 l 64 245 l 70 238 l 108 276 z m 381 66 l 403 88 l 406 104 l 374 73 l 381 66 z m 540 446 l 547 439 l 583 475 l 586 492 l 540 446 z m 233 504 l 284 555 l 287 572 l 236 521 l 233 504 z m 558 425 l 533 455 l 529 455 l 578 504 l 564 504 l 515 455 l 494 455 l 544 504 l 530 504 l 480 455 l 460 455 l 509 504 l 495 504 l 446 455 l 425 455 l 475 504 l 473 504 l 475 519 l 425 468 l 429 493 l 479 544 l 482 560 l 432 510 l 436 535 l 486 585 l 489 602 l 438 551 l 443 576 l 493 626 l 495 637 l 489 637 l 445 592 l 446 595 l 418 629 l 422 624 l 434 637 l 420 637 l 415 631 l 411 637 l 389 504 l 390 503 l 342 455 l 322 455 l 371 504 l 357 504 l 308 455 l 287 455 l 337 504 l 323 504 l 273 455 l 253 455 l 302 504 l 288 504 l 239 455 l 225 455 l 231 447 l 222 438 l 225 455 l 218 455 l 222 459 l 225 455 l 226 463 l 277 513 l 279 530 l 229 479 l 228 473 l 240 546 l 291 597 l 294 614 l 242 562 l 246 587 l 296 637 l 282 637 l 245 599 l 248 595 l 235 610 l 262 637 l 248 637 l 229 618 l 220 629 l 227 637 l 213 637 l 213 636 l 213 637 l 191 504 l 185 504 l 135 455 l 116 455 l 114 458 l 116 456 l 164 504 l 150 504 l 109 464 l 97 478 l 100 475 l 130 504 l 116 504 l 94 483 l 81 498 l 84 494 l 95 504 l 81 504 l 78 501 l 76 504 l 60 406 l 174 406 l 151 276 l 157 269 l 115 228 l 95 228 l 143 276 l 129 276 l 81 228 l 78 228 l 38 275 l 39 276 l 37 276 l 21 181 l 137 181 l 115 47 l 198 47 l 194 52 l 200 57 l 203 74 l 188 59 l 179 71 l 207 99 l 210 115 l 172 78 l 163 89 l 163 90 l 163 89 l 214 141 l 217 157 l 166 106 l 170 133 l 170 131 l 221 181 l 216 188 l 221 181 l 334 181 l 312 47 l 396 47 l 360 90 l 365 84 l 410 129 l 412 146 l 361 94 l 365 119 l 417 171 l 418 181 l 416 184 l 368 135 l 372 160 l 407 196 l 418 181 l 533 181 l 530 184 l 532 182 l 533 184 l 536 200 l 525 189 l 516 201 l 541 226 l 544 242 l 510 208 l 512 206 l 495 226 l 500 219 l 548 268 l 550 276 l 543 276 l 494 227 l 493 228 l 474 228 l 522 276 l 509 276 l 460 228 l 440 228 l 488 276 l 474 276 l 426 228 l 405 228 l 453 276 l 440 276 l 391 228 l 383 228 l 387 223 l 381 218 l 383 228 l 371 228 l 378 235 l 383 228 l 386 243 l 438 295 l 441 312 l 389 260 l 388 254 l 393 285 l 445 337 l 448 354 l 396 302 l 408 369 l 453 414 l 457 408 l 572 408 l 572 409 l 572 408 l 562 420 l 577 434 l 579 450 l 556 427 l 558 425 z m 379 202 l 392 215 l 401 203 l 375 177 l 379 202 z m 221 430 l 219 422 l 236 439 l 233 444 l 246 425 l 245 427 l 215 397 l 214 389 l 221 430 z m 221 461 l 217 467 l 204 455 l 184 455 l 208 479 l 221 461 z m 170 455 l 149 455 l 194 500 l 202 488 l 170 455 z m 150 228 l 129 228 l 162 261 l 171 249 l 150 228 z m 164 228 l 177 241 l 186 229 l 184 228 l 164 228 z m 173 148 l 177 173 l 206 201 l 215 189 l 173 148 z m 357 228 l 336 228 l 364 256 l 372 244 l 357 228 z m 350 276 l 358 264 l 322 228 l 302 228 l 350 276 l 336 276 l 288 228 l 267 228 l 315 276 l 302 276 l 253 228 l 233 228 l 281 276 l 267 276 l 219 228 l 198 228 l 246 276 l 236 276 l 237 281 l 187 231 l 187 228 l 205 203 l 200 209 l 180 189 l 184 214 l 191 221 l 187 228 l 191 256 l 241 306 l 244 322 l 194 272 l 198 297 l 248 347 l 251 364 l 201 314 l 199 301 l 207 348 l 205 339 l 255 389 l 258 405 l 208 355 l 212 380 l 251 419 l 259 408 l 375 408 l 350 276 z m 377 455 l 356 455 l 396 495 l 404 482 l 377 455 z m 391 455 l 410 474 l 423 455 l 418 462 l 411 455 l 391 455 z m 410 385 l 409 374 l 422 452 l 424 454 l 433 442 l 418 427 l 415 410 l 438 434 l 447 422 l 410 385 z m 400 327 l 452 379 l 455 395 l 403 343 l 400 327 z"},",":{"x_min":0,"x_max":221,"ha":221,"o":"m 105 65 l 164 124 l 150 124 l 98 72 z m 170 95 l 170 109 l 115 54 b 115 54 115 54 115 54 b 113 57 111 59 109 61 b 98 72 83 87 70 100 l 94 124 l 81 124 l 63 107 b 59 111 56 114 53 117 l 60 124 l 46 124 l 46 0 l 110 0 b 110 -37 97 -57 82 -67 l 87 -78 l 69 -96 l 72 -98 l 57 -87 l 71 -73 b 65 -76 58 -77 53 -78 l 49 -81 l 46 -78 l 46 -140 b 72 -140 94 -136 111 -126 b 131 -116 146 -100 155 -79 l 110 -124 l 111 -126 l 103 -110 l 165 -48 b 166 -43 167 -38 168 -32 l 99 -101 l 96 -96 b 87 -102 79 -104 79 -104 l 77 -102 l 92 -87 l 89 -81 l 96 -96 b 110 -88 127 -72 136 -43 l 170 -9 b 170 -5 170 -1 170 2 l 170 5 l 139 -26 l 139 -26 b 140 -20 140 -14 140 -8 b 140 -7 140 -5 140 -4 l 170 26 l 170 40 l 139 9 b 138 14 137 20 134 25 l 134 25 l 170 61 l 170 74 l 130 34 b 130 34 130 34 130 34 b 128 39 125 43 122 47 z m 88 82 l 129 124 l 115 124 l 81 89 z"},"n":{"x_min":0,"x_max":570,"ha":570,"o":"m 539 699 l 539 700 l 526 700 l 469 643 l 469 664 l 506 700 l 492 700 l 461 669 l 447 676 l 471 700 l 457 700 l 438 681 l 424 688 l 436 700 l 422 700 l 415 692 l 401 699 l 401 700 l 399 700 l 399 273 l 404 264 l 358 218 l 351 232 l 397 278 l 392 287 l 346 241 l 339 255 l 385 301 l 380 310 l 334 264 l 327 278 l 373 324 l 368 333 l 322 287 l 315 301 l 361 347 l 357 356 l 310 310 l 303 324 l 349 370 l 345 379 l 298 333 l 291 347 l 338 393 l 333 402 l 287 356 l 279 370 l 326 416 l 321 425 l 275 379 l 268 393 l 314 439 l 309 448 l 263 402 l 256 416 l 302 462 l 298 471 l 251 425 l 244 438 l 291 485 l 286 494 l 239 448 l 232 461 l 279 508 l 274 517 l 227 470 l 220 484 l 267 531 l 262 540 l 216 493 l 208 507 l 255 554 l 251 563 l 204 516 l 197 530 l 243 577 l 239 586 l 192 539 l 185 553 l 232 600 l 227 609 l 180 562 l 173 576 l 220 623 l 215 632 l 168 585 l 161 599 l 208 646 l 203 655 l 156 608 l 149 622 l 196 669 l 192 678 l 145 631 l 137 645 l 184 692 l 180 700 l 179 700 l 130 651 l 116 658 l 158 700 l 144 700 l 108 663 l 94 671 l 123 700 l 109 700 l 85 676 l 71 683 l 88 700 l 75 700 l 62 688 l 49 695 l 54 700 l 40 700 l 40 0 l 180 0 l 180 6 l 177 3 l 167 13 l 180 27 l 180 41 l 160 20 l 149 31 l 180 62 l 180 76 l 142 38 l 132 48 l 180 97 l 180 110 l 125 55 l 114 65 l 180 131 l 180 145 l 110 75 l 110 96 l 180 166 l 180 180 l 110 110 l 110 131 l 180 201 l 180 215 l 110 145 l 110 166 l 180 236 l 180 249 l 110 179 l 110 200 l 180 270 l 180 284 l 110 214 l 110 235 l 180 305 l 180 319 l 110 249 l 110 270 l 180 340 l 180 354 l 110 284 l 110 305 l 180 375 l 180 388 l 110 318 l 110 339 l 180 409 l 180 423 l 110 353 l 110 374 l 174 438 l 399 0 l 539 0 l 537 1 l 539 4 l 539 18 l 528 6 l 514 14 l 539 39 l 539 52 l 505 18 l 492 26 l 539 73 l 539 87 l 483 31 l 469 38 l 539 108 l 539 122 l 460 43 l 447 50 l 539 143 l 539 157 l 440 58 l 433 72 l 539 178 l 539 191 l 429 81 l 422 95 l 469 142 l 539 212 l 539 226 l 469 156 l 469 177 l 539 247 l 539 261 l 469 191 l 469 212 l 539 282 l 539 296 l 469 226 l 469 247 l 539 317 l 539 330 l 469 260 l 469 281 l 539 351 l 539 365 l 469 295 l 469 316 l 539 386 l 539 400 l 469 330 l 469 351 l 539 421 l 539 435 l 469 365 l 469 386 l 539 456 l 539 470 l 469 399 l 469 420 l 539 490 l 539 504 l 469 434 l 469 455 l 539 525 l 539 539 l 469 469 l 469 490 l 539 560 l 539 574 l 469 504 l 469 525 l 539 595 l 539 609 l 469 538 l 469 559 l 539 629 l 539 643 l 469 573 l 469 594 l 539 664 l 539 678 l 469 608 l 469 629 z m 110 548 l 115 553 l 122 539 l 110 527 z m 110 513 l 127 530 l 134 516 l 110 492 z m 110 478 l 139 507 l 146 493 l 110 457 z m 110 444 l 151 484 l 158 470 l 110 423 z m 110 388 l 110 409 l 162 461 l 170 447 z m 362 209 l 408 255 l 415 241 l 369 195 z m 374 186 l 420 232 l 427 218 l 381 172 z m 386 163 l 432 209 l 439 195 l 393 150 z m 398 140 l 444 186 l 451 173 l 405 127 z m 417 104 l 410 118 l 456 164 l 464 151 z"},"h":{"x_min":0,"x_max":578,"ha":578,"o":"m 539 666 l 539 679 l 468 609 l 468 630 l 538 700 l 524 700 l 462 637 l 451 648 l 504 700 l 490 700 l 444 655 l 434 665 l 469 700 l 455 700 l 427 672 l 416 682 l 434 700 l 420 700 l 409 689 l 399 700 l 399 700 l 398 700 l 398 419 l 408 410 l 353 355 l 332 355 l 397 419 l 383 419 l 318 355 l 297 355 l 362 419 l 348 419 l 284 355 l 263 355 l 327 419 l 313 419 l 249 355 l 228 355 l 292 419 l 279 419 l 214 355 l 193 355 l 258 419 l 244 419 l 179 355 l 158 355 l 223 419 l 209 419 l 145 355 l 124 355 l 188 419 l 180 419 l 180 425 l 110 355 l 110 376 l 180 446 l 180 460 l 110 390 l 110 411 l 180 481 l 180 495 l 110 424 l 110 445 l 180 516 l 180 529 l 110 459 l 110 480 l 180 550 l 180 564 l 110 494 l 110 515 l 180 585 l 180 599 l 110 529 l 110 550 l 180 620 l 180 634 l 110 563 l 110 584 l 180 655 l 180 668 l 110 598 l 110 619 l 180 689 l 180 700 l 177 700 l 109 632 l 98 642 l 156 700 l 142 700 l 91 649 l 81 660 l 121 700 l 107 700 l 74 666 l 63 677 l 86 700 l 73 700 l 56 684 l 46 694 l 52 700 l 40 700 l 40 0 l 180 0 l 180 8 l 176 4 l 165 14 l 180 29 l 180 43 l 159 21 l 148 32 l 180 64 l 180 78 l 141 38 l 130 49 l 180 98 l 180 112 l 124 56 l 124 56 l 113 66 l 180 133 l 180 147 l 110 77 l 110 98 l 180 168 l 180 182 l 110 112 l 110 133 l 180 203 l 180 217 l 110 146 l 110 167 l 180 237 l 180 251 l 110 181 l 110 202 l 180 272 l 180 286 l 110 216 l 110 237 l 171 298 l 180 290 l 398 290 l 398 0 l 539 0 l 536 3 l 539 5 l 539 19 l 529 9 l 518 20 l 539 40 l 539 54 l 512 27 l 501 37 l 539 75 l 539 88 l 494 44 l 483 54 l 539 109 l 539 123 l 477 61 l 468 69 l 468 74 l 539 144 l 539 158 l 468 88 l 468 109 l 539 179 l 539 193 l 468 123 l 468 144 l 539 214 l 539 228 l 468 157 l 468 178 l 539 248 l 539 262 l 468 192 l 468 213 l 539 283 l 539 297 l 468 227 l 468 248 l 539 318 l 539 332 l 468 262 l 468 283 l 539 353 l 539 367 l 468 296 l 468 317 l 539 387 l 539 401 l 468 331 l 468 352 l 539 422 l 539 436 l 468 366 l 468 387 l 539 457 l 539 471 l 468 401 l 468 422 l 539 492 l 539 506 l 468 435 l 468 456 l 539 527 l 539 540 l 468 470 l 468 491 l 539 561 l 539 575 l 468 505 l 468 526 l 539 596 l 539 610 l 468 540 l 468 561 l 539 631 l 539 645 l 468 574 l 468 595 l 539 666 z m 110 355 l 110 355 l 110 355 l 110 355 z m 110 341 l 117 348 l 128 338 l 110 320 l 110 341 z m 110 306 l 135 332 l 146 322 l 110 285 l 110 306 z m 110 251 l 110 272 l 153 315 l 164 305 l 110 251 z m 388 355 l 367 355 l 416 403 l 426 393 l 388 355 z m 402 355 l 434 387 l 445 377 l 423 355 l 402 355 z m 457 355 l 436 355 l 452 370 l 463 360 l 457 355 z"},"z":{"x_min":0,"x_max":501,"ha":501,"o":"m 464 700 l 452 700 l 389 637 l 368 637 l 431 700 l 417 700 l 355 637 l 334 637 l 397 700 l 383 700 l 320 637 l 300 637 l 362 700 l 349 700 l 286 637 l 265 637 l 328 700 l 314 700 l 252 637 l 231 637 l 293 700 l 280 700 l 217 637 l 196 637 l 259 700 l 245 700 l 183 637 l 162 637 l 225 700 l 211 700 l 148 637 l 128 637 l 190 700 l 177 700 l 114 637 l 104 637 l 99 643 l 156 700 l 142 700 l 92 650 l 81 660 l 121 700 l 108 700 l 74 667 l 64 677 l 87 700 l 73 700 l 57 684 l 47 694 l 53 700 l 40 700 l 40 574 l 328 574 l 40 132 l 40 0 l 464 0 l 459 6 l 464 11 l 464 24 l 452 13 l 442 23 l 464 45 l 464 59 l 436 30 l 426 41 l 464 80 l 464 93 l 419 48 l 409 59 l 464 114 l 464 128 l 403 66 l 403 66 l 382 66 l 448 132 l 435 132 l 368 66 l 348 66 l 414 132 l 400 132 l 334 66 l 313 66 l 379 132 l 366 132 l 300 66 l 279 66 l 345 132 l 331 132 l 265 66 l 244 66 l 311 132 l 297 132 l 231 66 l 210 66 l 276 132 l 263 132 l 196 66 l 176 66 l 242 132 l 228 132 l 162 66 l 141 66 l 207 132 l 194 132 l 128 66 l 107 66 l 210 169 l 234 207 l 93 66 l 77 66 l 85 79 l 270 264 l 294 302 l 107 114 l 139 167 l 331 359 l 355 396 l 161 203 l 194 256 l 391 454 l 415 491 l 215 291 l 248 345 l 451 548 l 464 568 l 464 575 l 270 380 l 302 434 l 464 595 l 464 609 l 324 469 l 357 523 l 464 630 l 464 644 l 378 558 l 411 611 l 464 664 l 464 678 l 424 637 l 403 637 l 464 699 l 464 700 z"},"B":{"x_min":0,"x_max":576,"ha":576,"o":"m 414 92 l 543 221 b 543 226 543 230 543 235 l 406 98 l 398 105 b 392 99 385 94 377 90 l 394 107 l 398 105 b 412 116 425 131 434 147 b 434 147 434 147 434 147 l 541 254 b 540 257 539 261 538 265 l 446 173 b 449 181 451 191 453 201 l 534 282 b 533 286 532 289 531 292 l 454 216 b 455 219 455 222 455 225 b 455 229 454 237 454 237 l 525 308 b 524 311 522 314 521 317 l 453 249 b 452 255 451 261 449 266 l 514 331 b 512 334 510 337 508 339 l 446 277 b 444 283 440 292 440 292 l 500 352 b 498 354 496 357 494 360 l 435 301 b 433 305 430 310 427 314 l 484 371 b 482 373 479 375 477 378 l 421 322 b 421 322 416 328 412 333 b 412 333 412 333 412 333 l 486 408 b 490 415 493 423 496 431 l 405 340 b 402 342 399 345 396 347 b 395 348 394 349 393 349 l 504 460 b 505 465 505 471 506 476 l 385 355 b 381 358 376 361 372 363 l 507 498 b 507 498 507 498 507 498 b 507 503 507 507 507 512 l 362 367 b 363 367 363 367 363 367 b 358 369 353 371 347 373 l 388 414 l 391 411 b 398 418 403 426 408 434 l 505 530 b 504 534 503 538 502 542 l 419 459 b 422 467 424 476 425 486 b 425 486 425 486 425 485 l 498 559 b 497 562 496 566 495 569 l 426 500 b 426 501 426 502 426 503 b 426 509 426 515 425 520 l 489 584 b 487 587 486 590 484 593 l 423 532 b 423 532 423 532 423 532 b 422 538 420 543 419 549 l 476 606 b 475 609 473 612 471 615 l 415 559 b 413 564 411 568 408 573 l 462 627 b 460 629 458 632 456 634 l 403 582 b 400 586 397 590 394 594 l 445 645 b 443 647 441 649 438 651 l 388 601 b 384 605 381 608 377 611 l 427 661 b 426 661 425 662 424 663 b 422 664 420 665 419 667 l 369 618 b 370 617 362 623 357 626 l 357 626 l 406 675 b 403 676 400 678 397 679 l 347 630 b 342 632 337 634 331 635 l 331 635 l 382 686 b 379 687 375 689 372 690 l 320 638 b 314 639 308 640 301 640 l 301 640 l 356 694 b 352 695 348 696 344 697 l 288 640 b 288 640 287 640 287 640 l 267 640 l 326 699 b 322 700 317 700 313 700 l 253 640 l 232 640 l 292 700 l 278 700 l 219 640 l 198 640 l 257 700 l 243 700 l 184 640 l 163 640 l 222 700 l 209 700 l 149 640 l 128 640 l 188 700 l 174 700 l 114 640 l 104 640 l 109 635 l 104 631 l 104 640 l 99 646 l 153 700 l 139 700 l 91 652 l 81 662 l 118 700 l 104 700 l 73 669 l 63 679 l 83 700 l 70 700 l 55 686 l 44 696 l 49 700 l 40 700 l 40 0 l 328 0 b 380 0 428 19 465 50 b 478 62 490 74 500 88 l 464 52 l 452 61 l 527 136 b 530 143 532 150 534 157 l 445 67 l 433 77 l 540 184 b 541 189 542 194 542 199 l 425 83 l 414 92 z m 408 434 l 408 434 b 408 434 408 434 408 434 b 408 434 408 434 408 434 b 408 434 408 434 408 434 z m 370 364 b 370 364 370 364 370 364 b 370 364 370 364 370 364 l 370 364 z m 381 421 l 336 376 b 330 377 324 378 318 379 l 371 431 l 381 421 z m 364 438 l 305 380 b 305 380 304 380 304 380 l 284 380 l 354 449 l 364 438 z m 104 617 l 116 628 l 126 618 l 104 596 l 104 617 z m 104 582 l 133 611 l 144 600 l 104 561 l 104 582 z m 104 547 l 150 593 l 161 583 l 104 526 l 104 547 z m 104 408 l 169 473 l 169 487 l 104 422 l 104 443 l 169 508 l 169 521 l 104 457 l 104 478 l 169 542 l 169 556 l 104 492 l 104 513 l 168 576 l 169 574 l 290 574 b 300 574 310 572 319 568 l 319 568 b 343 556 359 532 359 503 b 359 503 360 478 343 459 l 347 456 l 270 380 l 250 380 l 311 441 b 307 440 301 440 295 439 l 236 380 l 215 380 l 274 439 l 261 439 l 201 380 l 180 380 l 240 439 l 226 439 l 166 380 l 145 380 l 205 439 l 191 439 l 131 380 l 110 380 l 170 439 b 169 439 169 439 169 439 l 169 452 l 104 387 l 104 408 z m 104 374 l 107 376 l 117 365 l 104 353 l 104 374 z m 104 339 l 123 357 l 133 346 l 104 318 l 104 339 z m 104 304 l 139 338 l 148 327 l 104 283 l 104 304 z m 104 269 l 155 319 l 164 308 l 104 248 l 104 269 z m 253 71 l 337 154 l 336 154 b 331 152 324 150 318 149 l 240 71 l 219 71 l 296 148 l 282 148 l 205 71 l 184 71 l 261 148 l 247 148 l 170 71 l 149 71 l 226 148 l 212 148 l 135 71 l 114 71 l 192 148 l 178 148 l 104 75 l 104 96 l 169 160 l 169 174 l 104 109 l 104 130 l 169 195 l 169 209 l 104 144 l 104 165 l 169 229 l 169 243 l 104 179 l 104 200 l 169 264 l 169 278 l 104 214 l 104 235 l 169 299 l 169 302 l 306 302 b 318 302 329 300 338 295 b 364 283 382 256 382 225 b 382 193 363 166 336 154 l 348 145 l 274 71 l 253 71 z m 304 71 l 288 71 l 356 138 l 368 129 l 309 71 b 307 71 305 71 304 71 z m 324 72 l 375 123 l 387 114 l 352 79 b 343 76 334 73 324 72 z"},"K":{"x_min":0,"x_max":550,"ha":550,"o":"m 388 700 l 360 663 l 397 700 l 388 700 z m 418 700 l 298 580 l 257 525 l 432 700 l 418 700 z m 534 3 l 529 12 l 524 7 l 511 14 l 522 25 l 517 34 l 502 19 l 489 27 l 510 48 l 505 57 l 480 32 l 466 39 l 497 70 l 493 79 l 458 44 l 444 52 l 485 93 l 480 102 l 435 57 l 434 58 l 427 70 l 473 116 l 468 124 l 422 79 l 415 92 l 461 138 l 456 147 l 410 101 l 403 115 l 449 161 l 444 170 l 398 124 l 391 137 l 436 183 l 431 192 l 386 146 l 378 160 l 424 206 l 419 215 l 373 169 l 366 182 l 412 228 l 407 237 l 361 191 l 354 205 l 400 251 l 395 260 l 349 214 l 342 227 l 387 273 l 383 282 l 337 236 l 329 250 l 375 296 l 370 305 l 324 259 l 317 272 l 363 318 l 358 327 l 312 281 l 305 295 l 351 341 l 346 350 l 300 304 l 293 317 l 338 363 l 334 372 l 288 326 l 280 340 l 326 386 l 321 395 l 276 349 l 268 362 l 311 405 l 316 405 l 536 700 l 522 700 l 511 688 l 471 670 l 501 700 l 488 700 l 446 658 l 424 648 l 390 602 l 110 322 l 110 343 l 467 700 l 453 700 l 110 357 l 110 378 l 180 448 l 180 462 l 110 392 l 110 413 l 180 483 l 180 496 l 110 426 l 110 447 l 180 517 l 180 531 l 110 461 l 110 482 l 180 552 l 180 566 l 110 496 l 110 517 l 180 587 l 180 601 l 110 531 l 110 552 l 180 622 l 180 635 l 110 565 l 110 586 l 180 656 l 180 670 l 110 600 l 110 621 l 180 691 l 180 700 l 175 700 l 108 633 l 97 643 l 154 700 l 140 700 l 90 650 l 80 660 l 119 700 l 105 700 l 73 667 l 62 678 l 84 700 l 71 700 l 55 685 l 45 695 l 50 700 l 40 700 l 40 0 l 180 0 l 180 10 l 175 5 l 164 15 l 180 31 l 180 45 l 157 22 l 147 33 l 180 66 l 180 79 l 140 39 l 129 50 l 180 100 l 180 114 l 122 57 l 112 67 l 180 135 l 180 149 l 110 79 l 110 100 l 180 170 l 180 184 l 110 114 l 110 134 l 180 205 l 180 218 l 110 148 l 110 169 l 164 224 l 180 223 l 234 295 l 234 295 l 394 0 l 536 0 l 533 2 l 534 3 z m 110 69 l 109 68 l 110 69 l 110 69 z m 110 308 l 349 548 l 288 465 l 110 287 l 110 308 z m 110 239 l 145 274 l 110 227 l 110 239 z m 110 227 l 118 226 l 110 218 l 110 227 z m 110 183 l 110 204 l 131 226 l 151 225 l 110 183 z m 185 328 l 110 253 l 110 273 l 247 411 l 185 328 z m 244 407 l 244 407 l 263 406 l 251 394 l 244 407 z m 256 385 l 277 406 l 297 406 l 263 371 l 256 385 z"},"R":{"x_min":0,"x_max":599,"ha":599,"o":"m 556 201 l 556 208 b 556 210 556 212 556 215 l 476 135 l 476 156 l 554 234 b 553 238 553 242 552 245 l 476 169 l 476 190 l 547 261 b 546 265 544 268 543 271 l 476 204 l 476 212 b 476 216 475 220 475 224 b 475 224 475 224 475 224 l 536 285 b 534 288 532 291 531 293 l 472 235 b 471 240 469 246 467 251 l 522 305 b 519 308 517 310 515 313 l 462 260 b 459 266 456 272 452 278 b 453 276 454 275 455 273 l 504 323 b 502 325 499 327 497 329 l 449 281 b 446 285 443 289 440 293 l 484 338 b 481 340 478 341 476 343 l 433 300 b 433 300 433 300 433 300 b 430 304 426 307 423 311 l 532 420 b 537 428 541 437 544 446 l 415 317 b 415 317 415 317 415 317 b 411 320 407 323 403 326 l 552 475 b 553 480 554 486 555 491 l 395 331 b 390 334 386 336 381 338 l 556 513 b 556 518 556 522 555 526 l 440 411 l 440 411 b 452 425 462 441 469 460 l 469 460 l 553 545 b 552 549 552 553 551 556 l 473 479 b 475 486 475 494 476 502 l 546 573 b 545 576 544 580 543 583 l 475 516 b 475 515 475 515 475 514 b 475 521 474 528 473 534 l 536 597 b 535 601 533 604 532 607 l 471 546 b 471 546 471 546 471 546 b 469 551 467 556 465 561 l 465 561 l 524 620 b 522 622 520 625 518 628 l 461 571 b 461 571 461 571 461 571 b 459 575 456 580 453 584 b 453 584 453 584 453 584 l 509 639 b 507 642 504 644 502 646 l 447 591 b 444 595 440 599 437 602 l 492 657 b 489 659 487 661 484 663 l 429 608 b 426 611 423 613 420 615 b 419 615 418 616 417 617 l 472 672 b 469 674 466 676 464 677 l 408 621 b 403 624 398 626 393 628 l 450 685 b 447 686 444 688 441 689 l 383 631 b 377 633 371 634 366 635 b 366 635 366 635 366 635 l 425 695 b 422 696 418 697 415 698 l 354 637 b 349 638 345 638 342 638 l 334 638 l 397 701 b 393 702 389 702 385 702 l 320 638 l 300 638 l 364 703 l 351 703 l 286 638 l 265 638 l 330 703 l 316 703 l 251 638 l 230 638 l 295 703 l 281 703 l 217 638 l 196 638 l 260 703 l 247 703 l 182 638 l 161 638 l 226 703 l 212 703 l 147 638 l 126 638 l 191 703 l 177 703 l 113 638 b 111 638 110 638 110 638 l 110 638 l 100 647 l 156 703 l 143 703 l 93 654 l 82 664 l 122 703 l 108 703 l 75 670 l 64 680 l 87 703 l 73 703 l 57 687 l 46 697 l 52 703 b 45 703 40 703 40 703 l 40 0 l 180 0 l 180 12 l 173 6 l 162 15 l 180 33 l 180 47 l 155 22 l 144 32 l 144 32 l 180 68 l 180 82 l 137 38 l 125 48 l 180 102 l 180 116 l 118 54 l 110 62 l 110 67 l 180 137 l 180 151 l 110 81 l 110 102 l 180 172 l 180 186 l 110 116 l 110 136 l 180 206 l 180 220 l 110 150 l 110 171 l 180 241 l 180 255 l 110 185 l 110 206 l 180 276 l 180 277 b 180 277 263 277 317 277 b 348 277 375 261 393 235 b 405 216 413 191 413 163 l 413 0 l 556 0 b 556 0 556 2 556 7 l 552 3 l 540 12 l 556 28 l 556 42 l 532 17 l 519 26 l 556 63 l 556 76 l 511 32 l 499 40 l 556 97 l 556 111 l 491 46 l 479 55 l 556 132 l 556 146 l 476 65 l 476 86 l 556 166 l 556 180 l 476 100 l 476 121 l 556 201 z m 110 622 l 118 630 l 118 630 l 129 620 l 110 601 l 110 622 z m 110 587 l 136 613 l 146 603 l 110 566 l 110 587 z m 110 552 l 153 596 l 164 586 l 110 532 l 110 552 z m 110 518 l 171 579 l 182 568 l 110 497 l 110 518 z m 110 344 l 112 346 l 122 336 l 110 324 l 110 344 z m 110 310 l 129 329 l 139 318 l 110 289 l 110 310 z m 110 275 l 146 311 l 157 301 l 110 254 l 110 275 z m 110 220 l 110 240 l 163 294 l 174 283 l 110 220 z m 308 348 l 287 348 l 353 414 b 348 413 343 412 337 412 l 273 348 l 252 348 l 316 412 l 302 412 l 238 348 l 217 348 l 281 412 l 268 412 l 204 348 l 183 348 l 247 412 l 233 412 l 169 348 l 148 348 l 212 412 l 198 412 l 134 348 l 113 348 l 186 420 l 186 434 l 110 358 l 110 379 l 186 455 l 186 469 l 110 393 l 110 414 l 186 490 l 186 503 l 110 428 l 110 448 l 186 524 l 186 538 l 110 462 l 110 483 l 186 559 l 186 564 b 186 564 258 564 333 564 b 345 564 356 562 365 558 b 417 535 419 455 374 424 l 379 420 l 308 348 z m 341 348 l 321 348 l 387 413 l 398 404 l 342 348 b 342 348 341 348 341 348 z m 371 342 b 366 344 360 346 355 347 b 355 347 355 347 355 347 l 406 398 l 417 388 b 418 390 420 391 422 393 l 371 342 z"},"T":{"x_min":0,"x_max":577,"ha":577,"o":"m 566 700 l 560 700 l 497 636 l 476 636 l 540 700 l 526 700 l 462 636 l 442 636 l 505 700 l 491 700 l 428 636 l 407 636 l 471 700 l 457 700 l 393 636 l 373 636 l 436 700 l 423 700 l 359 636 l 338 636 l 402 700 l 388 700 l 324 636 l 304 636 l 367 700 l 354 700 l 290 636 l 269 636 l 333 700 l 319 700 l 256 636 l 235 636 l 298 700 l 285 700 l 221 636 l 200 636 l 264 700 l 250 700 l 187 636 l 166 636 l 229 700 l 216 700 l 152 636 l 131 636 l 195 700 l 181 700 l 118 636 l 97 636 l 161 700 l 147 700 l 83 636 l 74 636 l 68 642 l 126 700 l 112 700 l 61 649 l 51 659 l 92 700 l 78 700 l 44 666 l 33 676 l 57 700 l 43 700 l 27 683 l 16 693 l 23 700 l 10 700 l 10 573 l 210 573 l 210 0 l 365 0 l 361 4 l 365 9 l 365 22 l 354 11 l 344 21 l 365 43 l 365 57 l 337 28 l 326 39 l 365 78 l 365 91 l 319 45 l 309 56 l 365 112 l 365 126 l 302 62 l 292 73 l 365 146 l 365 160 l 288 83 l 288 104 l 365 181 l 365 195 l 288 117 l 288 138 l 365 215 l 365 229 l 288 152 l 288 172 l 365 250 l 365 264 l 288 186 l 288 207 l 365 284 l 365 298 l 288 221 l 288 241 l 365 319 l 365 333 l 288 255 l 288 276 l 365 353 l 365 367 l 288 290 l 288 310 l 365 388 l 365 401 l 288 324 l 288 345 l 365 422 l 365 436 l 288 359 l 288 379 l 365 457 l 365 470 l 288 393 l 288 414 l 365 491 l 365 505 l 288 427 l 288 448 l 365 526 l 365 539 l 288 462 l 288 483 l 365 560 l 365 573 l 365 573 l 288 496 l 288 517 l 353 583 l 365 573 l 566 573 l 558 581 l 566 589 l 566 602 l 551 588 l 541 598 l 566 623 l 566 637 l 534 605 l 524 615 l 566 658 l 566 671 l 517 622 l 506 632 l 566 692 l 566 700 z m 288 621 l 297 629 l 308 620 l 288 600 l 288 621 z m 288 586 l 315 614 l 327 604 l 288 565 l 288 586 z m 288 531 l 288 552 l 334 598 l 346 589 l 288 531 z"},"P":{"x_min":0,"x_max":568,"ha":568,"o":"m 538 478 l 411 352 l 400 361 l 537 498 b 537 502 536 506 536 510 l 424 399 b 432 411 439 424 443 438 l 533 528 b 532 532 531 535 530 539 l 448 457 b 449 464 450 472 450 480 l 525 555 b 524 558 523 562 522 565 l 450 494 b 450 500 449 506 448 512 l 515 579 b 514 582 512 585 510 588 l 446 524 b 445 529 443 534 441 540 b 441 540 441 540 441 540 l 503 601 b 501 604 499 607 497 609 l 437 549 b 435 554 433 559 430 563 b 430 563 430 563 430 563 l 488 621 b 486 624 484 626 482 629 l 425 572 b 422 576 420 580 417 584 b 417 584 417 584 417 584 l 472 639 b 470 641 467 644 465 646 l 410 591 b 410 591 410 591 410 591 b 407 595 403 598 400 602 l 400 602 l 454 655 b 452 657 450 658 448 659 b 448 660 447 661 446 661 l 393 608 b 393 608 393 608 393 608 b 393 608 392 608 392 608 b 389 611 385 614 381 617 b 381 617 381 617 381 617 l 433 669 b 431 671 428 673 425 674 l 372 622 l 372 622 b 368 624 363 627 358 629 l 411 681 b 408 683 405 684 401 685 l 348 632 b 343 634 338 636 332 637 l 386 691 b 382 692 379 693 375 694 l 321 639 l 321 639 b 314 640 308 640 301 640 l 358 697 b 354 698 350 698 346 699 l 288 640 l 267 640 l 326 700 b 326 700 326 700 325 700 l 313 700 l 253 640 l 232 640 l 292 700 l 278 700 l 219 640 l 198 640 l 258 700 l 244 700 l 184 640 l 164 640 l 223 700 l 209 700 l 150 640 l 129 640 l 189 700 l 175 700 l 116 640 l 104 640 l 109 634 l 104 629 l 104 640 l 99 645 l 154 700 l 141 700 l 92 651 l 81 661 l 120 700 l 106 700 l 74 668 l 64 678 l 86 700 l 72 700 l 57 685 l 46 695 l 51 700 l 40 700 l 40 0 l 168 0 l 168 5 l 165 2 l 154 12 l 168 25 l 168 39 l 147 19 l 137 29 l 168 60 l 168 73 l 130 35 l 119 45 l 168 94 l 168 108 l 112 52 l 104 60 l 104 65 l 168 128 l 168 142 l 104 78 l 104 99 l 168 163 l 168 176 l 104 113 l 104 133 l 168 197 l 168 211 l 104 147 l 104 168 l 168 232 l 168 245 l 104 182 l 104 202 l 165 264 l 168 261 l 325 261 b 377 261 424 280 461 311 l 457 315 l 504 362 b 510 371 515 381 519 391 l 449 321 l 438 330 l 530 423 b 532 428 533 434 534 440 l 430 336 l 419 345 l 537 464 b 538 468 538 473 538 478 z m 104 615 l 115 626 l 125 615 l 104 594 l 104 615 z m 104 581 l 131 608 l 140 596 l 104 560 l 104 581 z m 104 546 l 146 589 l 156 577 l 104 525 l 104 546 z m 104 305 l 116 318 l 126 307 l 104 285 l 104 305 z m 104 271 l 132 300 l 142 289 l 104 250 l 104 271 z m 104 216 l 104 237 l 149 282 l 159 271 l 104 216 z m 233 331 l 311 409 b 308 409 306 409 303 409 l 297 409 l 219 331 l 199 331 l 276 409 l 262 409 l 185 331 l 164 331 l 241 409 l 228 409 l 150 331 l 130 331 l 207 409 l 193 409 l 116 331 l 104 331 l 110 325 l 104 319 l 104 340 l 173 409 l 168 409 l 168 417 l 104 353 l 104 374 l 168 438 l 168 452 l 104 388 l 104 409 l 168 472 l 168 486 l 104 422 l 104 443 l 168 507 l 168 520 l 104 457 l 104 477 l 168 541 l 168 555 l 104 491 l 104 512 l 162 570 l 168 563 l 303 563 b 315 563 326 560 335 556 b 361 543 378 517 378 486 b 378 454 360 427 333 415 l 336 413 l 254 331 l 233 331 z m 267 331 l 343 407 l 354 398 l 288 331 l 267 331 z m 324 333 b 317 332 309 331 302 331 l 362 392 l 373 382 l 324 333 z m 381 356 b 369 348 356 342 342 337 l 381 376 l 392 367 l 381 356 z"},"|":{"x_min":0,"x_max":353,"ha":353,"o":"m 241 795 l 241 801 l 234 801 l 184 751 l 174 762 l 213 801 l 200 801 l 167 769 l 157 779 l 179 801 l 165 801 l 150 786 l 139 796 l 144 801 l 135 801 l 135 -101 l 241 -101 l 241 -89 l 235 -95 l 225 -85 l 241 -68 l 241 -54 l 218 -78 l 208 -67 l 241 -34 l 241 -20 l 201 -61 l 190 -50 l 241 1 l 241 15 l 188 -39 l 188 -18 l 241 35 l 241 49 l 188 -4 l 188 17 l 241 70 l 241 84 l 188 30 l 188 51 l 241 104 l 241 118 l 188 65 l 188 86 l 241 139 l 241 153 l 188 99 l 188 120 l 241 173 l 241 187 l 188 134 l 188 155 l 241 208 l 241 222 l 188 169 l 188 189 l 241 243 l 241 256 l 188 203 l 188 224 l 241 277 l 241 291 l 188 238 l 188 258 l 241 312 l 241 325 l 188 272 l 188 293 l 241 346 l 241 360 l 188 307 l 188 327 l 241 381 l 241 394 l 188 341 l 188 362 l 241 415 l 241 429 l 188 376 l 188 396 l 241 450 l 241 463 l 188 410 l 188 431 l 241 484 l 241 498 l 188 445 l 188 465 l 241 519 l 241 532 l 188 479 l 188 500 l 241 553 l 241 567 l 188 514 l 188 534 l 241 588 l 241 601 l 188 548 l 188 569 l 241 622 l 241 636 l 188 583 l 188 603 l 241 657 l 241 670 l 188 617 l 188 638 l 241 691 l 241 705 l 188 652 l 188 673 l 241 726 l 241 739 l 188 686 l 188 707 l 241 760 l 241 774 l 188 721 l 188 742 l 241 795 z"},"t":{"x_min":0,"x_max":577,"ha":577,"o":"m 566 700 l 560 700 l 497 636 l 476 636 l 540 700 l 526 700 l 462 636 l 442 636 l 505 700 l 491 700 l 428 636 l 407 636 l 471 700 l 457 700 l 393 636 l 373 636 l 436 700 l 423 700 l 359 636 l 338 636 l 402 700 l 388 700 l 324 636 l 304 636 l 367 700 l 354 700 l 290 636 l 269 636 l 333 700 l 319 700 l 256 636 l 235 636 l 298 700 l 285 700 l 221 636 l 200 636 l 264 700 l 250 700 l 187 636 l 166 636 l 229 700 l 216 700 l 152 636 l 131 636 l 195 700 l 181 700 l 118 636 l 97 636 l 161 700 l 147 700 l 83 636 l 74 636 l 68 642 l 126 700 l 112 700 l 61 649 l 51 659 l 92 700 l 78 700 l 44 666 l 33 676 l 57 700 l 43 700 l 27 683 l 16 693 l 23 700 l 10 700 l 10 573 l 210 573 l 210 0 l 365 0 l 361 4 l 365 9 l 365 22 l 354 11 l 344 21 l 365 43 l 365 57 l 337 28 l 326 39 l 365 78 l 365 91 l 319 45 l 309 56 l 365 112 l 365 126 l 302 62 l 292 73 l 365 146 l 365 160 l 288 83 l 288 104 l 365 181 l 365 195 l 288 117 l 288 138 l 365 215 l 365 229 l 288 152 l 288 172 l 365 250 l 365 264 l 288 186 l 288 207 l 365 284 l 365 298 l 288 221 l 288 241 l 365 319 l 365 333 l 288 255 l 288 276 l 365 353 l 365 367 l 288 290 l 288 310 l 365 388 l 365 401 l 288 324 l 288 345 l 365 422 l 365 436 l 288 359 l 288 379 l 365 457 l 365 470 l 288 393 l 288 414 l 365 491 l 365 505 l 288 427 l 288 448 l 365 526 l 365 539 l 288 462 l 288 483 l 365 560 l 365 573 l 365 573 l 288 496 l 288 517 l 353 583 l 365 573 l 566 573 l 558 581 l 566 589 l 566 602 l 551 588 l 541 598 l 566 623 l 566 637 l 534 605 l 524 615 l 566 658 l 566 671 l 517 622 l 506 632 l 566 692 l 566 700 z m 288 621 l 297 629 l 308 620 l 288 600 l 288 621 z m 288 586 l 315 614 l 327 604 l 288 565 l 288 586 z m 288 531 l 288 552 l 334 598 l 346 589 l 288 531 z"},"M":{"x_min":0,"x_max":602,"ha":602,"o":"m 565 692 l 565 700 l 559 700 l 466 608 l 484 646 l 538 700 l 524 700 l 493 670 l 479 676 l 503 700 l 489 700 l 469 680 l 455 687 l 468 700 l 454 700 l 445 691 l 431 697 l 433 700 l 425 700 l 302 412 l 302 409 l 253 359 l 246 374 l 297 425 l 293 434 l 242 383 l 235 397 l 287 449 l 283 459 l 231 407 l 224 421 l 276 473 l 272 483 l 220 430 l 213 445 l 266 498 l 262 508 l 209 454 l 202 468 l 256 522 l 252 532 l 197 478 l 191 492 l 245 547 l 241 556 l 186 502 l 180 516 l 235 571 l 231 581 l 175 525 l 169 540 l 225 596 l 221 605 l 164 549 l 158 563 l 214 620 l 210 630 l 153 573 l 147 587 l 204 644 l 200 654 l 142 596 l 136 611 l 194 669 l 190 678 l 131 620 l 125 635 l 183 693 l 180 700 l 176 700 l 120 644 l 114 658 l 155 700 l 141 700 l 108 666 l 94 673 l 121 700 l 107 700 l 85 678 l 71 685 l 86 700 l 72 700 l 61 689 l 47 696 l 51 700 l 40 700 l 40 0 l 180 0 l 180 9 l 176 4 l 165 15 l 180 30 l 180 44 l 158 22 l 148 32 l 180 65 l 180 78 l 141 39 l 130 49 l 180 99 l 180 113 l 123 56 l 113 67 l 180 134 l 180 148 l 110 78 l 110 99 l 180 169 l 180 183 l 110 113 l 110 134 l 180 204 l 180 218 l 110 147 l 110 168 l 180 238 l 180 252 l 110 182 l 110 203 l 180 273 l 180 287 l 110 217 l 110 238 l 180 308 l 180 322 l 110 252 l 110 273 l 180 343 l 180 357 l 110 286 l 110 307 l 175 372 l 239 218 l 366 218 l 374 237 l 358 222 l 345 229 l 389 273 l 399 297 l 336 234 l 322 241 l 414 333 l 424 356 l 314 246 l 303 252 l 306 260 l 439 392 l 424 358 l 424 356 l 424 0 l 565 0 l 565 11 l 559 5 l 549 16 l 565 32 l 565 46 l 542 23 l 531 33 l 565 67 l 565 80 l 524 40 l 514 50 l 565 101 l 565 115 l 507 57 l 496 68 l 565 136 l 565 150 l 495 80 l 495 101 l 565 171 l 565 185 l 495 115 l 495 136 l 565 206 l 565 219 l 495 149 l 495 170 l 565 240 l 565 254 l 495 184 l 495 205 l 565 275 l 565 289 l 495 219 l 495 240 l 565 310 l 565 324 l 495 254 l 495 275 l 565 345 l 565 358 l 495 288 l 495 309 l 565 379 l 565 393 l 495 323 l 495 344 l 565 414 l 565 428 l 495 358 l 495 379 l 565 449 l 565 463 l 495 393 l 495 414 l 565 484 l 565 498 l 495 427 l 495 448 l 565 518 l 565 532 l 495 462 l 495 483 l 565 553 l 565 567 l 495 497 l 495 518 l 565 588 l 565 602 l 377 414 l 395 453 l 565 623 l 565 637 l 407 479 l 425 518 l 565 657 l 565 671 l 436 543 l 454 582 z m 110 516 l 114 519 l 120 504 l 110 495 z m 110 481 l 124 495 l 130 480 l 110 460 z m 110 446 l 134 470 l 140 455 l 110 425 z m 110 412 l 144 446 l 150 431 l 110 391 z m 110 377 l 154 421 l 161 406 l 110 356 z m 110 321 l 110 342 l 165 397 l 171 382 z m 303 270 l 302 270 l 297 264 l 290 279 l 303 291 z m 303 305 l 286 288 l 279 302 l 303 326 z m 303 340 l 275 312 l 268 326 l 303 361 z m 264 336 l 257 350 l 302 395 l 303 374 z m 448 416 l 318 285 l 336 324 l 463 452 z m 488 512 l 473 476 l 347 350 l 365 389 z m 424 699 l 425 700 l 424 700 z"},"g":{"x_min":0,"x_max":572,"ha":572,"o":"m 535 414 l 535 420 l 528 420 l 458 351 l 437 351 l 506 420 l 493 420 l 423 351 l 402 351 l 472 420 l 458 420 l 388 351 l 367 351 l 437 420 l 423 420 l 353 351 l 353 351 l 343 361 l 402 420 l 388 420 l 336 368 l 326 379 l 367 420 l 353 420 l 319 386 l 309 397 l 332 420 l 318 420 l 302 404 l 292 415 l 297 420 l 288 420 l 288 281 l 387 281 l 387 225 b 387 214 385 203 381 193 b 381 192 380 190 380 189 l 383 192 l 398 186 l 275 63 b 269 64 263 65 257 66 l 324 133 b 318 131 311 129 305 127 l 245 68 b 240 70 234 71 229 73 l 282 126 b 278 126 274 127 270 128 l 219 77 b 214 79 210 82 205 84 l 253 132 b 250 133 247 135 244 136 l 196 89 b 192 92 188 95 184 98 l 230 144 b 228 146 225 148 223 150 l 176 104 b 172 107 169 110 165 114 l 212 161 b 210 163 208 166 206 169 l 159 121 b 155 125 152 129 149 133 l 198 182 b 197 185 196 188 194 192 l 144 141 b 141 145 138 150 136 154 l 190 208 b 189 212 189 217 189 221 l 131 163 b 131 163 131 164 131 164 b 129 168 127 173 125 178 l 188 242 l 188 255 l 122 189 b 120 194 119 200 118 206 l 188 277 l 188 290 l 116 218 b 116 224 115 229 115 235 l 115 238 l 188 311 l 188 325 l 115 252 l 115 273 l 188 346 l 188 360 l 115 287 l 115 308 l 188 381 l 188 395 l 115 322 l 115 343 l 188 416 l 188 430 l 115 357 l 115 378 l 188 451 l 188 465 l 115 392 l 115 413 l 190 487 b 190 493 192 499 194 505 l 115 427 l 115 448 l 180 512 l 194 506 b 208 544 244 572 288 572 b 331 572 367 544 381 506 l 445 536 l 451 539 l 498 587 b 497 589 495 592 493 595 l 441 543 b 439 548 436 552 434 557 l 484 607 b 482 610 480 613 478 615 l 428 565 b 428 565 428 565 428 565 b 425 569 422 573 419 577 l 468 626 b 466 629 464 631 462 633 l 412 584 b 412 584 412 584 412 584 b 409 588 405 591 402 595 l 402 595 l 451 643 b 448 646 446 648 443 650 l 394 601 b 394 601 394 601 394 601 b 390 604 386 607 382 610 l 431 659 b 428 661 426 663 423 665 l 373 615 b 374 614 365 620 359 622 l 410 673 b 407 674 404 676 401 677 l 350 626 b 345 628 339 630 334 631 l 387 684 b 383 686 380 687 377 688 l 323 634 l 323 634 b 317 635 311 636 305 637 l 361 694 b 358 695 354 696 351 697 l 292 638 b 290 638 289 638 288 638 b 281 638 275 637 270 637 l 270 637 l 333 701 b 329 701 326 702 322 703 l 253 634 l 253 634 b 243 632 233 629 223 625 l 302 705 b 298 705 293 705 289 705 l 195 611 b 195 611 195 611 195 611 b 174 597 156 580 143 559 b 143 559 143 559 143 559 l 123 539 l 109 546 l 267 704 b 262 704 257 703 251 702 l 100 551 l 85 557 l 225 697 b 218 695 212 693 205 691 l 76 562 l 66 567 b 49 534 40 497 40 458 l 40 242 b 40 203 49 166 66 133 b 106 51 190 -5 288 -5 b 385 -5 469 51 509 133 l 502 136 l 518 152 b 521 159 523 166 525 174 l 492 141 l 478 148 l 531 201 b 532 206 533 211 533 217 l 469 152 l 454 159 l 535 239 b 535 240 535 241 535 242 l 535 253 l 445 163 l 444 164 b 444 163 443 162 443 161 l 361 80 b 351 75 340 71 329 68 l 431 170 l 444 164 b 449 173 452 183 455 194 l 535 274 l 535 288 l 458 211 b 458 211 458 211 458 211 b 459 219 460 234 460 234 l 535 309 l 535 323 l 460 248 l 460 269 l 535 344 l 535 358 l 460 283 l 460 304 l 535 379 l 535 393 l 460 318 l 460 339 l 535 414 z m 128 530 l 133 535 l 147 528 l 119 500 b 121 510 124 520 128 530 z m 115 466 b 115 472 116 478 116 484 l 156 524 l 171 517 l 115 462 l 115 466 z m 312 65 b 304 64 297 63 289 63 l 407 181 l 421 174 l 312 65 z m 510 567 b 508 569 507 571 506 573 l 491 558 l 510 567 z m 72 579 l 167 673 b 127 651 94 618 72 579 z"},"j":{"x_min":0,"x_max":520,"ha":520,"o":"m 480 698 l 480 700 l 468 700 l 402 633 l 391 644 l 447 700 l 433 700 l 384 650 l 373 661 l 412 700 l 398 700 l 366 668 l 355 678 l 377 700 l 363 700 l 348 685 l 337 695 l 342 700 l 332 700 l 332 226 b 332 215 330 204 326 194 l 341 187 l 217 64 b 211 64 205 65 199 66 l 264 132 b 258 130 252 128 246 127 l 187 69 b 182 71 177 72 171 74 l 224 127 b 220 127 216 128 212 129 l 161 78 b 157 80 152 83 148 85 l 196 133 b 192 135 189 136 186 138 l 139 91 b 135 93 130 96 126 99 l 173 146 b 170 148 168 150 165 152 l 119 106 b 115 109 111 112 108 116 l 155 163 b 153 166 151 168 149 171 l 101 123 b 101 123 102 123 99 126 l 84 127 l 142 185 b 140 188 139 191 138 194 l 137 193 l 72 128 l 52 130 l 97 174 l 70 162 l 39 131 l 20 133 l 30 143 l 10 133 b 50 51 134 -5 232 -5 b 330 -5 414 51 455 133 l 445 138 l 465 158 b 468 165 470 171 472 178 l 436 142 l 421 149 l 477 205 b 478 210 479 216 479 221 l 412 154 l 397 160 l 480 243 l 480 257 l 391 167 b 391 167 391 167 391 167 b 395 179 401 199 401 199 l 480 278 l 480 292 l 404 215 b 404 222 405 229 405 236 l 405 238 l 480 313 l 480 327 l 405 252 l 405 273 l 480 348 l 480 362 l 405 287 l 405 308 l 480 383 l 480 397 l 405 322 l 405 343 l 480 418 l 480 432 l 405 357 l 405 378 l 480 453 l 480 467 l 405 392 l 405 413 l 480 488 l 480 502 l 405 427 l 405 448 l 480 523 l 480 537 l 405 462 l 405 483 l 480 558 l 480 572 l 405 497 l 405 518 l 480 593 l 480 607 l 405 532 l 405 553 l 480 628 l 480 642 l 405 567 l 405 588 l 480 663 l 480 677 l 405 602 l 405 623 l 480 698 z m 232 63 b 231 63 231 63 230 63 l 350 183 l 364 176 l 253 64 b 251 64 240 63 232 63 z m 333 96 l 372 135 b 361 120 348 107 333 96 z m 301 77 b 291 73 280 70 269 67 l 374 172 l 388 165 l 301 77 z"},"i":{"x_min":0,"x_max":220,"ha":220,"o":"m 180 692 l 180 700 l 174 700 l 107 633 l 97 644 l 153 700 l 139 700 l 90 651 l 79 661 l 118 700 l 105 700 l 72 668 l 62 678 l 84 700 l 70 700 l 55 685 l 44 695 l 49 700 l 40 700 l 40 0 l 180 0 l 180 11 l 175 5 l 164 16 l 180 32 l 180 46 l 157 23 l 147 33 l 180 67 l 180 80 l 140 40 l 129 50 l 180 101 l 180 115 l 122 57 l 112 68 l 180 136 l 180 150 l 110 80 l 110 101 l 180 171 l 180 185 l 110 115 l 110 135 l 180 206 l 180 219 l 110 149 l 110 170 l 180 240 l 180 254 l 110 184 l 110 205 l 180 275 l 180 289 l 110 219 l 110 240 l 180 310 l 180 324 l 110 254 l 110 274 l 180 345 l 180 358 l 110 288 l 110 309 l 180 379 l 180 393 l 110 323 l 110 344 l 180 414 l 180 428 l 110 358 l 110 379 l 180 449 l 180 463 l 110 393 l 110 414 l 180 484 l 180 497 l 110 427 l 110 448 l 180 518 l 180 532 l 110 462 l 110 483 l 180 553 l 180 567 l 110 497 l 110 518 l 180 588 l 180 602 l 110 532 l 110 553 l 180 623 l 180 636 l 110 566 l 110 587 l 180 657 l 180 671 l 110 601 l 110 622 l 180 692 z"},"y":{"x_min":0,"x_max":515,"ha":515,"o":"m 367 563 l 504 700 l 490 700 l 381 591 l 402 632 l 469 700 l 456 700 l 399 644 l 391 656 l 435 700 l 421 700 l 385 664 l 377 676 l 400 700 l 387 700 l 371 684 l 362 696 l 366 700 l 360 700 l 258 498 l 257 501 l 206 451 l 200 465 l 250 515 l 245 524 l 195 474 l 188 488 l 238 538 l 234 547 l 184 497 l 177 511 l 227 561 l 222 570 l 172 520 l 165 534 l 216 584 l 211 593 l 161 543 l 154 557 l 204 607 l 200 616 l 149 566 l 142 579 l 193 630 l 188 639 l 138 589 l 131 602 l 181 653 l 177 662 l 126 611 l 119 625 l 170 676 l 165 685 l 115 634 l 113 637 l 103 644 l 158 699 l 158 700 l 146 700 l 95 649 l 82 656 l 125 700 l 112 700 l 73 662 l 60 669 l 91 700 l 77 700 l 52 675 l 39 682 l 56 700 l 43 700 l 30 687 l 17 695 l 22 700 l 10 700 l 186 347 l 186 0 l 334 0 l 327 7 l 334 15 l 334 28 l 320 14 l 310 25 l 334 49 l 334 63 l 303 32 l 293 42 l 334 84 l 334 97 l 286 49 l 276 59 l 334 118 l 334 132 l 269 66 l 259 76 l 334 152 l 334 166 l 259 90 l 259 111 l 334 187 l 334 200 l 259 125 l 259 146 l 334 221 l 334 235 l 259 159 l 259 180 l 334 256 l 334 269 l 259 194 l 259 214 l 334 290 l 334 304 l 259 228 l 259 249 l 334 324 l 334 338 l 259 262 l 259 283 l 346 370 l 359 397 l 259 297 l 259 318 l 379 438 l 392 465 l 259 331 l 258 347 l 263 356 l 412 506 l 426 532 l 277 384 l 298 425 l 446 573 l 459 600 l 312 453 l 332 494 l 479 641 l 492 668 l 346 522 l 367 563 z m 258 365 l 252 359 l 245 373 l 258 386 l 258 365 z m 258 400 l 241 382 l 234 396 l 258 420 l 258 400 z m 258 434 l 229 405 l 222 419 l 258 455 l 258 434 z m 258 468 l 218 428 l 211 442 l 258 489 l 258 468 z"},"@":{"x_min":0,"x_max":785,"ha":785,"o":"m 706 241 l 640 175 b 666 189 690 211 706 241 z m 95 339 l 133 378 b 134 383 134 388 135 393 l 95 353 b 95 348 95 344 95 339 z m 685 288 b 688 299 690 310 692 323 b 691 320 691 318 691 315 l 732 356 b 732 360 732 365 731 369 l 693 330 b 693 337 694 345 694 352 l 730 389 b 730 393 729 397 729 401 l 694 366 b 693 373 693 379 693 386 l 693 386 l 726 420 b 726 424 725 427 724 431 l 692 398 b 692 398 692 398 692 398 b 691 405 690 411 689 417 l 721 449 b 720 452 719 456 718 460 l 687 429 b 687 427 688 426 688 425 b 687 432 685 439 684 446 b 684 446 684 446 684 446 l 714 476 b 713 479 712 483 710 486 l 681 456 b 679 463 677 469 675 475 b 675 474 675 473 676 472 l 705 501 b 704 505 702 508 701 511 l 672 482 b 673 481 673 480 673 479 b 671 485 669 491 666 497 b 666 497 666 497 666 497 l 695 526 b 693 529 692 532 690 535 l 662 506 b 659 511 657 516 655 520 l 655 520 l 683 548 b 681 551 680 554 678 557 l 650 529 b 647 533 644 537 641 541 l 670 570 b 668 572 666 575 664 578 l 636 549 b 636 549 636 549 636 549 b 633 553 630 557 627 561 l 655 590 b 653 592 651 595 649 597 l 620 568 l 620 568 b 617 572 614 576 610 579 l 639 608 b 637 610 635 613 632 615 l 603 586 b 603 586 603 586 603 586 b 600 589 596 592 592 595 l 621 625 b 619 627 617 629 614 631 l 585 602 b 581 605 577 608 573 610 l 602 640 b 600 642 597 644 594 646 l 564 616 b 564 616 564 616 564 616 b 560 619 556 621 551 624 l 582 654 b 579 656 576 657 573 659 l 543 629 b 543 629 543 629 543 629 b 538 631 533 633 529 636 l 559 666 b 556 668 553 669 550 671 l 519 640 b 519 640 519 640 519 640 b 514 642 509 644 504 646 l 535 677 b 532 678 529 679 525 680 l 494 649 l 494 649 b 489 651 484 653 478 654 l 510 685 b 506 686 503 687 499 688 l 467 657 b 462 658 456 659 450 660 l 450 660 l 482 692 b 478 693 474 694 471 694 l 438 662 b 438 662 438 662 438 662 b 432 663 426 663 419 664 l 452 697 b 448 698 444 698 440 699 l 406 664 b 404 665 402 665 400 665 b 395 665 390 664 385 664 l 421 700 b 416 700 412 700 408 700 l 370 663 l 370 663 b 362 662 354 661 346 660 l 346 660 l 387 701 b 382 700 377 700 373 700 l 329 657 b 320 654 310 652 301 649 l 301 649 l 350 698 b 345 697 339 697 334 696 l 279 641 l 279 641 b 271 637 262 634 254 629 l 268 596 b 304 616 346 628 395 628 b 563 628 656 507 656 354 b 656 279 631 250 606 240 l 622 207 b 643 218 663 237 676 266 l 676 266 l 730 320 b 731 325 731 330 731 335 l 685 288 b 685 288 685 288 685 288 z m 463 515 l 463 501 l 479 517 l 466 517 l 463 515 z m 308 691 b 302 689 296 688 289 686 l 248 644 l 250 639 l 239 665 l 242 659 l 257 674 b 251 671 245 668 239 666 b 115 603 58 466 58 347 b 58 182 157 1 390 1 b 465 1 525 23 573 52 l 567 54 l 570 57 l 565 65 l 557 57 l 564 55 l 540 61 l 558 79 l 553 87 l 529 64 l 521 66 b 521 66 514 61 500 56 l 546 101 l 541 110 l 479 48 b 471 46 462 43 452 41 l 514 104 b 507 99 497 94 486 90 l 435 39 b 428 38 420 37 412 36 l 455 79 b 450 78 444 77 438 76 l 398 36 b 396 36 395 36 393 36 b 388 36 383 36 377 36 l 414 73 b 409 72 405 72 400 72 l 365 37 b 359 38 352 38 346 39 l 379 72 b 375 73 371 73 367 73 l 334 41 b 329 42 323 44 317 45 l 348 76 b 344 76 340 77 336 78 l 307 48 b 301 49 296 51 291 53 l 320 82 b 316 83 313 84 309 85 l 281 56 b 276 58 271 60 266 63 l 294 90 b 290 92 287 93 284 94 l 257 67 b 252 69 248 72 243 74 l 270 101 b 267 103 264 104 261 106 l 234 79 b 230 82 226 84 222 87 l 248 114 b 246 116 243 118 240 120 l 214 93 b 210 96 206 99 202 102 l 229 129 b 226 131 224 133 221 135 l 194 108 b 191 111 187 115 184 118 l 211 145 b 209 148 206 150 204 152 l 177 125 b 173 128 170 132 167 136 l 195 163 b 193 166 191 169 189 171 l 161 143 b 158 147 155 151 152 155 l 180 183 b 178 186 176 189 175 192 l 146 163 b 143 167 141 172 138 176 l 167 205 b 166 208 164 211 163 214 l 133 185 b 131 189 129 194 126 199 l 156 228 b 155 232 153 235 152 238 l 122 208 b 120 213 118 218 116 223 l 147 254 b 146 257 145 261 144 264 l 113 233 b 111 238 109 244 108 249 l 140 281 b 139 285 138 288 137 292 l 105 260 b 104 266 102 271 101 277 l 135 310 b 134 314 134 318 133 323 l 99 289 b 98 295 98 301 97 307 l 132 342 b 132 345 132 348 132 351 b 132 352 132 354 132 356 l 96 320 b 95 331 94 342 94 354 b 94 361 95 368 95 374 l 140 419 b 141 425 143 432 145 438 l 96 389 b 97 397 98 405 99 412 l 157 471 b 161 480 166 489 171 498 l 102 429 b 104 439 106 448 109 457 l 262 610 l 258 620 l 117 478 b 122 492 128 505 135 518 l 238 621 b 243 624 249 627 254 629 l 252 634 l 308 691 z m 571 195 l 609 233 l 606 240 b 604 239 602 238 600 238 l 558 196 b 560 196 562 196 564 195 b 556 196 549 198 542 201 l 576 235 b 572 235 568 236 565 238 l 533 206 b 529 209 525 212 522 215 l 556 249 b 555 253 554 257 554 261 l 516 223 b 513 227 510 231 508 235 l 554 282 l 554 295 l 504 245 b 501 251 500 256 499 261 l 554 316 l 554 330 l 497 273 b 498 275 500 285 503 299 l 554 351 l 554 364 l 505 315 b 506 321 506 327 507 333 b 507 335 507 336 507 338 l 554 385 l 554 399 l 507 352 l 507 351 b 507 358 507 365 506 372 b 506 372 506 372 506 372 l 554 420 l 554 433 l 505 384 b 504 390 503 396 502 402 b 502 402 502 402 502 402 l 554 454 l 554 468 l 499 413 b 499 413 499 413 499 413 b 498 418 496 423 494 428 b 494 428 494 428 494 428 l 554 489 l 554 502 l 489 437 b 489 437 489 437 489 437 b 487 442 484 446 481 450 l 548 517 l 534 517 l 474 457 b 471 460 467 464 463 467 l 514 517 l 500 517 l 455 472 l 455 472 b 451 474 446 477 441 479 l 441 479 l 461 498 b 459 500 457 503 454 505 l 431 482 b 425 484 420 485 414 486 l 442 514 b 439 516 436 517 433 519 l 402 488 b 402 488 402 488 402 488 b 395 488 389 489 382 489 l 417 524 b 414 525 410 526 406 527 l 368 488 b 358 487 350 486 342 483 l 388 529 b 384 529 380 529 376 529 b 376 529 375 529 374 529 l 317 472 b 316 471 316 471 315 471 l 318 465 l 316 470 l 287 442 b 294 453 304 463 315 471 l 310 486 l 310 485 l 352 527 b 346 527 340 526 335 524 l 306 495 l 300 511 l 300 510 l 302 512 b 301 512 301 512 300 511 b 251 486 214 432 214 338 b 214 200 292 148 382 148 b 404 148 421 151 435 156 l 433 161 l 479 206 l 476 214 l 485 192 l 459 166 b 479 178 485 191 485 191 b 485 191 489 155 561 155 b 588 155 615 161 640 174 l 633 188 l 722 277 b 723 283 725 289 726 295 l 628 197 l 632 188 l 622 207 b 605 199 588 195 573 195 b 572 195 571 195 571 195 z m 272 414 l 319 461 l 325 445 l 264 384 b 266 394 269 404 272 414 z m 260 343 b 260 340 260 339 260 339 b 260 339 260 340 260 343 z m 378 188 b 371 188 365 189 359 190 l 399 230 b 394 229 390 229 385 229 b 385 229 384 229 384 229 l 347 192 b 342 193 337 195 332 197 l 365 231 b 362 232 358 233 355 234 l 322 202 b 318 204 314 207 310 210 l 342 242 b 339 244 337 246 334 248 l 302 216 b 299 219 296 223 292 227 l 325 260 b 324 262 322 265 320 269 l 287 235 b 284 239 281 243 279 248 l 315 284 b 314 287 313 291 312 295 l 274 257 b 272 262 270 267 269 272 l 309 313 b 309 317 308 321 308 325 l 266 283 b 264 289 263 294 263 300 l 308 346 b 308 351 309 356 309 361 l 261 312 b 260 319 260 325 260 332 l 313 386 b 315 393 318 400 321 407 l 260 346 b 260 351 260 359 261 368 l 329 436 l 326 443 l 333 426 b 345 440 362 449 385 449 b 435 449 459 413 459 347 b 459 289 448 243 407 231 l 412 217 l 411 221 l 378 188 z m 420 196 l 418 193 b 410 191 401 190 392 189 l 414 211 l 421 194 l 420 196 z m 430 171 l 421 193 l 424 186 l 440 203 b 452 209 462 217 470 226 l 475 216 l 430 171 z m 497 272 b 497 272 497 269 498 265 b 497 269 497 272 497 272 z m 614 204 l 621 211 l 616 220 l 594 197 b 600 199 607 201 614 204 z"},".":{"x_min":0,"x_max":221,"ha":221,"o":"m 170 110 l 115 55 l 113 57 b 112 58 111 60 109 61 b 108 63 106 64 105 66 l 164 125 l 150 125 l 98 72 b 95 76 91 79 87 83 l 129 125 l 115 125 l 81 90 b 77 93 73 97 70 100 l 94 125 l 81 125 l 63 107 b 59 111 56 115 53 118 l 60 125 l 46 125 l 46 0 l 170 0 b 170 1 170 2 170 3 l 170 5 l 167 3 l 157 13 l 170 26 l 170 40 l 150 20 l 139 31 l 170 61 l 170 75 l 133 38 l 122 48 l 170 96 z"},"p":{"x_min":0,"x_max":568,"ha":568,"o":"m 538 478 l 411 352 l 400 361 l 537 498 b 537 502 536 506 536 510 l 424 399 b 432 411 439 424 443 438 l 533 528 b 532 532 531 535 530 539 l 448 457 b 449 464 450 472 450 480 l 525 555 b 524 558 523 562 522 565 l 450 494 b 450 500 449 506 448 512 l 515 579 b 514 582 512 585 510 588 l 446 524 b 445 529 443 534 441 540 b 441 540 441 540 441 540 l 503 601 b 501 604 499 607 497 609 l 437 549 b 435 554 433 559 430 563 b 430 563 430 563 430 563 l 488 621 b 486 624 484 626 482 629 l 425 572 b 422 576 420 580 417 584 b 417 584 417 584 417 584 l 472 639 b 470 641 467 644 465 646 l 410 591 b 410 591 410 591 410 591 b 407 595 403 598 400 602 l 400 602 l 454 655 b 452 657 450 658 448 659 b 448 660 447 661 446 661 l 393 608 b 393 608 393 608 393 608 b 393 608 392 608 392 608 b 389 611 385 614 381 617 b 381 617 381 617 381 617 l 433 669 b 431 671 428 673 425 674 l 372 622 l 372 622 b 368 624 363 627 358 629 l 411 681 b 408 683 405 684 401 685 l 348 632 b 343 634 338 636 332 637 l 386 691 b 382 692 379 693 375 694 l 321 639 l 321 639 b 314 640 308 640 301 640 l 358 697 b 354 698 350 698 346 699 l 288 640 l 267 640 l 326 700 b 326 700 326 700 325 700 l 313 700 l 253 640 l 232 640 l 292 700 l 278 700 l 219 640 l 198 640 l 258 700 l 244 700 l 184 640 l 164 640 l 223 700 l 209 700 l 150 640 l 129 640 l 189 700 l 175 700 l 116 640 l 104 640 l 109 634 l 104 629 l 104 640 l 99 645 l 154 700 l 141 700 l 92 651 l 81 661 l 120 700 l 106 700 l 74 668 l 64 678 l 86 700 l 72 700 l 57 685 l 46 695 l 51 700 l 40 700 l 40 0 l 168 0 l 168 5 l 165 2 l 154 12 l 168 25 l 168 39 l 147 19 l 137 29 l 168 60 l 168 73 l 130 35 l 119 45 l 168 94 l 168 108 l 112 52 l 104 60 l 104 65 l 168 128 l 168 142 l 104 78 l 104 99 l 168 163 l 168 176 l 104 113 l 104 133 l 168 197 l 168 211 l 104 147 l 104 168 l 168 232 l 168 245 l 104 182 l 104 202 l 165 264 l 168 261 l 325 261 b 377 261 424 280 461 311 l 457 315 l 504 362 b 510 371 515 381 519 391 l 449 321 l 438 330 l 530 423 b 532 428 533 434 534 440 l 430 336 l 419 345 l 537 464 b 538 468 538 473 538 478 z m 104 615 l 115 626 l 125 615 l 104 594 l 104 615 z m 104 581 l 131 608 l 140 596 l 104 560 l 104 581 z m 104 546 l 146 589 l 156 577 l 104 525 l 104 546 z m 104 305 l 116 318 l 126 307 l 104 285 l 104 305 z m 104 271 l 132 300 l 142 289 l 104 250 l 104 271 z m 104 216 l 104 237 l 149 282 l 159 271 l 104 216 z m 233 331 l 311 409 b 308 409 306 409 303 409 l 297 409 l 219 331 l 199 331 l 276 409 l 262 409 l 185 331 l 164 331 l 241 409 l 228 409 l 150 331 l 130 331 l 207 409 l 193 409 l 116 331 l 104 331 l 110 325 l 104 319 l 104 340 l 173 409 l 168 409 l 168 417 l 104 353 l 104 374 l 168 438 l 168 452 l 104 388 l 104 409 l 168 472 l 168 486 l 104 422 l 104 443 l 168 507 l 168 520 l 104 457 l 104 477 l 168 541 l 168 555 l 104 491 l 104 512 l 162 570 l 168 563 l 303 563 b 315 563 326 560 335 556 b 361 543 378 517 378 486 b 378 454 360 427 333 415 l 336 413 l 254 331 l 233 331 z m 267 331 l 343 407 l 354 398 l 288 331 l 267 331 z m 324 333 b 317 332 309 331 302 331 l 362 392 l 373 382 l 324 333 z m 381 356 b 369 348 356 342 342 337 l 381 376 l 392 367 l 381 356 z"},"X":{"x_min":0,"x_max":520,"ha":520,"o":"m 508 0 l 497 5 l 503 11 l 498 20 l 488 10 l 474 16 l 491 34 l 487 43 l 465 21 l 450 28 l 480 57 l 475 66 l 441 32 l 427 39 l 468 80 l 464 89 l 418 43 l 408 48 l 408 48 l 406 52 l 457 103 l 452 112 l 402 61 l 395 75 l 445 126 l 441 135 l 390 84 l 383 98 l 434 148 l 429 158 l 379 107 l 372 121 l 422 171 l 418 181 l 367 130 l 360 144 l 411 194 l 406 203 l 356 153 l 349 167 l 399 217 l 395 226 l 344 176 l 337 190 l 388 240 l 383 249 l 333 199 l 326 213 l 376 263 l 372 272 l 321 222 l 315 236 l 365 286 l 360 295 l 310 245 l 303 259 l 353 309 l 349 318 l 298 268 l 292 281 l 342 332 l 337 341 l 287 291 l 280 304 l 346 371 l 359 397 l 276 314 l 269 327 l 379 438 l 393 465 l 264 336 l 259 347 l 264 357 l 413 506 l 426 533 l 277 384 l 298 426 l 446 573 l 459 600 l 312 453 l 333 495 l 479 641 l 492 668 l 346 522 l 367 564 l 504 700 l 490 700 l 381 591 l 402 633 l 469 700 l 456 700 l 400 644 l 391 656 l 435 700 l 421 700 l 385 664 l 377 676 l 400 700 l 387 700 l 371 684 l 363 696 l 366 700 l 360 700 l 259 498 l 257 501 l 207 451 l 200 465 l 250 515 l 246 524 l 195 474 l 188 488 l 239 538 l 234 547 l 184 497 l 177 511 l 227 561 l 223 570 l 172 520 l 165 534 l 216 584 l 211 593 l 161 543 l 154 557 l 204 607 l 200 616 l 149 566 l 143 580 l 193 630 l 188 639 l 138 589 l 131 602 l 181 653 l 177 662 l 126 612 l 120 625 l 170 676 l 165 685 l 115 634 l 114 637 l 103 644 l 158 699 l 158 700 l 146 700 l 95 649 l 82 656 l 125 700 l 112 700 l 73 662 l 60 669 l 91 700 l 77 700 l 52 675 l 39 682 l 57 700 l 43 700 l 30 687 l 17 695 l 22 700 l 10 700 l 186 347 l 10 0 l 158 0 l 153 5 l 168 20 l 181 47 l 146 12 l 135 22 l 202 89 l 216 116 l 129 29 l 118 39 l 236 157 l 250 184 l 111 46 l 109 48 l 127 82 l 259 214 l 259 203 l 360 0 l 360 0 l 508 0 z m 259 228 l 140 109 l 161 151 l 259 249 l 259 228 z m 259 262 l 174 178 l 195 219 l 259 283 l 259 262 z m 259 297 l 209 247 l 229 288 l 259 317 l 259 297 z m 259 331 l 243 315 l 259 347 l 259 331 z m 259 365 l 253 359 l 246 373 l 259 386 l 259 365 z m 259 400 l 241 382 l 234 396 l 259 421 l 259 400 z m 259 434 l 230 405 l 223 419 l 259 455 l 259 434 z m 259 469 l 218 428 l 211 442 l 259 489 l 259 469 z"},"*":{"x_min":0,"x_max":415,"ha":415,"o":"m 211 699 l 197 699 l 191 692 l 198 685 l 211 699 z m 274 430 l 277 454 l 309 486 l 303 494 l 279 470 l 278 458 l 280 472 l 228 543 l 249 564 l 258 552 l 237 531 l 242 523 l 264 544 l 261 549 l 265 543 l 356 574 l 354 579 l 351 576 l 337 583 l 348 594 l 345 605 l 328 588 l 315 594 l 312 593 l 313 593 l 340 620 l 336 630 l 292 586 l 260 575 l 310 625 l 289 618 l 222 551 l 215 560 l 215 564 l 257 607 l 246 603 l 246 609 l 215 578 l 215 599 l 246 630 l 246 644 l 215 613 l 215 633 l 246 665 l 246 678 l 215 647 l 215 668 l 246 699 l 232 699 l 208 675 l 210 673 l 184 699 l 184 603 l 191 589 l 176 573 l 160 579 l 184 603 l 174 606 l 150 582 l 134 587 l 159 612 l 149 615 l 124 591 l 114 594 l 112 599 l 133 621 l 123 624 l 107 608 l 111 601 l 100 622 l 108 630 l 97 633 l 96 631 l 98 627 l 94 634 l 74 574 l 163 543 l 110 467 l 157 429 l 155 441 l 156 436 l 178 459 l 214 508 l 154 448 l 151 473 l 151 466 l 206 521 l 203 526 l 274 429 l 324 467 l 318 474 l 274 430 z m 165 494 l 196 536 l 201 529 l 165 494 z m 201 565 l 186 570 l 196 580 l 203 566 l 201 565 z m 294 505 l 288 513 l 266 491 l 272 483 l 294 505 z m 251 511 l 257 503 l 279 525 l 273 533 l 251 511 z"},"Y":{"x_min":0,"x_max":515,"ha":515,"o":"m 367 563 l 504 700 l 490 700 l 381 591 l 402 632 l 469 700 l 456 700 l 399 644 l 391 656 l 435 700 l 421 700 l 385 664 l 377 676 l 400 700 l 387 700 l 371 684 l 362 696 l 366 700 l 360 700 l 258 498 l 257 501 l 206 451 l 200 465 l 250 515 l 245 524 l 195 474 l 188 488 l 238 538 l 234 547 l 184 497 l 177 511 l 227 561 l 222 570 l 172 520 l 165 534 l 216 584 l 211 593 l 161 543 l 154 557 l 204 607 l 200 616 l 149 566 l 142 579 l 193 630 l 188 639 l 138 589 l 131 602 l 181 653 l 177 662 l 126 611 l 119 625 l 170 676 l 165 685 l 115 634 l 113 637 l 103 644 l 158 699 l 158 700 l 146 700 l 95 649 l 82 656 l 125 700 l 112 700 l 73 662 l 60 669 l 91 700 l 77 700 l 52 675 l 39 682 l 56 700 l 43 700 l 30 687 l 17 695 l 22 700 l 10 700 l 186 347 l 186 0 l 334 0 l 327 7 l 334 15 l 334 28 l 320 14 l 310 25 l 334 49 l 334 63 l 303 32 l 293 42 l 334 84 l 334 97 l 286 49 l 276 59 l 334 118 l 334 132 l 269 66 l 259 76 l 334 152 l 334 166 l 259 90 l 259 111 l 334 187 l 334 200 l 259 125 l 259 146 l 334 221 l 334 235 l 259 159 l 259 180 l 334 256 l 334 269 l 259 194 l 259 214 l 334 290 l 334 304 l 259 228 l 259 249 l 334 324 l 334 338 l 259 262 l 259 283 l 346 370 l 359 397 l 259 297 l 259 318 l 379 438 l 392 465 l 259 331 l 258 347 l 263 356 l 412 506 l 426 532 l 277 384 l 298 425 l 446 573 l 459 600 l 312 453 l 332 494 l 479 641 l 492 668 l 346 522 l 367 563 z m 258 365 l 252 359 l 245 373 l 258 386 l 258 365 z m 258 400 l 241 382 l 234 396 l 258 420 l 258 400 z m 258 434 l 229 405 l 222 419 l 258 455 l 258 434 z m 258 468 l 218 428 l 211 442 l 258 489 l 258 468 z"},"c":{"x_min":0,"x_max":542,"ha":542,"o":"m 388 190 l 381 193 b 378 186 375 178 370 172 l 388 190 z m 507 134 l 498 138 l 491 131 l 468 130 l 483 145 l 474 149 l 453 128 l 430 127 l 460 156 l 450 161 l 379 90 b 367 82 354 76 340 71 l 436 167 l 426 172 l 321 66 b 313 65 305 64 297 63 l 412 179 l 403 183 l 283 63 b 276 63 270 64 263 65 l 340 142 b 332 137 324 133 315 130 l 251 67 b 246 68 240 69 235 71 l 290 126 b 289 126 288 126 287 126 b 283 126 280 126 277 127 l 225 75 b 220 77 215 79 210 81 l 259 130 b 255 131 252 132 249 134 l 201 86 b 197 89 192 91 188 94 l 235 141 b 232 143 229 145 227 147 l 180 100 b 176 103 173 106 169 110 l 216 157 b 213 159 211 161 209 164 l 162 117 b 159 120 155 124 152 128 l 201 177 b 199 180 197 183 196 186 l 146 136 b 143 140 141 144 138 149 l 191 201 b 190 205 189 209 189 213 l 133 158 b 132 160 131 162 130 164 b 129 167 128 169 127 172 l 188 233 l 188 247 l 123 183 b 121 188 120 193 119 199 l 188 268 l 188 282 l 116 211 b 116 217 115 224 115 230 l 188 303 l 188 317 l 115 244 l 115 265 l 188 338 l 188 352 l 115 279 l 115 300 l 188 373 l 188 387 l 115 314 l 115 335 l 188 408 l 188 422 l 115 349 l 115 370 l 188 443 l 188 457 l 115 384 l 115 405 l 188 478 b 188 483 189 489 190 494 l 115 418 l 115 440 l 185 510 l 194 506 b 207 544 244 572 287 572 b 330 572 367 544 380 506 l 509 567 b 509 567 509 568 508 568 l 507 567 l 489 569 l 501 582 b 499 585 498 587 496 590 l 476 571 l 457 573 l 487 603 b 485 605 483 608 481 611 l 445 574 l 426 576 l 472 622 b 470 625 467 627 465 629 l 416 580 b 412 584 409 587 405 591 b 405 591 405 591 406 591 l 454 640 b 452 642 450 644 447 646 l 398 597 b 398 597 398 597 398 597 b 394 600 390 604 386 606 l 435 656 b 433 658 430 659 427 661 l 378 612 b 374 615 369 617 365 620 l 365 620 l 415 670 b 412 671 409 673 406 675 l 355 624 b 350 626 345 628 340 630 l 392 682 b 389 683 386 685 382 686 l 329 633 b 323 634 317 635 311 636 b 311 636 311 636 311 636 l 367 692 b 364 693 360 694 357 695 l 299 638 l 299 638 b 295 638 291 638 287 638 b 284 638 281 638 278 638 l 340 699 b 336 700 332 701 328 702 l 263 636 b 253 635 244 633 236 630 l 309 704 b 305 704 301 705 297 705 l 213 621 l 213 621 b 177 604 149 576 132 540 l 128 537 l 114 544 l 275 705 b 270 705 265 704 260 704 l 105 548 l 90 555 l 235 700 b 229 698 223 697 217 695 l 81 559 l 67 566 l 183 682 b 172 677 162 671 152 665 l 80 593 b 74 585 69 576 65 567 b 49 534 40 497 40 458 l 40 242 b 40 203 49 166 65 133 b 106 51 190 -5 287 -5 b 384 -5 468 51 509 133 l 506 133 l 507 134 z m 123 517 l 138 532 l 152 526 l 117 490 b 118 499 120 508 123 517 z m 115 466 b 115 469 115 472 115 475 l 161 521 l 176 514 l 115 453 l 115 466 z"},"!":{"x_min":0,"x_max":299,"ha":299,"o":"m 111 104 l 118 97 l 147 127 l 134 127 l 111 104 z m 182 127 l 168 127 l 128 87 l 135 80 l 182 127 z m 94 121 l 101 115 l 113 127 l 99 127 l 94 121 z m 89 127 l 89 0 l 215 0 l 215 1 l 215 1 l 204 11 l 215 22 l 215 36 l 197 18 l 187 28 l 215 56 l 215 70 l 180 35 l 89 127 z m 100 700 l 87 700 l 93 694 l 100 700 z m 216 679 l 216 693 l 152 628 l 152 630 l 140 644 l 143 640 l 203 700 l 189 700 l 136 647 l 123 662 l 126 658 l 169 700 l 155 700 l 120 665 l 106 679 l 110 676 l 134 700 l 120 700 l 103 683 l 87 700 l 87 485 l 120 193 l 184 193 l 165 213 l 189 238 l 191 253 l 158 220 l 152 227 l 152 235 l 194 277 l 195 292 l 152 249 l 152 269 l 198 315 l 200 331 l 152 283 l 152 304 l 202 354 l 204 369 l 152 318 l 152 338 l 206 393 l 208 408 l 152 352 l 152 373 l 211 432 l 212 447 l 152 387 l 152 407 l 215 470 l 216 485 l 216 486 l 152 421 l 152 442 l 216 506 l 216 520 l 152 456 l 152 476 l 216 541 l 216 555 l 152 490 l 152 511 l 216 575 l 216 589 l 152 525 l 152 545 l 216 610 l 216 624 l 152 559 l 152 580 l 216 645 l 216 658 l 152 594 l 152 614 l 216 679 z m 182 196 l 185 199 l 187 214 l 175 203 l 182 196 z m 170 46 l 215 91 l 215 105 l 163 52 l 170 46 z m 146 70 l 152 63 l 215 125 l 215 127 l 203 127 l 146 70 z"},"/":{"x_min":0,"x_max":376,"ha":376,"o":"m 370 695 l 372 700 l 362 700 l 291 628 l 299 649 l 296 653 l 342 700 l 329 700 l 290 661 l 282 673 l 309 700 l 296 700 l 277 680 l 268 692 l 276 700 l 263 700 l 0 0 l 108 0 l 107 0 l 108 1 l 116 23 l 102 8 l 94 20 l 129 55 l 137 76 l 88 28 l 80 39 l 149 108 l 157 129 l 75 47 l 72 51 l 80 73 l 169 161 l 177 183 l 88 94 l 100 126 l 189 215 l 197 236 l 108 147 l 121 180 l 209 268 l 217 289 l 129 201 l 141 233 l 229 321 l 237 343 l 149 254 l 161 286 l 250 375 l 258 396 l 169 308 l 181 340 l 270 428 l 278 449 l 189 361 l 202 393 l 290 481 l 298 503 l 210 415 l 222 447 l 310 535 l 318 556 l 230 468 l 242 500 l 330 588 l 338 609 l 250 521 l 263 554 l 350 641 l 358 663 l 271 575 l 283 607 l 370 695 z"},"[":{"x_min":0,"x_max":333,"ha":333,"o":"m 118 693 l 173 749 l 161 749 l 112 699 l 118 693 z m 103 708 l 142 749 l 130 749 l 97 714 l 103 708 z m 234 -18 l 215 -18 l 260 26 l 247 26 l 203 -18 l 183 -18 l 230 26 l 217 26 l 171 -18 l 152 -18 l 198 26 l 185 26 l 140 -18 l 121 -18 l 178 38 l 178 51 l 120 -7 l 120 11 l 178 70 l 178 83 l 120 23 l 120 42 l 178 102 l 178 113 l 120 55 l 120 75 l 178 132 l 178 144 l 120 87 l 120 106 l 178 163 l 178 176 l 120 117 l 120 136 l 178 194 l 178 207 l 120 148 l 120 167 l 178 226 l 178 237 l 120 180 l 120 199 l 178 256 l 178 268 l 120 211 l 120 229 l 178 287 l 178 299 l 120 241 l 120 260 l 178 319 l 178 332 l 120 272 l 120 291 l 178 350 l 178 362 l 120 304 l 120 323 l 178 381 l 178 393 l 120 336 l 120 354 l 178 412 l 178 424 l 120 366 l 120 385 l 178 443 l 178 456 l 120 397 l 120 416 l 178 474 l 178 486 l 120 429 l 120 447 l 178 505 l 178 517 l 120 459 l 120 478 l 178 536 l 178 548 l 120 490 l 120 509 l 178 567 l 178 580 l 120 521 l 120 540 l 178 598 l 178 611 l 120 553 l 120 571 l 178 630 l 178 642 l 120 584 l 120 603 l 183 666 l 177 672 l 120 615 l 120 634 l 167 681 l 161 687 l 120 646 l 120 665 l 152 696 l 146 702 l 120 678 l 120 691 l 72 739 l 81 749 l 68 749 l 65 746 l 62 749 l 62 -64 l 279 -64 l 271 -56 l 279 -48 l 279 -35 l 265 -49 l 255 -40 l 279 -16 l 279 -5 l 249 -34 l 254 -39 l 235 -18 l 240 -24 l 279 14 l 279 26 l 279 26 l 234 -18 z m 112 749 l 100 749 l 81 730 l 87 724 l 112 749 z m 279 742 l 237 700 l 235 704 l 223 704 l 267 749 l 255 749 l 211 704 l 192 704 l 237 749 l 225 749 l 179 704 l 160 704 l 206 749 l 193 749 l 148 704 l 144 704 l 190 660 l 279 660 l 275 664 l 279 668 l 279 680 l 269 670 l 259 679 l 279 698 l 279 711 l 253 686 l 244 694 l 279 729 l 279 742 z"},"6":{"x_min":0,"x_max":487,"ha":487,"o":"m 378 55 b 390 66 401 79 409 94 l 345 30 b 356 37 367 45 378 55 z m 179 642 l 237 700 b 233 700 228 700 223 699 l 175 652 l 179 642 z m 380 533 l 423 576 b 422 579 420 582 419 586 l 373 539 l 380 533 z m 303 77 l 320 94 l 320 94 b 327 100 334 107 339 114 b 339 114 339 114 339 114 l 438 213 l 438 226 l 359 147 l 358 147 b 362 156 365 166 367 176 l 367 176 l 438 247 l 438 247 b 438 252 438 256 438 260 l 370 192 b 370 192 370 192 370 192 b 370 197 370 203 370 208 l 370 214 l 436 279 b 435 283 435 287 434 291 l 370 227 l 370 248 l 431 308 b 430 312 429 315 428 319 l 370 261 b 370 267 369 274 368 280 l 422 334 b 421 338 420 341 418 344 l 365 291 b 364 296 362 301 360 306 l 411 358 b 410 361 408 363 406 366 l 356 316 b 353 320 351 325 348 329 l 398 378 b 396 381 394 384 392 386 l 342 337 b 339 341 336 345 333 348 l 381 397 b 380 398 379 399 378 401 b 377 401 375 402 374 403 l 326 355 b 322 358 318 361 314 364 l 363 413 b 361 415 358 417 355 419 l 306 369 b 301 372 297 374 292 376 l 343 427 b 340 428 337 430 334 432 l 282 380 b 277 381 271 383 265 384 b 265 384 265 384 265 384 l 320 438 b 317 440 313 441 310 442 l 253 385 b 249 386 244 386 239 386 b 237 386 235 386 233 386 l 294 447 b 291 448 287 449 283 450 l 218 385 b 209 384 201 382 192 380 l 265 453 b 261 453 257 454 253 454 l 104 305 l 104 326 l 233 454 b 228 454 223 454 218 453 l 104 340 l 104 360 l 193 450 b 187 448 181 446 175 444 l 104 374 l 104 395 l 173 463 l 173 465 l 173 465 l 173 477 l 104 408 l 104 429 l 173 498 b 174 504 175 509 176 514 l 104 443 l 104 463 l 210 570 l 206 579 l 104 477 l 104 484 b 104 489 104 494 105 498 l 200 594 l 215 560 b 221 562 229 563 238 563 b 295 562 303 524 304 486 l 304 484 l 437 484 l 436 486 l 437 487 l 437 493 b 437 495 437 498 437 501 l 429 492 l 417 501 l 436 520 b 435 524 435 528 434 532 l 410 508 l 399 517 l 431 550 b 430 553 429 557 428 560 l 391 523 l 362 549 l 412 600 b 411 602 409 605 407 608 l 356 557 l 356 557 b 355 560 352 565 349 571 l 399 620 b 397 623 395 626 393 628 l 343 579 b 341 582 338 586 334 590 l 383 639 b 381 641 378 643 376 646 l 327 597 b 324 600 320 604 316 607 b 316 607 316 607 316 607 l 365 655 b 362 657 360 659 357 661 l 308 612 b 308 612 308 612 308 612 b 304 615 299 617 294 619 l 294 619 l 345 670 b 342 672 339 673 336 675 l 285 623 b 280 625 274 627 269 628 l 269 628 l 323 682 b 319 683 316 685 313 686 l 257 630 b 250 631 242 632 234 632 b 231 632 227 632 224 631 b 227 632 231 632 234 632 b 235 632 237 632 238 632 l 298 691 b 294 692 291 693 287 694 l 224 631 b 215 631 207 630 200 628 l 270 698 b 266 698 261 699 257 699 l 186 627 l 169 666 l 199 696 b 193 695 187 694 182 692 l 165 676 l 161 685 b 140 676 120 663 102 646 b 61 610 40 558 39 493 l 39 247 b 39 247 39 247 39 247 l 39 208 b 40 142 61 91 102 54 b 140 19 186 1 238 0 l 239 0 b 271 0 301 7 328 20 l 311 60 l 313 53 l 436 176 b 437 181 437 186 437 191 l 309 63 l 303 77 z m 179 621 l 121 563 b 133 588 152 609 179 621 z m 112 541 l 190 618 l 187 624 l 196 603 l 107 514 b 108 523 110 532 112 541 z m 104 257 l 184 336 l 180 347 l 104 271 l 104 291 l 176 363 l 173 372 l 173 372 l 188 320 l 104 236 l 104 257 z m 235 67 b 231 67 228 67 224 67 l 282 125 l 278 135 l 212 69 b 206 70 200 71 195 73 l 262 140 b 257 138 252 137 246 137 l 185 76 b 180 78 176 81 171 83 l 225 138 b 221 138 218 139 214 140 l 163 89 b 159 91 155 95 151 98 l 200 146 b 197 148 194 150 192 152 l 145 105 b 141 108 138 112 135 116 l 183 164 b 182 167 180 170 179 173 l 130 124 b 127 128 124 133 122 137 l 175 190 b 174 194 174 198 173 202 l 118 147 b 116 152 114 157 112 162 l 173 223 l 173 236 l 109 173 b 108 178 107 184 106 190 l 174 258 b 175 264 176 269 177 275 l 105 202 b 104 207 104 211 104 216 l 104 223 l 191 310 l 193 303 b 203 312 218 317 238 318 b 295 316 303 278 304 241 l 304 213 b 304 186 299 158 274 144 l 288 111 l 245 67 b 242 67 238 67 235 67 z m 299 87 l 288 76 b 279 73 270 70 260 69 l 293 101 l 301 82 l 299 87 z m 324 29 l 426 132 b 428 138 430 144 432 151 l 320 39 l 324 29 z"},"r":{"x_min":0,"x_max":599,"ha":599,"o":"m 556 201 l 556 208 b 556 210 556 212 556 215 l 476 135 l 476 156 l 554 234 b 553 238 553 242 552 245 l 476 169 l 476 190 l 547 261 b 546 265 544 268 543 271 l 476 204 l 476 212 b 476 216 475 220 475 224 b 475 224 475 224 475 224 l 536 285 b 534 288 532 291 531 293 l 472 235 b 471 240 469 246 467 251 l 522 305 b 519 308 517 310 515 313 l 462 260 b 459 266 456 272 452 278 b 453 276 454 275 455 273 l 504 323 b 502 325 499 327 497 329 l 449 281 b 446 285 443 289 440 293 l 484 338 b 481 340 478 341 476 343 l 433 300 b 433 300 433 300 433 300 b 430 304 426 307 423 311 l 532 420 b 537 428 541 437 544 446 l 415 317 b 415 317 415 317 415 317 b 411 320 407 323 403 326 l 552 475 b 553 480 554 486 555 491 l 395 331 b 390 334 386 336 381 338 l 556 513 b 556 518 556 522 555 526 l 440 411 l 440 411 b 452 425 462 441 469 460 l 469 460 l 553 545 b 552 549 552 553 551 556 l 473 479 b 475 486 475 494 476 502 l 546 573 b 545 576 544 580 543 583 l 475 516 b 475 515 475 515 475 514 b 475 521 474 528 473 534 l 536 597 b 535 601 533 604 532 607 l 471 546 b 471 546 471 546 471 546 b 469 551 467 556 465 561 l 465 561 l 524 620 b 522 622 520 625 518 628 l 461 571 b 461 571 461 571 461 571 b 459 575 456 580 453 584 b 453 584 453 584 453 584 l 509 639 b 507 642 504 644 502 646 l 447 591 b 444 595 440 599 437 602 l 492 657 b 489 659 487 661 484 663 l 429 608 b 426 611 423 613 420 615 b 419 615 418 616 417 617 l 472 672 b 469 674 466 676 464 677 l 408 621 b 403 624 398 626 393 628 l 450 685 b 447 686 444 688 441 689 l 383 631 b 377 633 371 634 366 635 b 366 635 366 635 366 635 l 425 695 b 422 696 418 697 415 698 l 354 637 b 349 638 345 638 342 638 l 334 638 l 397 701 b 393 702 389 702 385 702 l 320 638 l 300 638 l 364 703 l 351 703 l 286 638 l 265 638 l 330 703 l 316 703 l 251 638 l 230 638 l 295 703 l 281 703 l 217 638 l 196 638 l 260 703 l 247 703 l 182 638 l 161 638 l 226 703 l 212 703 l 147 638 l 126 638 l 191 703 l 177 703 l 113 638 b 111 638 110 638 110 638 l 110 638 l 100 647 l 156 703 l 143 703 l 93 654 l 82 664 l 122 703 l 108 703 l 75 670 l 64 680 l 87 703 l 73 703 l 57 687 l 46 697 l 52 703 b 45 703 40 703 40 703 l 40 0 l 180 0 l 180 12 l 173 6 l 162 15 l 180 33 l 180 47 l 155 22 l 144 32 l 144 32 l 180 68 l 180 82 l 137 38 l 125 48 l 180 102 l 180 116 l 118 54 l 110 62 l 110 67 l 180 137 l 180 151 l 110 81 l 110 102 l 180 172 l 180 186 l 110 116 l 110 136 l 180 206 l 180 220 l 110 150 l 110 171 l 180 241 l 180 255 l 110 185 l 110 206 l 180 276 l 180 277 b 180 277 263 277 317 277 b 348 277 375 261 393 235 b 405 216 413 191 413 163 l 413 0 l 556 0 b 556 0 556 2 556 7 l 552 3 l 540 12 l 556 28 l 556 42 l 532 17 l 519 26 l 556 63 l 556 76 l 511 32 l 499 40 l 556 97 l 556 111 l 491 46 l 479 55 l 556 132 l 556 146 l 476 65 l 476 86 l 556 166 l 556 180 l 476 100 l 476 121 l 556 201 z m 110 622 l 118 630 l 118 630 l 129 620 l 110 601 l 110 622 z m 110 587 l 136 613 l 146 603 l 110 566 l 110 587 z m 110 552 l 153 596 l 164 586 l 110 532 l 110 552 z m 110 518 l 171 579 l 182 568 l 110 497 l 110 518 z m 110 344 l 112 346 l 122 336 l 110 324 l 110 344 z m 110 310 l 129 329 l 139 318 l 110 289 l 110 310 z m 110 275 l 146 311 l 157 301 l 110 254 l 110 275 z m 110 220 l 110 240 l 163 294 l 174 283 l 110 220 z m 308 348 l 287 348 l 353 414 b 348 413 343 412 337 412 l 273 348 l 252 348 l 316 412 l 302 412 l 238 348 l 217 348 l 281 412 l 268 412 l 204 348 l 183 348 l 247 412 l 233 412 l 169 348 l 148 348 l 212 412 l 198 412 l 134 348 l 113 348 l 186 420 l 186 434 l 110 358 l 110 379 l 186 455 l 186 469 l 110 393 l 110 414 l 186 490 l 186 503 l 110 428 l 110 448 l 186 524 l 186 538 l 110 462 l 110 483 l 186 559 l 186 564 b 186 564 258 564 333 564 b 345 564 356 562 365 558 b 417 535 419 455 374 424 l 379 420 l 308 348 z m 341 348 l 321 348 l 387 413 l 398 404 l 342 348 b 342 348 341 348 341 348 z m 371 342 b 366 344 360 346 355 347 b 355 347 355 347 355 347 l 406 398 l 417 388 b 418 390 420 391 422 393 l 371 342 z"},"2":{"x_min":0,"x_max":451,"ha":451,"o":"m 147 648 l 198 699 b 193 698 188 698 182 697 l 142 657 l 147 648 z m 409 15 l 424 30 l 424 44 l 402 22 l 409 15 z m 141 483 l 147 476 l 154 483 l 155 489 b 155 492 156 495 156 499 l 141 483 z m 424 133 l 424 138 l 415 138 l 345 68 l 324 68 l 394 138 l 380 138 l 310 68 l 290 68 l 360 138 l 346 138 l 276 68 l 255 68 l 325 138 l 311 138 l 242 68 l 221 68 l 291 138 l 277 138 l 207 68 l 186 68 l 256 138 l 243 138 l 173 68 l 152 68 l 222 138 l 208 138 l 138 68 l 121 68 b 121 69 121 70 121 71 l 210 160 b 212 168 215 175 219 183 l 121 85 b 122 93 122 100 123 108 l 370 355 b 381 368 390 382 398 396 l 125 123 b 127 132 128 141 130 149 l 415 434 b 417 440 418 446 420 452 l 136 169 b 140 181 145 193 150 203 l 424 477 b 424 482 424 486 424 491 l 168 235 b 221 317 306 360 341 429 l 423 511 b 423 515 423 519 422 524 l 351 452 b 353 460 355 469 356 478 l 356 478 l 419 541 b 418 545 417 549 416 552 l 357 493 b 357 493 357 493 357 493 b 357 493 357 494 357 495 b 357 500 357 506 356 512 l 411 568 b 410 571 409 574 407 578 l 353 524 b 352 529 351 534 349 540 l 401 592 b 399 595 398 598 396 601 l 345 550 l 345 550 b 343 554 341 559 338 564 l 388 613 b 386 616 384 618 382 621 l 333 572 l 333 572 b 331 576 328 580 324 584 l 372 632 b 370 635 368 637 366 639 l 318 592 b 315 595 311 599 308 602 l 355 650 b 353 652 350 654 348 656 l 300 608 b 296 611 292 613 287 616 l 336 665 b 333 667 331 668 328 670 l 278 620 b 273 622 268 624 263 626 l 315 678 b 312 679 308 681 305 682 l 252 628 b 246 630 240 630 233 631 l 290 688 b 287 689 284 690 280 691 l 220 631 b 221 631 221 631 222 631 b 213 631 205 631 198 629 l 263 695 b 260 696 256 697 252 697 l 180 625 l 180 625 b 173 623 167 621 161 618 l 165 611 l 96 542 b 96 540 95 539 95 538 b 96 542 111 593 161 618 l 158 625 l 233 699 b 229 700 224 700 220 700 l 154 634 l 135 671 l 154 689 b 146 687 139 683 131 680 b 112 670 95 657 79 640 b 42 601 23 551 20 492 l 19 469 l 153 469 l 131 495 l 131 494 l 168 531 b 171 536 175 540 179 544 b 182 548 186 551 190 553 l 192 555 l 191 557 l 193 555 b 202 560 212 562 224 562 b 246 562 261 555 272 543 b 284 528 289 512 289 493 b 289 486 288 478 287 469 b 284 461 278 451 271 441 b 180 350 20 240 20 0 l 424 0 l 424 9 l 419 5 l 391 32 l 424 65 l 424 78 l 385 39 l 390 34 l 371 52 l 374 49 l 424 99 l 424 113 l 367 56 l 355 68 l 357 66 l 424 133 z m 125 502 l 116 513 l 181 578 l 176 588 l 109 520 l 95 538 l 100 532 l 170 601 l 188 565 l 125 502 z"},"{":{"x_min":0,"x_max":333,"ha":333,"o":"m 280 -49 l 298 -32 l 298 -20 l 274 -43 z m 296 -65 l 298 -63 l 298 -50 l 290 -59 z m 191 397 l 138 344 b 149 351 171 367 191 397 z m 298 738 l 298 750 b 209 750 115 681 115 540 b 115 374 26 368 26 368 l 26 316 b 26 316 115 299 115 151 b 115 3 160 -67 298 -67 l 267 -36 b 267 -36 266 -36 264 -35 l 288 -11 b 285 -10 283 -9 280 -7 l 255 -32 b 251 -30 247 -28 242 -26 l 269 1 b 267 3 266 5 264 8 l 235 -21 b 231 -19 228 -16 224 -13 l 256 19 b 254 21 253 24 252 27 l 218 -7 b 215 -4 212 -1 209 3 l 246 39 b 245 42 244 45 243 49 l 204 10 b 202 14 199 17 197 21 l 239 63 b 238 66 237 70 236 73 l 193 30 b 191 34 189 38 187 42 l 234 89 b 233 92 233 96 233 100 l 184 52 b 183 56 181 61 180 66 l 231 117 b 231 121 231 125 231 129 l 178 76 b 177 81 176 87 175 92 l 230 147 b 230 151 230 155 230 159 l 174 103 b 174 109 173 114 173 121 l 229 176 b 229 180 228 184 228 187 l 173 133 b 173 133 173 133 173 133 b 173 139 173 145 172 150 l 225 204 b 225 207 224 210 223 214 l 171 162 b 171 167 170 173 169 178 l 220 229 b 219 232 218 235 217 238 l 167 189 b 167 189 167 189 167 189 b 166 194 165 199 164 204 l 212 251 b 210 254 209 257 208 260 l 161 213 b 161 213 161 213 161 213 b 160 218 158 223 157 227 l 202 272 b 200 275 199 278 197 280 l 154 236 b 154 236 154 236 154 236 b 152 241 150 245 148 249 l 190 291 b 188 294 186 296 185 298 l 144 258 b 144 258 144 258 144 258 b 142 262 140 266 138 270 l 176 308 b 174 310 172 312 170 314 l 133 278 b 131 282 129 286 126 289 b 126 289 126 289 126 289 l 160 323 b 158 325 155 327 153 328 l 121 296 b 121 296 121 296 121 296 b 119 300 116 304 113 307 b 113 307 113 307 113 307 l 142 336 b 138 338 135 339 134 340 l 108 314 b 108 314 108 314 108 314 b 105 318 102 321 99 324 l 99 324 l 212 437 b 215 443 217 449 219 455 l 94 330 b 94 330 94 330 94 330 b 89 334 86 337 84 339 l 225 480 b 226 485 227 490 227 495 l 130 398 b 130 398 130 398 130 398 b 137 409 145 422 151 437 b 151 437 151 437 151 437 l 229 515 b 230 520 230 524 230 528 l 159 457 b 161 465 164 474 166 483 l 230 547 b 231 552 231 556 231 560 l 169 498 b 169 498 169 498 169 498 b 170 505 171 512 172 519 b 172 519 172 519 172 519 l 233 580 b 233 585 234 590 234 594 l 172 532 b 173 536 173 541 173 545 b 173 547 173 549 173 551 l 239 618 b 241 624 243 630 245 636 l 173 564 b 174 571 175 578 176 585 l 298 707 l 298 719 l 179 600 b 181 609 183 618 186 626 z m 264 716 l 196 648 b 223 698 262 715 264 716 z"},"9":{"x_min":0,"x_max":468,"ha":468,"o":"m 160 635 l 225 700 b 220 700 215 699 210 699 l 156 645 l 160 635 z m 367 54 b 383 68 396 85 406 104 l 327 24 b 341 32 354 42 367 54 z m 185 695 b 179 694 173 692 167 690 l 146 669 l 150 659 l 185 695 z m 430 492 l 430 493 b 430 497 429 501 429 505 l 364 441 l 364 461 l 428 524 b 427 528 426 532 426 536 l 364 475 l 364 484 b 364 488 364 492 364 495 l 364 495 l 422 553 b 421 557 420 561 419 564 l 363 508 b 362 514 361 520 360 525 l 414 579 b 412 583 411 586 410 589 l 357 536 b 355 541 354 547 352 552 l 402 602 b 401 605 399 608 397 611 l 347 561 b 345 566 343 570 340 575 l 340 574 l 389 623 b 387 626 384 628 382 630 l 335 583 b 332 587 329 591 325 594 l 372 641 b 370 643 369 644 367 646 b 366 646 366 647 365 648 l 318 601 b 315 604 311 608 307 610 l 307 610 l 354 657 b 351 659 349 661 346 663 l 299 616 l 299 616 b 295 619 290 621 285 623 l 334 671 b 331 673 328 675 325 676 l 275 627 l 275 627 b 270 629 265 630 259 631 l 259 631 l 311 683 b 308 685 305 686 301 687 l 247 633 b 242 633 238 633 233 633 b 231 633 229 633 227 633 l 227 633 l 286 692 b 282 693 278 694 275 695 l 212 632 b 202 630 193 628 184 625 l 257 698 b 253 699 249 699 245 699 l 166 621 l 168 618 l 141 680 b 123 671 106 660 91 646 b 52 609 32 558 30 492 l 30 453 b 32 387 52 336 91 299 b 100 291 109 284 118 278 b 151 257 188 246 230 246 b 253 246 275 249 296 256 l 296 214 b 295 182 289 150 254 140 l 269 104 l 233 68 b 226 68 220 69 214 70 l 263 119 l 259 129 l 202 71 b 196 73 191 74 186 76 l 248 139 b 244 138 238 137 233 137 l 176 80 b 171 82 166 84 162 87 l 214 138 b 210 139 206 140 203 141 l 154 92 b 150 95 146 98 143 102 l 189 148 b 187 150 184 152 182 155 l 136 108 b 132 112 129 116 126 120 l 174 167 b 172 170 171 174 170 177 l 121 128 b 117 133 115 138 113 141 l 166 194 b 166 198 165 203 165 207 l 108 150 l 110 148 l 79 175 l 119 216 l 105 216 l 71 182 l 60 191 l 84 216 l 71 216 l 53 197 l 56 195 l 41 207 l 50 216 l 36 216 l 34 213 l 31 216 l 31 207 b 32 142 53 90 94 54 b 132 18 178 0 230 0 l 230 0 b 230 0 230 0 230 0 b 230 0 230 0 231 0 b 231 0 231 0 231 0 b 258 0 284 5 308 15 l 290 56 l 294 47 l 428 181 b 429 186 429 191 429 196 l 290 56 l 282 76 l 284 71 l 294 81 l 294 81 b 317 93 334 111 345 132 l 430 217 l 430 230 l 355 156 b 355 156 355 156 355 156 b 358 165 360 174 362 183 l 430 251 l 430 265 l 364 199 b 364 205 364 210 364 216 l 364 220 l 430 286 l 430 299 l 364 234 l 364 255 l 430 320 l 430 334 l 364 268 l 364 289 l 430 354 l 430 368 l 364 303 l 364 324 l 430 389 l 430 402 l 364 337 l 364 358 l 430 423 l 430 437 l 364 372 l 364 392 l 430 458 l 430 471 l 364 406 l 364 427 l 430 492 z m 110 148 b 111 147 111 146 112 144 b 111 146 111 147 110 148 z m 272 73 b 264 71 256 69 247 69 l 273 95 l 271 101 l 280 80 l 272 73 z m 157 612 l 123 577 b 132 591 143 603 157 612 z m 109 550 l 170 611 l 177 597 l 101 521 b 103 531 105 540 109 550 z m 98 492 b 98 496 98 501 99 505 l 181 587 l 177 597 l 187 573 l 98 484 l 98 492 z m 103 412 b 103 413 102 414 102 415 b 103 413 103 411 104 408 b 104 409 103 410 103 412 z m 181 322 b 180 323 180 323 179 323 b 182 322 185 321 188 320 b 186 321 183 322 181 322 z m 296 328 l 293 335 l 280 321 b 271 319 262 317 253 315 l 289 351 l 286 362 l 238 314 b 235 314 233 314 230 314 b 221 314 213 315 206 316 b 210 315 214 315 218 314 l 281 378 l 296 328 l 296 328 z m 296 459 b 295 436 292 412 275 397 l 278 388 l 205 316 b 200 317 194 318 189 320 l 255 386 b 250 385 244 383 238 383 l 178 323 b 173 325 169 327 164 330 l 218 383 b 214 384 210 385 206 386 l 156 335 b 152 338 148 341 144 344 l 192 392 b 189 394 187 396 184 398 l 137 351 b 133 354 130 358 127 362 l 175 410 b 173 413 172 416 171 419 l 122 370 b 119 374 116 378 114 383 l 166 435 b 166 439 165 443 165 447 l 110 392 b 109 393 108 395 108 396 b 107 400 105 404 104 407 l 164 468 l 164 481 l 101 418 b 100 424 99 430 99 436 b 99 436 99 436 99 436 l 165 503 b 166 509 167 514 168 520 l 98 450 l 98 470 l 191 563 l 195 556 b 204 560 215 563 230 563 b 275 563 295 540 296 487 l 296 459 z m 153 216 l 140 216 l 90 166 l 97 160 l 153 216 z m 304 23 l 420 138 b 422 144 423 150 424 156 l 300 32 l 304 23 z"}," ":{"x_min":0,"x_max":200,"ha":200,"o":""},"I":{"x_min":0,"x_max":220,"ha":220,"o":"m 180 692 l 180 700 l 174 700 l 107 633 l 97 644 l 153 700 l 139 700 l 90 651 l 79 661 l 118 700 l 105 700 l 72 668 l 62 678 l 84 700 l 70 700 l 55 685 l 44 695 l 49 700 l 40 700 l 40 0 l 180 0 l 180 11 l 175 5 l 164 16 l 180 32 l 180 46 l 157 23 l 147 33 l 180 67 l 180 80 l 140 40 l 129 50 l 180 101 l 180 115 l 122 57 l 112 68 l 180 136 l 180 150 l 110 80 l 110 101 l 180 171 l 180 185 l 110 115 l 110 135 l 180 206 l 180 219 l 110 149 l 110 170 l 180 240 l 180 254 l 110 184 l 110 205 l 180 275 l 180 289 l 110 219 l 110 240 l 180 310 l 180 324 l 110 254 l 110 274 l 180 345 l 180 358 l 110 288 l 110 309 l 180 379 l 180 393 l 110 323 l 110 344 l 180 414 l 180 428 l 110 358 l 110 379 l 180 449 l 180 463 l 110 393 l 110 414 l 180 484 l 180 497 l 110 427 l 110 448 l 180 518 l 180 532 l 110 462 l 110 483 l 180 553 l 180 567 l 110 497 l 110 518 l 180 588 l 180 602 l 110 532 l 110 553 l 180 623 l 180 636 l 110 566 l 110 587 l 180 657 l 180 671 l 110 601 l 110 622 l 180 692 z"},"H":{"x_min":0,"x_max":578,"ha":578,"o":"m 539 666 l 539 679 l 468 609 l 468 630 l 538 700 l 524 700 l 462 637 l 451 648 l 504 700 l 490 700 l 444 655 l 434 665 l 469 700 l 455 700 l 427 672 l 416 682 l 434 700 l 420 700 l 409 689 l 399 700 l 399 700 l 398 700 l 398 419 l 408 410 l 353 355 l 332 355 l 397 419 l 383 419 l 318 355 l 297 355 l 362 419 l 348 419 l 284 355 l 263 355 l 327 419 l 313 419 l 249 355 l 228 355 l 292 419 l 279 419 l 214 355 l 193 355 l 258 419 l 244 419 l 179 355 l 158 355 l 223 419 l 209 419 l 145 355 l 124 355 l 188 419 l 180 419 l 180 425 l 110 355 l 110 376 l 180 446 l 180 460 l 110 390 l 110 411 l 180 481 l 180 495 l 110 424 l 110 445 l 180 516 l 180 529 l 110 459 l 110 480 l 180 550 l 180 564 l 110 494 l 110 515 l 180 585 l 180 599 l 110 529 l 110 550 l 180 620 l 180 634 l 110 563 l 110 584 l 180 655 l 180 668 l 110 598 l 110 619 l 180 689 l 180 700 l 177 700 l 109 632 l 98 642 l 156 700 l 142 700 l 91 649 l 81 660 l 121 700 l 107 700 l 74 666 l 63 677 l 86 700 l 73 700 l 56 684 l 46 694 l 52 700 l 40 700 l 40 0 l 180 0 l 180 8 l 176 4 l 165 14 l 180 29 l 180 43 l 159 21 l 148 32 l 180 64 l 180 78 l 141 38 l 130 49 l 180 98 l 180 112 l 124 56 l 124 56 l 113 66 l 180 133 l 180 147 l 110 77 l 110 98 l 180 168 l 180 182 l 110 112 l 110 133 l 180 203 l 180 217 l 110 146 l 110 167 l 180 237 l 180 251 l 110 181 l 110 202 l 180 272 l 180 286 l 110 216 l 110 237 l 171 298 l 180 290 l 398 290 l 398 0 l 539 0 l 536 3 l 539 5 l 539 19 l 529 9 l 518 20 l 539 40 l 539 54 l 512 27 l 501 37 l 539 75 l 539 88 l 494 44 l 483 54 l 539 109 l 539 123 l 477 61 l 468 69 l 468 74 l 539 144 l 539 158 l 468 88 l 468 109 l 539 179 l 539 193 l 468 123 l 468 144 l 539 214 l 539 228 l 468 157 l 468 178 l 539 248 l 539 262 l 468 192 l 468 213 l 539 283 l 539 297 l 468 227 l 468 248 l 539 318 l 539 332 l 468 262 l 468 283 l 539 353 l 539 367 l 468 296 l 468 317 l 539 387 l 539 401 l 468 331 l 468 352 l 539 422 l 539 436 l 468 366 l 468 387 l 539 457 l 539 471 l 468 401 l 468 422 l 539 492 l 539 506 l 468 435 l 468 456 l 539 527 l 539 540 l 468 470 l 468 491 l 539 561 l 539 575 l 468 505 l 468 526 l 539 596 l 539 610 l 468 540 l 468 561 l 539 631 l 539 645 l 468 574 l 468 595 l 539 666 z m 110 355 l 110 355 l 110 355 l 110 355 z m 110 341 l 117 348 l 128 338 l 110 320 l 110 341 z m 110 306 l 135 332 l 146 322 l 110 285 l 110 306 z m 110 251 l 110 272 l 153 315 l 164 305 l 110 251 z m 388 355 l 367 355 l 416 403 l 426 393 l 388 355 z m 402 355 l 434 387 l 445 377 l 423 355 l 402 355 z m 457 355 l 436 355 l 452 370 l 463 360 l 457 355 z"},"4":{"x_min":0,"x_max":516,"ha":516,"o":"m 460 112 l 476 127 l 476 141 l 453 119 l 460 112 z m 386 38 l 425 76 l 425 90 l 379 45 l 386 38 z m 404 21 l 425 42 l 425 56 l 397 28 l 404 21 z m 462 231 l 394 163 l 373 163 l 441 231 l 428 231 l 360 163 l 354 163 l 362 156 l 357 160 l 354 157 l 354 163 l 339 163 l 347 170 l 354 163 l 354 178 l 425 248 l 425 262 l 354 192 l 354 212 l 425 283 l 425 296 l 354 226 l 354 247 l 425 317 l 425 331 l 354 260 l 354 281 l 425 352 l 425 365 l 354 295 l 354 315 l 425 386 l 425 400 l 354 329 l 354 350 l 425 420 l 425 434 l 354 364 l 354 384 l 425 455 l 425 468 l 354 398 l 354 419 l 425 489 l 425 503 l 354 432 l 354 453 l 425 524 l 425 537 l 354 467 l 354 488 l 425 558 l 425 572 l 354 501 l 354 522 l 425 592 l 425 606 l 354 535 l 353 555 l 425 627 l 425 641 l 353 569 l 353 589 l 425 661 l 425 675 l 352 603 l 352 623 l 425 696 l 425 700 l 415 700 l 348 632 l 335 641 l 395 700 l 381 700 l 327 646 l 314 654 l 360 700 l 347 700 l 306 660 l 294 668 l 326 700 l 312 700 l 285 673 l 273 681 l 291 700 l 278 700 l 265 687 l 252 695 l 257 700 l 244 700 l 244 700 l 24 213 l 24 97 l 289 97 l 289 0 l 425 0 l 418 7 l 421 4 l 425 8 l 425 21 l 414 11 l 369 55 l 418 104 l 413 108 l 425 97 l 476 97 l 476 106 l 471 102 l 443 129 l 476 162 l 476 175 l 436 136 l 408 163 l 476 230 l 476 231 l 462 231 z m 249 543 l 253 534 l 252 537 l 241 525 l 230 501 l 257 528 l 264 514 l 212 463 l 249 543 z m 201 163 l 269 231 l 256 231 l 188 163 l 167 163 l 235 231 l 221 231 l 153 163 l 133 163 l 201 231 l 187 231 l 119 163 l 98 163 l 194 258 l 205 283 l 85 163 l 77 163 l 94 201 l 87 186 l 223 321 l 234 347 l 98 211 l 116 249 l 251 385 l 263 410 l 127 274 l 144 312 l 280 448 l 289 467 l 287 469 l 155 337 l 201 438 l 269 505 l 265 511 l 276 491 l 184 400 l 173 375 l 280 483 l 289 467 l 289 231 l 287 231 l 287 229 l 288 229 l 222 163 l 201 163 z m 236 163 l 295 222 l 305 212 l 257 163 l 236 163 z m 270 163 l 312 205 l 323 194 l 291 163 l 270 163 z m 305 163 l 329 188 l 340 177 l 325 163 l 305 163 z m 354 143 l 364 153 l 375 144 l 354 123 l 354 143 z m 354 109 l 382 137 l 398 122 l 393 127 l 354 88 l 354 109 z m 411 110 l 362 62 l 364 60 l 354 70 l 354 75 l 400 120 l 411 110 z m 425 146 l 476 196 l 476 210 l 418 152 l 425 146 z"},"~":{"x_min":0,"x_max":433,"ha":433,"o":"m 359 609 b 362 613 364 617 367 621 l 330 585 b 342 590 351 599 359 609 z m 86 652 b 77 642 70 631 64 618 l 122 676 b 108 671 96 663 86 652 z m 285 574 b 285 574 285 574 285 574 b 290 574 295 574 300 575 l 384 659 b 386 665 387 671 388 677 z m 358 663 l 355 665 l 378 688 l 365 688 l 348 672 l 338 683 l 344 688 l 333 688 b 330 671 324 659 316 654 b 307 647 298 644 288 645 b 278 645 269 647 259 652 b 249 655 238 659 227 665 b 224 666 222 667 220 668 l 220 648 l 205 633 l 205 633 b 200 635 195 637 190 639 b 190 639 190 639 190 639 l 219 668 b 216 670 212 671 209 672 l 178 642 l 178 642 b 173 643 166 643 159 644 l 193 677 b 193 677 193 677 193 677 b 189 678 186 679 182 680 l 145 643 b 132 642 122 638 114 633 l 114 633 l 163 682 b 161 682 160 682 158 682 b 155 682 152 682 149 682 l 53 586 b 52 581 51 575 50 569 l 90 609 b 85 601 84 596 84 596 l 50 568 l 107 568 b 107 584 112 596 122 603 b 132 608 140 610 147 610 b 167 610 189 604 213 592 b 215 592 218 591 220 590 l 220 600 l 237 617 b 242 615 247 613 253 611 l 228 587 b 232 586 235 585 239 584 l 264 608 b 264 608 264 608 264 608 b 269 607 275 606 282 606 b 282 606 282 606 282 606 l 255 579 b 259 577 262 576 266 576 l 296 606 b 341 611 358 663 358 663 z m 220 613 l 220 626 b 218 627 216 628 214 629 l 220 634 l 220 626 b 223 624 225 623 228 622 z"},"D":{"x_min":0,"x_max":575,"ha":575,"o":"m 539 496 l 539 499 b 539 502 538 506 538 509 l 462 433 l 462 454 l 537 529 b 536 533 536 537 535 541 l 462 467 l 462 488 l 532 558 b 531 562 530 565 528 569 l 462 502 b 461 508 460 514 459 520 b 459 520 459 520 459 520 l 523 584 b 523 585 523 585 523 586 b 521 588 520 591 519 594 l 456 531 b 455 537 453 542 451 547 l 512 608 b 510 611 508 613 506 616 l 446 556 b 444 561 441 565 439 569 b 439 569 439 569 439 569 l 498 628 b 496 631 494 634 492 636 l 433 578 b 430 581 427 585 423 589 l 423 589 l 481 647 b 479 649 477 651 474 654 l 417 596 l 417 596 b 413 599 409 603 405 606 l 463 663 b 460 665 457 667 454 669 l 397 611 l 397 611 b 393 614 389 617 384 619 l 384 619 l 441 676 b 438 678 435 680 432 681 l 374 623 l 374 623 b 369 625 364 627 358 628 l 358 628 l 418 687 b 414 689 411 690 407 691 l 346 630 b 343 630 339 631 335 631 l 326 631 l 391 695 b 387 696 383 697 379 698 l 312 631 l 291 631 l 360 700 b 357 700 353 700 350 700 l 347 700 l 278 631 l 257 631 l 326 700 l 312 700 l 243 631 l 222 631 l 291 700 l 277 700 l 208 631 l 187 631 l 256 700 l 243 700 l 173 631 l 152 631 l 222 700 l 208 700 l 139 631 l 118 631 l 187 700 l 173 700 l 106 633 l 96 644 l 152 700 l 138 700 l 89 651 l 79 661 l 117 700 l 104 700 l 72 668 l 61 679 l 83 700 l 69 700 l 54 686 l 44 696 l 48 700 b 43 700 40 700 40 700 l 40 0 b 40 0 202 0 319 0 b 377 0 448 39 493 99 l 491 100 l 501 111 b 508 121 514 131 519 142 l 482 105 l 468 113 l 531 175 b 533 181 534 187 535 193 l 459 117 l 446 125 l 538 217 b 538 221 539 225 539 229 l 539 231 l 437 130 l 430 133 b 415 113 395 95 370 84 l 423 137 l 430 133 b 436 142 441 151 446 160 l 539 252 l 539 266 l 455 183 b 458 192 460 201 461 209 l 461 209 l 539 287 l 539 301 l 462 224 l 462 245 l 539 322 l 539 336 l 462 259 l 462 280 l 539 357 l 539 370 l 462 294 l 462 314 l 539 391 l 539 405 l 462 328 l 462 349 l 539 426 l 539 440 l 462 363 l 462 384 l 539 461 l 539 475 l 462 398 l 462 419 z m 108 622 l 113 626 l 123 616 l 108 601 z m 108 587 l 130 609 l 141 598 l 108 566 z m 108 552 l 148 591 l 158 581 l 108 531 z m 108 517 l 165 574 l 175 563 l 108 496 z m 252 70 l 329 147 b 323 145 317 143 310 142 l 238 70 l 217 70 l 287 140 l 273 140 l 203 70 l 182 70 l 252 140 l 239 140 l 169 70 l 148 70 l 218 140 l 204 140 l 134 70 l 113 70 l 183 140 b 179 140 177 140 177 140 l 177 148 l 108 79 l 108 100 l 177 169 l 177 182 l 108 114 l 108 135 l 177 203 l 177 217 l 108 149 l 108 170 l 177 238 l 177 252 l 108 184 l 108 205 l 177 273 l 177 287 l 108 218 l 108 239 l 177 308 l 177 321 l 108 253 l 108 274 l 177 342 l 177 356 l 108 288 l 108 309 l 177 377 l 177 391 l 108 323 l 108 344 l 177 412 l 177 426 l 108 357 l 108 378 l 177 447 l 177 460 l 108 392 l 108 413 l 177 481 l 177 495 l 108 427 l 108 448 l 177 516 l 177 530 l 108 462 l 108 483 l 177 551 l 177 562 b 177 562 254 562 289 562 b 315 562 355 555 374 522 b 381 510 385 495 385 476 l 385 236 b 385 208 376 186 362 170 l 369 166 l 273 70 z m 308 70 b 307 70 307 70 307 70 l 287 70 l 378 161 l 372 165 l 392 154 z m 348 76 b 340 73 331 72 322 71 l 401 149 l 414 142 z"},"^":{"x_min":0,"x_max":320,"ha":320,"o":"m 179 685 l 166 685 l 142 661 l 135 675 l 145 685 l 131 685 l 130 684 l 130 685 b 87 626 32 604 32 604 l 82 549 l 82 549 l 86 591 l 105 610 b 128 629 148 650 148 650 l 147 652 z m 295 604 l 246 556 l 246 576 l 281 612 b 278 613 275 615 272 617 l 245 590 l 245 596 b 245 596 242 599 237 602 l 259 625 b 257 627 254 629 251 631 l 229 609 b 226 611 222 614 217 618 l 240 640 b 237 642 235 644 232 647 l 210 624 b 206 627 202 631 199 634 l 222 657 b 220 659 217 662 215 664 l 191 640 b 188 644 184 647 181 650 l 180 650 l 205 676 b 203 678 201 681 199 683 l 166 650 l 148 650 l 154 638 l 84 568 l 82 552 l 158 629 l 164 617 l 164 617 l 247 549 l 247 549 l 296 604 b 296 604 296 604 295 604 z"},"0":{"x_min":0,"x_max":467,"ha":467,"o":"m 330 38 l 423 132 b 425 138 427 144 429 151 l 325 47 l 330 38 z m 375 55 b 387 66 398 79 407 94 l 342 30 b 354 37 365 45 375 55 z m 435 247 l 435 261 l 367 192 b 368 198 368 204 368 210 l 368 214 l 435 281 l 435 295 l 368 227 l 368 248 l 435 316 l 435 330 l 368 262 l 368 283 l 435 350 l 435 364 l 368 296 l 368 317 l 435 385 l 435 398 l 368 331 l 368 351 l 435 419 l 435 433 l 368 365 l 368 386 l 435 453 l 435 467 l 368 399 l 368 420 l 435 488 l 435 493 b 435 496 435 498 435 501 l 368 434 l 368 455 l 434 520 b 433 525 433 529 432 533 l 368 468 l 368 487 b 368 488 368 488 368 489 l 429 550 b 428 554 427 557 426 561 l 367 502 b 367 509 366 515 365 521 l 421 576 b 420 580 418 583 417 586 l 363 532 l 363 532 b 362 538 360 543 358 548 l 410 600 b 409 603 407 606 405 609 l 354 558 b 352 563 350 567 347 572 l 397 621 b 395 624 393 626 391 629 l 342 580 b 339 584 336 588 333 592 l 381 640 b 379 642 377 644 375 646 b 375 646 374 647 374 647 l 326 599 b 323 602 319 605 315 608 l 315 608 l 363 656 b 361 658 358 660 355 662 l 307 614 l 307 614 b 302 616 298 619 293 621 l 293 621 l 343 671 b 340 672 337 674 334 676 l 283 624 b 278 626 272 627 267 629 l 267 629 l 321 683 b 317 684 314 685 311 687 l 255 630 b 249 631 242 631 236 631 b 236 631 235 631 235 631 l 295 692 b 292 693 288 694 285 695 l 221 631 b 212 630 203 628 195 626 l 267 698 b 263 698 259 699 255 699 l 174 618 l 174 618 b 173 618 172 617 171 617 l 171 616 l 119 563 b 130 586 148 605 171 617 l 165 630 l 235 700 b 230 700 225 700 220 699 l 160 639 l 152 657 l 154 653 l 197 696 b 191 695 185 694 179 692 l 149 662 l 142 677 l 145 679 b 144 678 143 678 142 677 b 127 669 112 659 99 646 b 58 610 37 559 36 493 l 36 208 b 37 142 58 91 99 54 b 137 19 183 1 235 0 l 236 0 b 273 0 306 9 336 26 l 319 61 l 433 176 b 434 181 434 186 435 191 l 314 71 l 306 87 l 307 85 l 318 95 b 325 101 332 108 338 116 l 435 213 l 435 226 l 357 147 l 357 147 b 360 156 363 166 365 176 l 435 247 z m 110 541 l 176 606 l 175 608 l 184 588 l 182 592 l 105 515 b 106 524 108 533 110 541 z m 212 70 b 215 70 219 69 223 69 b 219 69 215 70 212 70 z m 236 68 b 231 68 227 68 223 69 l 285 131 l 281 140 l 211 70 b 205 71 199 72 194 74 l 259 140 b 254 138 249 137 243 137 l 184 78 b 179 79 174 82 169 84 l 223 138 b 219 138 215 139 211 140 l 161 89 b 157 92 153 95 149 98 l 197 146 b 194 148 192 150 189 152 l 142 104 b 138 108 135 112 132 116 l 180 164 b 179 167 177 170 176 173 l 126 123 b 123 128 121 132 119 137 l 172 190 b 172 194 171 198 171 202 l 114 146 b 113 151 111 156 109 162 l 170 223 l 170 236 l 107 173 b 106 179 105 185 105 191 l 170 257 l 170 271 l 104 205 l 104 225 l 170 291 l 170 305 l 104 239 l 104 260 l 170 326 l 170 339 l 104 273 l 104 294 l 170 360 l 170 374 l 104 308 l 104 328 l 170 395 l 170 408 l 104 342 l 104 363 l 170 429 l 170 443 l 104 377 l 104 397 l 170 463 l 170 477 l 104 411 l 104 432 l 171 498 b 171 504 172 509 173 514 l 104 445 l 104 466 l 198 560 l 193 569 l 104 480 l 104 496 b 104 498 104 499 104 501 l 187 583 l 200 555 b 209 560 221 563 236 563 b 292 562 301 524 302 487 l 302 213 b 301 188 297 162 277 148 l 292 117 l 243 68 b 241 68 238 68 236 68 z m 287 77 b 278 74 268 71 258 70 l 296 108 l 303 94 l 287 77 z"},"F":{"x_min":0,"x_max":532,"ha":532,"o":"m 500 700 l 492 700 l 423 631 l 402 631 l 471 700 l 457 700 l 388 631 l 367 631 l 436 700 l 423 700 l 353 631 l 332 631 l 402 700 l 388 700 l 318 631 l 297 631 l 367 700 l 353 700 l 284 631 l 263 631 l 332 700 l 318 700 l 249 631 l 228 631 l 297 700 l 284 700 l 214 631 l 193 631 l 263 700 l 249 700 l 179 631 l 158 631 l 228 700 l 214 700 l 145 631 l 124 631 l 193 700 l 179 700 l 110 631 l 110 631 l 110 630 l 110 630 l 110 631 l 99 641 l 158 700 l 145 700 l 92 648 l 82 658 l 124 700 l 110 700 l 75 665 l 65 676 l 89 700 l 75 700 l 58 683 l 47 693 l 54 700 l 40 700 l 40 0 l 179 0 l 179 5 l 177 2 l 166 13 l 179 26 l 179 40 l 159 20 l 149 30 l 179 61 l 179 74 l 142 37 l 132 48 l 179 95 l 179 109 l 125 54 l 114 65 l 179 130 l 179 144 l 110 74 l 110 95 l 179 165 l 179 179 l 110 109 l 110 130 l 179 200 l 179 213 l 110 144 l 110 165 l 179 234 l 179 248 l 110 179 l 110 200 l 179 269 l 179 283 l 110 213 l 110 234 l 170 294 l 179 285 l 374 285 l 372 288 l 374 290 l 374 304 l 365 295 l 355 306 l 374 325 l 374 339 l 348 313 l 338 324 l 374 360 l 374 374 l 332 331 l 321 342 l 374 395 l 374 408 l 315 349 l 310 354 l 299 354 l 369 424 l 355 424 l 285 354 l 264 354 l 334 424 l 320 424 l 251 354 l 230 354 l 299 424 l 285 424 l 216 354 l 195 354 l 264 424 l 251 424 l 181 354 l 160 354 l 230 424 l 216 424 l 146 354 l 125 354 l 195 424 l 181 424 l 112 354 l 110 354 l 110 373 l 179 443 l 179 457 l 110 387 l 110 408 l 179 478 l 179 491 l 110 422 l 110 443 l 179 512 l 179 526 l 110 457 l 110 478 l 179 547 l 179 561 l 110 491 l 110 512 l 169 571 l 179 561 l 500 561 l 500 569 l 497 565 l 486 576 l 500 590 l 500 604 l 480 583 l 470 594 l 500 625 l 500 639 l 463 601 l 453 612 l 500 660 l 500 674 l 446 619 l 436 630 l 500 694 l 500 700 z m 110 617 l 117 624 l 127 613 l 110 596 l 110 617 z m 110 582 l 134 606 l 145 596 l 110 561 l 110 582 z m 152 312 l 163 301 l 110 248 l 110 269 l 152 312 z m 145 319 l 110 283 l 110 304 l 135 329 l 145 319 z m 118 346 l 128 336 l 110 318 l 110 339 l 118 346 z m 110 526 l 110 547 l 152 589 l 162 578 l 110 526 z"},"`":{"x_min":0,"x_max":308,"ha":308,"o":"m 263 560 b 261 562 259 565 257 568 l 244 555 b 239 557 234 559 229 561 l 248 579 b 246 582 244 585 242 587 l 219 564 b 218 565 216 565 215 566 b 212 569 210 571 207 574 l 234 600 b 232 603 230 606 228 608 l 201 581 b 200 582 196 586 191 592 l 220 622 b 219 625 217 627 215 630 l 184 599 b 181 603 178 607 175 611 l 208 644 b 207 648 205 651 204 654 l 169 619 b 164 625 158 633 160 631 l 198 669 b 196 672 195 675 194 679 l 154 639 b 152 641 151 644 149 646 b 146 647 142 649 143 649 l 179 685 l 165 685 l 133 653 b 129 655 124 657 119 660 l 144 685 l 131 685 l 109 664 b 101 668 95 671 95 670 l 110 685 l 96 685 l 86 675 b 81 677 76 679 71 681 l 75 685 l 63 685 b 93 641 135 594 189 550 l 257 550 b 256 550 255 550 254 551 z"}}}
